<?xml version="1.0" encoding="UTF-8"?>
<!DOCTYPE svg PUBLIC "-//W3C//DTD SVG 1.1//EN" "http://www.w3.org/Graphics/SVG/1.1/DTD/svg11.dtd">
<!-- Creator: CorelDRAW X6 -->
<svg xmlns="http://www.w3.org/2000/svg" xml:space="preserve" width="184.856mm" height="184.856mm" version="1.1" shape-rendering="geometricPrecision" text-rendering="geometricPrecision" image-rendering="optimizeQuality" fill-rule="evenodd" clip-rule="evenodd"
viewBox="0 0 915 915"
 xmlns:xlink="http://www.w3.org/1999/xlink">
 <g id="Слой_x0020_1">
  <metadata id="CorelCorpID_0Corel-Layer"/>
  <path fill="#B3B3B3" d="M59 0l796 0c33,0 59,27 59,59l0 796c0,33 -27,59 -59,59l-796 0c-33,0 -59,-27 -59,-59l0 -796c0,-33 27,-59 59,-59zm10 99l0 717c0,16 13,30 30,30l717 0c16,0 30,-13 30,-30l0 -717c0,-16 -13,-30 -30,-30l-717 0c-16,0 -30,13 -30,30z"/>
 </g>
</svg>
