<?xml version="1.0" encoding="UTF-8"?>
<!DOCTYPE svg PUBLIC "-//W3C//DTD SVG 1.1//EN" "http://www.w3.org/Graphics/SVG/1.1/DTD/svg11.dtd">
<!-- Creator: CorelDRAW X6 -->
<svg xmlns="http://www.w3.org/2000/svg" xml:space="preserve" width="204.068mm" height="274.682mm" version="1.1" shape-rendering="geometricPrecision" text-rendering="geometricPrecision" image-rendering="optimizeQuality" fill-rule="evenodd" clip-rule="evenodd"
viewBox="0 0 987 1329"
 xmlns:xlink="http://www.w3.org/1999/xlink">
 <g id="Слой_x0020_1">
  <metadata id="CorelCorpID_0Corel-Layer"/>
  <path fill="#B3B3B3" d="M282 0l420 0c34,0 63,28 63,63l0 1204c0,34 -28,63 -63,63l-420 0c-34,0 -63,-28 -63,-63l0 -1204c0,-34 28,-63 63,-63zm-101 914l-181 0 12 51c26,33 98,77 98,162l0 119c0,28 22,50 50,50l21 0 0 -382zm0 -441l-181 0 12 51c26,33 98,77 98,162l0 119c0,28 22,50 50,50l21 0 0 -382zm0 -437l-181 0 12 51c26,33 98,77 98,162l0 119c0,28 22,50 50,50l21 0 0 -382zm625 878l181 0 -12 51c-26,33 -98,77 -98,162l0 119c0,28 -22,50 -50,50l-21 0 0 -382zm0 -441l181 0 -12 51c-26,33 -98,77 -98,162l0 119c0,28 -22,50 -50,50l-21 0 0 -382zm0 -437l181 0 -12 51c-26,33 -98,77 -98,162l0 119c0,28 -22,50 -50,50l-21 0 0 -382z"/>
 </g>
</svg>
