<?xml version="1.0" encoding="UTF-8"?>
<!DOCTYPE svg PUBLIC "-//W3C//DTD SVG 1.1//EN" "http://www.w3.org/Graphics/SVG/1.1/DTD/svg11.dtd">
<!-- Creator: CorelDRAW X6 -->
<svg xmlns="http://www.w3.org/2000/svg" xml:space="preserve" width="97.1078mm" height="95.5795mm" version="1.1" shape-rendering="geometricPrecision" text-rendering="geometricPrecision" image-rendering="optimizeQuality" fill-rule="evenodd" clip-rule="evenodd"
viewBox="0 0 740 729"
 xmlns:xlink="http://www.w3.org/1999/xlink">
 <g id="Слой_x0020_1">
  <metadata id="CorelCorpID_0Corel-Layer"/>
  <path fill="#B3B3B3" d="M371 622c0,0 1,0 1,0l224 0c21,0 38,-17 38,-38l0 -107c0,-29 24,-53 53,-53 29,0 53,24 53,53l0 150c0,57 -41,102 -99,102l-270 0c0,0 -1,0 -1,0 -1,0 -1,0 -2,0 0,0 -1,0 -1,0l-270 0c-58,0 -99,-45 -99,-102l0 -150c0,-29 24,-53 53,-53 29,0 53,24 53,53l0 107c0,21 17,38 38,38l224 0c0,0 1,0 1,0 1,0 1,0 2,0zm174 -470l-137 -137c0,0 -1,-1 -1,-1l0 0c0,0 -1,-1 -1,-1l0 0c0,0 -1,-1 -1,-1l0 0c0,0 -1,-1 -1,-1l0 0c0,0 -1,-1 -1,-1l0 0c0,0 -1,0 -1,-1l0 0c0,0 -1,0 -1,-1l0 0c0,0 -1,0 -1,-1l0 0c0,0 -1,0 -1,-1l0 0c0,0 0,0 -1,0l-1 0 -1 0 -1 0 -1 0 -1 0 0 0 0 0 0 0c0,0 -1,0 -1,0l0 0c0,0 -1,0 -1,0l0 0c0,0 -1,0 -1,0l-1 0 0 0 0 0c-6,-3 -13,-4 -20,-4 -7,0 -14,1 -20,4l0 0 0 0 -1 0 -1 0 0 0 0 0c0,0 -1,0 -1,0l0 0 0 0 -1 0 -1 0 -1 0 -1 0 0 0 -1 0 0 0c0,0 -1,0 -1,0l0 0c0,0 -1,0 -1,1l0 0c0,0 -1,0 -1,1l0 0c0,0 -1,0 -1,1l0 0c0,0 -1,0 -1,1l0 0c0,0 -1,0 -1,1l0 0c0,0 -1,1 -1,1l0 0c0,0 -1,1 -1,1l0 0c0,0 -1,1 -1,1l0 0c0,0 -1,1 -1,1l-137 137c-21,21 -21,55 0,75 21,21 55,21 75,0l46 -46 0 308c0,29 24,53 53,53 29,0 53,-24 53,-53l0 -308 46 46c21,21 55,21 75,0 21,-21 21,-55 0,-75z"/>
 </g>
</svg>
