<?xml version="1.0" encoding="UTF-8"?>
<!DOCTYPE svg PUBLIC "-//W3C//DTD SVG 1.1//EN" "http://www.w3.org/Graphics/SVG/1.1/DTD/svg11.dtd">
<!-- Creator: CorelDRAW X6 -->
<svg xmlns="http://www.w3.org/2000/svg" xml:space="preserve" width="126.905mm" height="92.4176mm" version="1.1" shape-rendering="geometricPrecision" text-rendering="geometricPrecision" image-rendering="optimizeQuality" fill-rule="evenodd" clip-rule="evenodd"
viewBox="0 0 1312 956"
 xmlns:xlink="http://www.w3.org/1999/xlink">
 <g id="Слой_x0020_1">
  <metadata id="CorelCorpID_0Corel-Layer"/>
  <path fill="#B3B3B3" d="M1290 547c-144,213 -363,408 -634,408 -272,0 -490,-195 -634,-408 -29,-43 -29,-96 0,-139 144,-213 363,-408 634,-408 272,0 490,195 634,408 29,43 29,96 0,139zm-634 -305c130,0 236,106 236,236 0,130 -106,236 -236,236 -130,0 -236,-106 -236,-236 0,-130 106,-236 236,-236zm0 124c62,0 112,50 112,112 0,62 -50,112 -112,112 -62,0 -112,-50 -112,-112 0,-62 50,-112 112,-112zm532 112c-155,-229 -343,-354 -532,-354 -188,0 -377,125 -532,354 155,229 343,354 532,354 188,0 377,-125 532,-354z"/>
 </g>
</svg>
