<?xml version="1.0" encoding="UTF-8"?>
<!DOCTYPE svg PUBLIC "-//W3C//DTD SVG 1.1//EN" "http://www.w3.org/Graphics/SVG/1.1/DTD/svg11.dtd">
<!-- Creator: CorelDRAW X6 -->
<svg xmlns="http://www.w3.org/2000/svg" xml:space="preserve" width="104.01mm" height="104.01mm" version="1.1" shape-rendering="geometricPrecision" text-rendering="geometricPrecision" image-rendering="optimizeQuality" fill-rule="evenodd" clip-rule="evenodd"
viewBox="0 0 382 382"
 xmlns:xlink="http://www.w3.org/1999/xlink">
 <g id="Слой_x0020_1">
  <metadata id="CorelCorpID_0Corel-Layer"/>
  <path fill="#B3B3B3" d="M191 0c105,0 191,85 191,191 0,105 -85,191 -191,191 -105,0 -191,-85 -191,-191 0,-105 85,-191 191,-191zm17 222c0,-9 3,-15 7,-20l21 -23c12,-13 17,-23 17,-43 0,-33 -19,-43 -53,-43 -18,0 -37,2 -56,7l0 33c19,-4 35,-6 46,-6 17,0 22,3 22,17 0,9 -3,16 -9,22l-18 20c-10,11 -13,17 -13,34l0 21 36 0 0 -19zm3 35l-40 0 0 37 40 0 0 -37zm-19 -213c81,0 147,66 147,147 0,81 -66,147 -147,147 -81,0 -147,-66 -147,-147 0,-81 66,-147 147,-147z"/>
 </g>
</svg>
