<?xml version="1.0" encoding="UTF-8"?>
<!DOCTYPE svg PUBLIC "-//W3C//DTD SVG 1.1//EN" "http://www.w3.org/Graphics/SVG/1.1/DTD/svg11.dtd">
<!-- Creator: CorelDRAW X6 -->
<svg xmlns="http://www.w3.org/2000/svg" xml:space="preserve" width="174.562mm" height="174.562mm" version="1.1" shape-rendering="geometricPrecision" text-rendering="geometricPrecision" image-rendering="optimizeQuality" fill-rule="evenodd" clip-rule="evenodd"
viewBox="0 0 858 858"
 xmlns:xlink="http://www.w3.org/1999/xlink">
 <g id="Слой_x0020_1">
  <metadata id="CorelCorpID_0Corel-Layer"/>
  <path fill="#B3B3B3" d="M429 0c237,0 429,192 429,429 0,237 -192,429 -429,429 -237,0 -429,-192 -429,-429 0,-237 192,-429 429,-429zm-148 530l316 -60c19,-4 37,9 40,27 4,19 -9,37 -27,40l-316 60c-19,4 -37,-9 -40,-27 -4,-19 9,-37 27,-40zm274 -243c30,0 54,24 54,54 0,30 -24,54 -54,54 -30,0 -54,-24 -54,-54 0,-30 24,-54 54,-54zm-251 0c30,0 54,24 54,54 0,30 -24,54 -54,54 -30,0 -54,-24 -54,-54 0,-30 24,-54 54,-54zm125 -216c197,0 357,160 357,357 0,197 -160,357 -357,357 -197,0 -357,-160 -357,-357 0,-197 160,-357 357,-357z"/>
 </g>
</svg>
