<?xml version="1.0" encoding="UTF-8"?>
<!DOCTYPE svg PUBLIC "-//W3C//DTD SVG 1.1//EN" "http://www.w3.org/Graphics/SVG/1.1/DTD/svg11.dtd">
<!-- Creator: CorelDRAW X6 -->
<svg xmlns="http://www.w3.org/2000/svg" xml:space="preserve" width="174.562mm" height="174.562mm" version="1.1" shape-rendering="geometricPrecision" text-rendering="geometricPrecision" image-rendering="optimizeQuality" fill-rule="evenodd" clip-rule="evenodd"
viewBox="0 0 766 766"
 xmlns:xlink="http://www.w3.org/1999/xlink">
 <g id="Слой_x0020_1">
  <metadata id="CorelCorpID_0Corel-Layer"/>
  <path fill="#B3B3B3" d="M383 0c212,0 383,172 383,383 0,212 -172,383 -383,383 -212,0 -383,-172 -383,-383 0,-212 172,-383 383,-383zm-90 540c17,-37 50,-50 90,-50 40,0 72,13 90,50 7,15 26,22 41,15 15,-7 22,-26 15,-41 -28,-59 -81,-86 -145,-86 -64,0 -118,27 -145,86 -7,15 -1,34 15,41 15,7 34,1 41,-15zm202 -283c26,0 48,21 48,48 0,26 -21,48 -48,48 -26,0 -48,-21 -48,-48 0,-26 21,-48 48,-48zm-224 0c26,0 48,21 48,48 0,26 -21,48 -48,48 -26,0 -48,-21 -48,-48 0,-26 21,-48 48,-48zm112 -193c176,0 319,143 319,319 0,176 -143,319 -319,319 -176,0 -319,-143 -319,-319 0,-176 143,-319 319,-319z"/>
 </g>
</svg>
