<?xml version="1.0" encoding="UTF-8"?>
<!DOCTYPE svg PUBLIC "-//W3C//DTD SVG 1.1//EN" "http://www.w3.org/Graphics/SVG/1.1/DTD/svg11.dtd">
<!-- Creator: CorelDRAW X6 -->
<svg xmlns="http://www.w3.org/2000/svg" xml:space="preserve" width="174.562mm" height="174.562mm" version="1.1" shape-rendering="geometricPrecision" text-rendering="geometricPrecision" image-rendering="optimizeQuality" fill-rule="evenodd" clip-rule="evenodd"
viewBox="0 0 690 690"
 xmlns:xlink="http://www.w3.org/1999/xlink">
 <g id="Слой_x0020_1">
  <metadata id="CorelCorpID_0Corel-Layer"/>
  <path fill="#B3B3B3" d="M345 0c191,0 345,154 345,345 0,191 -154,345 -345,345 -191,0 -345,-154 -345,-345 0,-191 154,-345 345,-345zm-81 417c16,33 45,45 81,45 36,0 65,-12 81,-45 6,-14 23,-20 37,-13 14,6 20,23 13,37 -25,53 -73,77 -131,77 -58,0 -106,-24 -131,-77 -6,-14 -1,-30 13,-37 14,-6 30,-1 37,13zm182 -186c24,0 43,19 43,43 0,24 -19,43 -43,43 -24,0 -43,-19 -43,-43 0,-24 19,-43 43,-43zm-202 0c24,0 43,19 43,43 0,24 -19,43 -43,43 -24,0 -43,-19 -43,-43 0,-24 19,-43 43,-43zm101 -174c159,0 288,129 288,288 0,159 -129,288 -288,288 -159,0 -288,-129 -288,-288 0,-159 129,-288 288,-288z"/>
 </g>
</svg>
