<?xml version="1.0" encoding="UTF-8"?>
<!DOCTYPE svg PUBLIC "-//W3C//DTD SVG 1.1//EN" "http://www.w3.org/Graphics/SVG/1.1/DTD/svg11.dtd">
<!-- Creator: CorelDRAW X6 -->
<svg xmlns="http://www.w3.org/2000/svg" xml:space="preserve" width="128.792mm" height="92.7057mm" version="1.1" shape-rendering="geometricPrecision" text-rendering="geometricPrecision" image-rendering="optimizeQuality" fill-rule="evenodd" clip-rule="evenodd"
viewBox="0 0 1360 979"
 xmlns:xlink="http://www.w3.org/1999/xlink">
 <g id="Слой_x0020_1">
  <metadata id="CorelCorpID_0Corel-Layer"/>
  <path fill="#B3B3B3" d="M354 827c-48,42 -97,83 -148,124 -45,36 -106,38 -153,5 -47,-33 -65,-91 -46,-146 37,-105 102,-195 182,-273 -6,-27 -3,-57 11,-83 98,-198 250,-368 470,-430 218,-61 440,3 629,116 46,28 69,79 59,132 -17,89 -54,174 -127,231 -32,25 -71,33 -110,22 -16,-4 -32,-6 -50,-6 5,19 9,39 10,60 3,44 -15,84 -51,111 -190,140 -409,182 -640,148 -13,-2 -25,-5 -36,-10zm491 -504c-171,-28 -347,34 -531,187 199,-402 546,-485 919,-261 -13,72 -40,123 -81,154 -78,-21 -174,-11 -287,28 56,51 86,103 89,157 -154,114 -336,155 -547,124 145,-146 291,-276 437,-389zm-186 59c-292,135 -469,291 -532,469 202,-162 370,-325 532,-469z"/>
 </g>
</svg>
