<?xml version="1.0" encoding="UTF-8"?>
<!DOCTYPE svg PUBLIC "-//W3C//DTD SVG 1.1//EN" "http://www.w3.org/Graphics/SVG/1.1/DTD/svg11.dtd">
<!-- Creator: CorelDRAW X6 -->
<svg xmlns="http://www.w3.org/2000/svg" xml:space="preserve" width="148.082mm" height="148.082mm" version="1.1" shape-rendering="geometricPrecision" text-rendering="geometricPrecision" image-rendering="optimizeQuality" fill-rule="evenodd" clip-rule="evenodd"
viewBox="0 0 834 834"
 xmlns:xlink="http://www.w3.org/1999/xlink">
 <g id="Слой_x0020_1">
  <metadata id="CorelCorpID_0Corel-Layer"/>
  <path fill="#B3B3B3" d="M254 0l327 0c139,0 254,114 254,254l0 327c0,139 -114,254 -254,254l-327 0c-139,0 -254,-114 -254,-254l0 -327c0,-139 114,-254 254,-254zm386 144c28,0 50,22 50,50 0,28 -22,50 -50,50 -28,0 -50,-22 -50,-50 0,-28 22,-50 50,-50zm-222 59c118,0 214,96 214,214 0,118 -96,214 -214,214 -118,0 -214,-96 -214,-214 0,-118 96,-214 214,-214zm0 75c77,0 139,62 139,139 0,77 -62,139 -139,139 -77,0 -139,-62 -139,-139 0,-77 62,-139 139,-139z"/>
 </g>
</svg>
