<?xml version="1.0" encoding="UTF-8"?>
<!DOCTYPE svg PUBLIC "-//W3C//DTD SVG 1.1//EN" "http://www.w3.org/Graphics/SVG/1.1/DTD/svg11.dtd">
<!-- Creator: CorelDRAW X6 -->
<svg xmlns="http://www.w3.org/2000/svg" xml:space="preserve" width="94.9398mm" height="92.3966mm" version="1.1" shape-rendering="geometricPrecision" text-rendering="geometricPrecision" image-rendering="optimizeQuality" fill-rule="evenodd" clip-rule="evenodd"
viewBox="0 0 218 212"
 xmlns:xlink="http://www.w3.org/1999/xlink">
 <g id="Слой_x0020_1">
  <metadata id="CorelCorpID_0Corel-Layer"/>
  <path fill="#B3B3B3" d="M111 0c59,0 106,47 106,106 0,58 -48,106 -106,106 -26,0 -50,-9 -68,-25 -7,-6 -7,-14 -3,-19l4 -5c5,-6 12,-8 21,-2 13,9 25,18 45,18 28,0 73,-33 73,-73 0,-40 -33,-73 -73,-73 -20,0 -38,8 -51,21l11 11c3,3 4,8 3,13 -2,5 -6,7 -11,7l-51 0c-7,0 -12,-5 -12,-12l0 -50c0,-5 3,-9 7,-11 4,-2 9,-1 13,2l17 16c19,-19 46,-30 75,-30zm-7 52l10 0c5,0 9,4 9,9l0 43 20 16c4,3 5,9 1,13l-7 8c-3,4 -9,5 -13,1 -7,-6 -22,-16 -28,-21 -2,-2 -3,-4 -3,-7l0 -54c0,-5 4,-9 9,-9z"/>
 </g>
</svg>
