<?xml version="1.0" encoding="UTF-8"?>
<!DOCTYPE svg PUBLIC "-//W3C//DTD SVG 1.1//EN" "http://www.w3.org/Graphics/SVG/1.1/DTD/svg11.dtd">
<!-- Creator: CorelDRAW X6 -->
<svg xmlns="http://www.w3.org/2000/svg" xml:space="preserve" width="176.537mm" height="163.105mm" version="1.1" shape-rendering="geometricPrecision" text-rendering="geometricPrecision" image-rendering="optimizeQuality" fill-rule="evenodd" clip-rule="evenodd"
viewBox="0 0 6555 6056"
 xmlns:xlink="http://www.w3.org/1999/xlink">
 <g id="Слой_x0020_1">
  <metadata id="CorelCorpID_0Corel-Layer"/>
  <path fill="#B3B3B3" d="M1164 0l346 1204 2299 -660 -156 -544 365 0 -27 8 105 367 476 -137 -68 -238 312 0 1738 6056 -309 0 -100 -337 -1 0 -82 -286 -476 137 82 286 -1 0 60 199 -337 0 -344 -1198 -2299 660 154 538 -331 0 -68 -255 -2 1 -86 -301 -476 137 86 300 -2 0 30 119 -315 0 -1738 -6056 318 0 23 74 105 367 476 -137 -87 -304 328 0zm4224 4875l476 -137 105 367 -476 137 -105 -367zm-200 -695l476 -137 105 367 -476 137 -105 -367zm-200 -695l476 -137 105 367 -476 137 -105 -367zm-200 -695l476 -137 105 367 -476 137 -105 -367zm-200 -695l476 -137 105 367 -476 137 -105 -367zm-200 -695l476 -137 105 367 -476 137 -105 -367zm-200 -695l476 -137 105 367 -476 137 -105 -367zm-2452 4238l476 -137 105 367 -476 137 -105 -367zm-200 -695l476 -137 105 367 -476 137 -105 -367zm-200 -695l476 -137 105 367 -476 137 -105 -367zm-200 -695l476 -137 105 367 -476 137 -105 -367zm-200 -695l476 -137 105 367 -476 137 -105 -367zm-200 -695l476 -137 105 367 -476 137 -105 -367zm-200 -695l476 -137 105 367 -476 137 -105 -367zm4300 3372l-827 -2880 -2299 660 827 2880 2299 -660z"/>
 </g>
</svg>
