<?xml version="1.0" encoding="UTF-8"?>
<!DOCTYPE svg PUBLIC "-//W3C//DTD SVG 1.1//EN" "http://www.w3.org/Graphics/SVG/1.1/DTD/svg11.dtd">
<!-- Creator: CorelDRAW X6 -->
<svg xmlns="http://www.w3.org/2000/svg" xml:space="preserve" width="104.378mm" height="103.188mm" version="1.1" shape-rendering="geometricPrecision" text-rendering="geometricPrecision" image-rendering="optimizeQuality" fill-rule="evenodd" clip-rule="evenodd"
viewBox="0 0 1210 1196"
 xmlns:xlink="http://www.w3.org/1999/xlink">
 <g id="Слой_x0020_1">
  <metadata id="CorelCorpID_0Corel-Layer"/>
  <path fill="#B3B3B3" d="M92 1012c51,0 92,41 92,92 0,51 -41,92 -92,92 -51,0 -92,-41 -92,-92 0,-51 41,-92 92,-92zm1026 -675c51,0 92,41 92,92 0,51 -41,92 -92,92 -51,0 -92,-41 -92,-92 0,-51 41,-92 92,-92zm0 337c51,0 92,41 92,92 0,51 -41,92 -92,92 -51,0 -92,-41 -92,-92 0,-51 41,-92 92,-92zm-342 -675c51,0 92,41 92,92 0,51 -41,92 -92,92 -51,0 -92,-41 -92,-92 0,-51 41,-92 92,-92zm0 337c51,0 92,41 92,92 0,51 -41,92 -92,92 -51,0 -92,-41 -92,-92 0,-51 41,-92 92,-92zm0 337c51,0 92,41 92,92 0,51 -41,92 -92,92 -51,0 -92,-41 -92,-92 0,-51 41,-92 92,-92zm-342 -675c51,0 92,41 92,92 0,51 -41,92 -92,92 -51,0 -92,-41 -92,-92 0,-51 41,-92 92,-92zm0 337c51,0 92,41 92,92 0,51 -41,92 -92,92 -51,0 -92,-41 -92,-92 0,-51 41,-92 92,-92zm0 337c51,0 92,41 92,92 0,51 -41,92 -92,92 -51,0 -92,-41 -92,-92 0,-51 41,-92 92,-92zm-342 -675c51,0 92,41 92,92 0,51 -41,92 -92,92 -51,0 -92,-41 -92,-92 0,-51 41,-92 92,-92zm0 337c51,0 92,41 92,92 0,51 -41,92 -92,92 -51,0 -92,-41 -92,-92 0,-51 41,-92 92,-92zm0 337c51,0 92,41 92,92 0,51 -41,92 -92,92 -51,0 -92,-41 -92,-92 0,-51 41,-92 92,-92zm1026 337c51,0 92,41 92,92 0,51 -41,92 -92,92 -51,0 -92,-41 -92,-92 0,-51 41,-92 92,-92zm-342 0c51,0 92,41 92,92 0,51 -41,92 -92,92 -51,0 -92,-41 -92,-92 0,-51 41,-92 92,-92zm-342 0c51,0 92,41 92,92 0,51 -41,92 -92,92 -51,0 -92,-41 -92,-92 0,-51 41,-92 92,-92z"/>
 </g>
</svg>
