<?xml version="1.0" encoding="UTF-8"?>
<!DOCTYPE svg PUBLIC "-//W3C//DTD SVG 1.1//EN" "http://www.w3.org/Graphics/SVG/1.1/DTD/svg11.dtd">
<!-- Creator: CorelDRAW X6 -->
<svg xmlns="http://www.w3.org/2000/svg" xml:space="preserve" width="77.4716mm" height="94.0923mm" version="1.1" shape-rendering="geometricPrecision" text-rendering="geometricPrecision" image-rendering="optimizeQuality" fill-rule="evenodd" clip-rule="evenodd"
viewBox="0 0 452 549"
 xmlns:xlink="http://www.w3.org/1999/xlink">
 <g id="Слой_x0020_1">
  <metadata id="CorelCorpID_0Corel-Layer"/>
  <path fill="#B3B3B3" d="M289 487c-1,34 -29,62 -63,62 -34,0 -62,-27 -63,-62l127 0zm-33 -456c0,-17 -14,-31 -31,-31 -17,0 -31,14 -31,31l0 16c-5,1 -9,2 -13,3 -73,20 -132,92 -136,168 0,2 0,3 0,5 0,1 0,3 0,4 0,4 0,8 0,12 0,32 -7,75 -28,100 -18,21 -22,49 -10,75 12,25 36,41 64,41l311 0c28,0 52,-15 64,-41 12,-25 8,-53 -10,-75 -22,-25 -28,-68 -28,-100 0,-4 0,-8 0,-12 0,-1 0,-3 0,-4 0,-2 0,-3 0,-5 -4,-77 -65,-151 -140,-169 -3,-1 -7,-2 -11,-2l0 -16zm-56 87c-41,11 -83,57 -85,106l0 0 0 0c0,1 0,2 0,3 0,3 0,6 0,9 1,63 -17,115 -45,148l51 0 209 0 51 0c-28,-33 -45,-85 -45,-148 0,-3 0,-6 0,-9 0,-1 0,-2 0,-3l0 0 0 0c-2,-50 -45,-96 -87,-106 -13,-3 -38,-3 -51,1z"/>
 </g>
</svg>
