<?xml version="1.0" encoding="UTF-8"?>
<!DOCTYPE svg PUBLIC "-//W3C//DTD SVG 1.1//EN" "http://www.w3.org/Graphics/SVG/1.1/DTD/svg11.dtd">
<!-- Creator: CorelDRAW X6 -->
<svg xmlns="http://www.w3.org/2000/svg" xml:space="preserve" width="100.332mm" height="99.9354mm" version="1.1" shape-rendering="geometricPrecision" text-rendering="geometricPrecision" image-rendering="optimizeQuality" fill-rule="evenodd" clip-rule="evenodd"
viewBox="0 0 636 634"
 xmlns:xlink="http://www.w3.org/1999/xlink">
 <g id="Слой_x0020_1">
  <metadata id="CorelCorpID_0Corel-Layer"/>
  <path fill="#B3B3B3" d="M211 50c27,-31 66,-50 110,-50 44,0 83,19 109,50 3,0 7,0 10,0 80,0 145,65 145,145 0,4 0,8 0,12 32,27 52,66 52,111 0,44 -20,84 -52,111 0,4 0,8 0,12 0,80 -65,145 -145,145 -3,0 -7,0 -10,0 -27,31 -66,50 -109,50 -44,0 -83,-19 -110,-50 -5,0 -9,1 -14,1 -80,0 -145,-65 -145,-145 0,-3 0,-7 0,-10 -32,-27 -53,-67 -53,-112 0,-45 21,-86 53,-112 0,-3 0,-7 0,-10 0,-80 65,-145 145,-145 5,0 9,0 14,1zm80 285l96 -103c2,-3 5,-4 9,-4 4,0 7,1 9,3l19 18c5,5 5,13 1,18l-124 134c-2,3 -6,4 -9,4 -4,0 -7,-1 -9,-4l-26 -28 -44 -47c-5,-5 -5,-13 0,-17l18 -19c2,-3 6,-4 9,-4 4,0 7,1 9,4l43 45zm30 -259c38,0 69,31 69,69 0,1 0,2 0,3 13,-14 30,-22 50,-22 38,0 69,31 69,69 0,22 -10,42 -27,54 3,0 6,-1 9,-1 38,0 69,31 69,69 0,38 -31,69 -69,69 -3,0 -6,0 -9,-1 16,13 27,32 27,54 0,38 -31,69 -69,69 -20,0 -38,-8 -50,-22 0,1 0,2 0,3 0,38 -31,69 -69,69 -38,0 -69,-31 -69,-69 0,-3 0,-6 0,-8 -13,17 -33,27 -55,27 -38,0 -69,-31 -69,-69 0,-22 11,-42 27,-55 -4,1 -7,1 -11,1 -38,0 -69,-31 -69,-69 0,-38 31,-69 69,-69 4,0 7,0 11,1 -16,-13 -27,-32 -27,-55 0,-38 31,-69 69,-69 22,0 42,11 55,27 0,-3 0,-5 0,-8 0,-38 31,-69 69,-69z"/>
 </g>
</svg>
