<?xml version="1.0" encoding="UTF-8"?>
<!DOCTYPE svg PUBLIC "-//W3C//DTD SVG 1.1//EN" "http://www.w3.org/Graphics/SVG/1.1/DTD/svg11.dtd">
<!-- Creator: CorelDRAW 2017 -->
<svg xmlns="http://www.w3.org/2000/svg" xml:space="preserve" width="100.332mm" height="99.9354mm" version="1.1" shape-rendering="geometricPrecision" text-rendering="geometricPrecision" image-rendering="optimizeQuality" fill-rule="evenodd" clip-rule="evenodd"
viewBox="0 0 636.35 633.83"
 xmlns:xlink="http://www.w3.org/1999/xlink">
 <g id="Слой_x0020_1">
  <metadata id="CorelCorpID_0Corel-Layer"/>
  <path fill="#B3B3B3" d="M211.49 50.15c26.58,-30.71 65.84,-50.15 109.62,-50.15 43.63,0 82.77,19.3 109.34,49.83 3.25,-0.22 6.52,-0.33 9.8,-0.33 80,0 144.91,64.91 144.91,144.91 0,3.89 -0.16,7.76 -0.46,11.61 31.58,26.59 51.65,66.41 51.65,110.89 0,44.49 -20.07,84.31 -51.65,110.89 0.31,3.84 0.46,7.71 0.46,11.61 0,80 -64.91,144.91 -144.91,144.91 -3.28,0 -6.55,-0.11 -9.8,-0.33 -26.57,30.53 -65.71,49.83 -109.34,49.83 -43.78,0 -83.04,-19.44 -109.62,-50.15 -4.54,0.43 -9.11,0.65 -13.72,0.65 -80,0 -144.91,-64.91 -144.91,-144.91 0,-3.45 0.12,-6.88 0.36,-10.3 -32.48,-26.58 -53.22,-66.98 -53.22,-112.21 0,-45.22 20.74,-85.63 53.22,-112.21 -0.24,-3.41 -0.36,-6.85 -0.36,-10.3 0,-80 64.91,-144.91 144.91,-144.91 4.61,0 9.19,0.22 13.72,0.65zm79.72 285.28l95.5 -103.34c2.39,-2.59 5.38,-3.95 8.9,-4.07 3.52,-0.12 6.59,1.05 9.15,3.47l19.19 18.18c5.03,4.77 5.3,12.73 0.59,17.82l-123.59 133.73c-2.47,2.67 -5.59,4.05 -9.23,4.08 -3.64,0.02 -6.78,-1.31 -9.29,-3.96l-26.4 -27.84 -44.43 -46.84c-4.64,-4.9 -4.65,-12.55 -0,-17.45l18.16 -19.17c2.48,-2.62 5.59,-3.96 9.2,-3.96 3.61,-0 6.72,1.34 9.21,3.96l43.05 45.39zm29.9 -259.32c38,0 68.8,30.8 68.8,68.8 0,0.9 -0.02,1.79 -0.06,2.68 12.56,-13.52 30.49,-21.97 50.4,-21.97 38,0 68.8,30.8 68.8,68.8 0,22.05 -10.38,41.68 -26.51,54.27 2.91,-0.38 5.88,-0.57 8.89,-0.57 38,0 68.8,30.8 68.8,68.8 0,38 -30.8,68.8 -68.8,68.8 -3.01,0 -5.98,-0.19 -8.89,-0.57 16.14,12.59 26.51,32.22 26.51,54.27 0,38 -30.8,68.8 -68.8,68.8 -19.91,0 -37.84,-8.46 -50.4,-21.97 0.03,0.89 0.06,1.78 0.06,2.68 0,38 -30.8,68.8 -68.8,68.8 -38,0 -68.8,-30.8 -68.8,-68.8 0,-2.77 0.17,-5.51 0.49,-8.2 -12.55,16.7 -32.53,27.5 -55.03,27.5 -38,0 -68.8,-30.8 -68.8,-68.8 0,-22.23 10.54,-42 26.9,-54.57 -3.57,0.57 -7.23,0.87 -10.96,0.87 -38,0 -68.8,-30.8 -68.8,-68.8 0,-38 30.8,-68.8 68.8,-68.8 3.73,0 7.39,0.3 10.96,0.87 -16.36,-12.58 -26.9,-32.34 -26.9,-54.57 0,-38 30.8,-68.8 68.8,-68.8 22.5,0 42.47,10.8 55.03,27.5 -0.32,-2.69 -0.49,-5.42 -0.49,-8.2 0,-38 30.8,-68.8 68.8,-68.8z"/>
 </g>
</svg>
