<?xml version="1.0" encoding="UTF-8"?>
<!DOCTYPE svg PUBLIC "-//W3C//DTD SVG 1.1//EN" "http://www.w3.org/Graphics/SVG/1.1/DTD/svg11.dtd">
<!-- Creator: CorelDRAW X6 -->
<svg xmlns="http://www.w3.org/2000/svg" xml:space="preserve" width="127.123mm" height="132.243mm" version="1.1" shape-rendering="geometricPrecision" text-rendering="geometricPrecision" image-rendering="optimizeQuality" fill-rule="evenodd" clip-rule="evenodd"
viewBox="0 0 887 923"
 xmlns:xlink="http://www.w3.org/1999/xlink">
 <g id="Слой_x0020_1">
  <metadata id="CorelCorpID_0Corel-Layer"/>
  <path fill="#B3B3B3" d="M295 516c-10,-81 61,-160 113,-214 45,-46 95,-88 145,-129 65,-54 133,-105 200,-156 31,-23 72,-22 102,2 30,24 40,64 24,99 -34,77 -70,154 -108,230 -29,57 -60,115 -94,169 -42,66 -108,157 -193,158 5,37 1,74 -15,110 -35,77 -113,124 -195,135 -92,12 -183,-21 -249,-86 -22,-22 -30,-52 -22,-82 8,-30 31,-52 61,-59 6,-1 27,-6 32,-9 6,-5 16,-32 18,-40 14,-45 48,-79 89,-101 26,-14 59,-26 92,-29zm87 3c-32,-65 120,-210 421,-434 -153,343 -260,524 -331,507 -14,-3 -83,-57 -91,-72zm-298 257c48,-12 82,-16 110,-104 18,-55 111,-84 140,-67 30,18 53,38 58,50 63,151 -166,261 -308,121z"/>
 </g>
</svg>
