<?xml version="1.0" encoding="UTF-8"?>
<!DOCTYPE svg PUBLIC "-//W3C//DTD SVG 1.1//EN" "http://www.w3.org/Graphics/SVG/1.1/DTD/svg11.dtd">
<!-- Creator: CorelDRAW X6 -->
<svg xmlns="http://www.w3.org/2000/svg" xml:space="preserve" width="97.4827mm" height="88.132mm" version="1.1" shape-rendering="geometricPrecision" text-rendering="geometricPrecision" image-rendering="optimizeQuality" fill-rule="evenodd" clip-rule="evenodd"
viewBox="0 0 438 396"
 xmlns:xlink="http://www.w3.org/1999/xlink">
 <g id="Слой_x0020_1">
  <metadata id="CorelCorpID_0Corel-Layer"/>
  <path fill="#B3B3B3" d="M320 275c4,0 23,-11 27,-14 4,-2 7,-5 11,-8 2,-2 3,-3 5,-4 4,-4 14,-15 16,-20 1,-2 2,-4 2,-6 3,-10 3,-19 -7,-25 -6,-3 -12,-2 -17,1 -1,0 -2,1 -3,2 -6,4 -13,10 -17,16 -4,5 -8,13 -11,20l-4 11c0,0 0,0 0,0 -1,4 -4,22 -3,27zm-245 -201l-9 17c-4,7 -9,15 -8,23 0,2 1,3 3,5 8,7 21,-7 26,-13 4,-4 7,-7 10,-11 7,-7 12,-15 19,-22l48 -45c16,-12 29,-21 51,-26 18,-4 38,-2 53,5l8 4c7,4 14,10 18,17 9,13 12,24 13,40 0,9 -4,21 -8,29 -1,3 -3,5 -5,8 -4,7 -8,14 -13,20l-41 60c-7,10 -14,22 -19,34 -6,13 -10,26 -7,40 2,6 6,16 10,20 6,6 9,6 17,8 3,1 20,1 23,-1l-1 -24c1,-17 3,-27 8,-43 4,-12 9,-21 16,-31l4 -6c1,-2 3,-4 4,-5l2 -3c6,-7 11,-12 18,-17 9,-7 17,-11 27,-16 4,-2 14,-4 18,-4 8,-1 15,0 23,2 12,3 23,10 33,19l5 5c6,8 15,24 15,35 1,19 2,18 -3,38 -3,11 -9,21 -15,31 -4,6 -9,11 -14,16l-5 5c-3,3 -7,7 -11,9 -5,3 -8,6 -13,9 -4,2 -9,6 -14,8 -3,1 -5,2 -8,4l-23 10c-1,2 12,48 14,54l-54 14c-5,-17 -9,-34 -14,-51l-1 -3c-2,0 -11,1 -14,1 -9,1 -18,0 -26,-1 -12,-2 -24,-5 -34,-10 -3,-2 -7,-4 -10,-6 -2,-1 -3,-2 -4,-3l-8 -9c-7,-8 -13,-20 -16,-30 -1,-3 -1,-5 -2,-8 -2,-10 -3,-25 -1,-34 2,-10 3,-20 6,-29l4 -10c0,0 0,0 0,0l2 -6c2,-5 3,-6 5,-11 5,-11 11,-20 18,-29l16 -24c1,-2 2,-3 3,-5 4,-7 9,-12 13,-19 6,-10 33,-42 18,-51 -3,-2 -9,-3 -12,-2 -17,2 -24,6 -37,16 -7,5 -12,10 -18,16l-23 23c0,0 0,0 0,0 -1,1 -1,1 -2,2l-11 14c-1,1 -3,3 -4,4 -3,3 -5,5 -8,8 -3,3 -5,5 -9,8 -11,10 -20,15 -33,21 -7,3 -20,6 -28,6 -3,0 -6,0 -9,0 -2,0 -4,0 -6,-1 -8,-2 -14,-4 -21,-8 -24,-16 -29,-43 -22,-69l11 -27c2,-5 6,-10 9,-15l6 -9c0,0 0,0 0,0l47 28z"/>
 </g>
</svg>
