<?xml version="1.0" encoding="UTF-8"?>
<!DOCTYPE svg PUBLIC "-//W3C//DTD SVG 1.1//EN" "http://www.w3.org/Graphics/SVG/1.1/DTD/svg11.dtd">
<!-- Creator: CorelDRAW X6 -->
<svg xmlns="http://www.w3.org/2000/svg" xml:space="preserve" width="74.348mm" height="74.348mm" version="1.1" shape-rendering="geometricPrecision" text-rendering="geometricPrecision" image-rendering="optimizeQuality" fill-rule="evenodd" clip-rule="evenodd"
viewBox="0 0 240 240"
 xmlns:xlink="http://www.w3.org/1999/xlink">
 <g id="Слой_x0020_1">
  <metadata id="CorelCorpID_0Corel-Layer"/>
  <path fill="#B3B3B3" d="M0 110l0 20c0,9 7,16 16,16l77 0 0 77c0,9 7,16 16,16l20 0c9,0 16,-7 16,-16l0 -77 77 0c9,0 16,-7 16,-16l0 -20c0,-9 -7,-16 -16,-16l-77 0 0 -77c0,-9 -7,-16 -16,-16l-20 0c-9,0 -16,7 -16,16l0 77 -77 0c-9,0 -16,7 -16,16z"/>
 </g>
</svg>
