<?xml version="1.0" encoding="UTF-8"?>
<!DOCTYPE svg PUBLIC "-//W3C//DTD SVG 1.1//EN" "http://www.w3.org/Graphics/SVG/1.1/DTD/svg11.dtd">
<!-- Creator: CorelDRAW X6 -->
<svg xmlns="http://www.w3.org/2000/svg" xml:space="preserve" width="125.117mm" height="125.117mm" version="1.1" shape-rendering="geometricPrecision" text-rendering="geometricPrecision" image-rendering="optimizeQuality" fill-rule="evenodd" clip-rule="evenodd"
viewBox="0 0 639 639"
 xmlns:xlink="http://www.w3.org/1999/xlink">
 <g id="Слой_x0020_1">
  <metadata id="CorelCorpID_0Corel-Layer"/>
  <path fill="#B3B3B3" d="M319 0c176,0 319,143 319,319 0,176 -143,319 -319,319 -176,0 -319,-143 -319,-319 0,-176 143,-319 319,-319zm-158 432c1,-5 3,-10 5,-16l10 -31c1,-4 2,-7 3,-10 1,-3 2,-6 4,-8 1,-1 2,-2 3,-2 2,-2 3,-3 5,-5l34 -36c0,0 0,0 1,-1 0,0 1,-1 2,-1 1,-1 2,-2 3,-3l16 -16c6,-6 12,-13 19,-19 5,-4 9,-9 13,-14 1,-1 2,-2 3,-2 1,-1 1,-2 2,-3l65 -66c2,-2 3,-4 5,-5 3,-3 6,-5 8,-8 1,-2 2,-2 4,-4 4,-4 8,-8 12,-12 1,-1 1,-1 2,-2l7 -7c0,0 0,0 0,0 1,-1 2,-1 2,-2 4,-3 9,-6 14,-8 3,-1 6,-2 8,-3 11,-4 25,-4 36,0 10,3 18,7 26,14 0,0 0,0 0,0l3 3c0,0 0,0 0,0 1,1 2,2 3,4 0,0 0,0 0,1 0,0 0,0 0,0l1 1c0,0 0,0 0,0 6,7 11,17 12,26 0,0 0,1 0,1 0,0 0,0 0,0 0,1 0,1 0,2 1,4 1,10 0,14 0,2 0,4 -1,6 -1,5 -3,11 -5,16 -3,6 -6,11 -11,16 0,0 0,0 0,0l-28 27c-4,4 -7,7 -11,11 -2,2 -3,3 -5,4l-14 13c0,0 -1,1 -1,1l-125 123c-4,4 -9,8 -13,13 -1,1 -2,2 -3,3 -2,3 -5,5 -8,7 -2,2 -5,2 -8,3 -1,0 -2,0 -2,1 0,0 0,0 -1,0l-30 10c-3,1 -7,2 -10,3 0,0 -1,0 -1,0l-21 7c0,0 0,0 -1,0 0,0 0,0 0,0 -1,1 -2,1 -3,1 -2,1 -3,1 -5,1 -1,1 -2,1 -3,1 0,0 0,0 0,0l-26 8c-4,1 -8,0 -11,-3 -3,-3 -4,-7 -3,-11l9 -28c0,0 0,0 0,0 2,-6 3,-12 6,-18 0,0 0,-1 1,-1zm57 2c-2,-2 -1,-2 -3,-4l-8 -8c-3,-2 -3,-1 0,-11 1,-2 2,-4 2,-5l4 -11c4,0 9,2 12,4 1,1 1,1 3,2 7,6 18,16 17,27 -4,1 -9,3 -13,4 -4,1 -9,4 -14,3zm14 -62c1,-2 16,-17 19,-20 7,-7 23,-23 29,-29l29 -29c5,-4 26,-27 27,-27 2,-1 1,0 3,-2 1,-1 1,-1 3,-2 2,-1 1,-1 2,-3l24 -24c4,-2 13,1 16,2 8,4 15,12 20,20 2,3 4,12 2,16l-81 80c0,0 0,0 0,0 0,0 0,0 0,0 0,0 0,0 0,0 0,0 0,0 0,0l-1 0c-1,0 -1,1 -1,1 -2,1 -2,2 -5,5 -2,1 -5,6 -7,7l-10 10c-1,1 -2,1 -3,2l-10 10c-4,4 -19,19 -20,19 -1,-1 -1,-1 -2,-2 0,0 0,0 0,0 0,0 0,0 0,0l-13 -17c-3,-3 -11,-9 -15,-11 -1,-1 -5,-2 -5,-4zm159 -160c0,-3 5,-7 8,-10l12 -12c6,-6 12,-8 22,-8 7,1 9,2 13,5 3,2 6,6 8,10 2,3 2,5 3,9 1,8 -1,13 -5,19 -1,2 -21,22 -24,23l-1 -1c-2,-3 -1,-3 -6,-10 -6,-8 -20,-22 -30,-24z"/>
 </g>
</svg>
