<?xml version="1.0" encoding="UTF-8"?>
<!DOCTYPE svg PUBLIC "-//W3C//DTD SVG 1.1//EN" "http://www.w3.org/Graphics/SVG/1.1/DTD/svg11.dtd">
<!-- Creator: CorelDRAW X6 -->
<svg xmlns="http://www.w3.org/2000/svg" xml:space="preserve" width="124.181mm" height="124.181mm" version="1.1" shape-rendering="geometricPrecision" text-rendering="geometricPrecision" image-rendering="optimizeQuality" fill-rule="evenodd" clip-rule="evenodd"
viewBox="0 0 562 562"
 xmlns:xlink="http://www.w3.org/1999/xlink">
 <g id="Слой_x0020_1">
  <metadata id="CorelCorpID_0Corel-Layer"/>
  <path fill="#B3B3B3" d="M281 0c155,0 281,126 281,281 0,155 -126,281 -281,281 -155,0 -281,-126 -281,-281 0,-155 126,-281 281,-281zm-22 345c-33,1 -62,14 -90,34 -13,9 -29,9 -42,0 -12,-10 -17,-26 -11,-40 28,-67 74,-117 142,-124l0 -41c0,-14 8,-26 20,-31 13,-6 27,-3 37,6l120 107c8,7 11,15 11,26 0,10 -4,19 -11,26l-120 107c-10,9 -24,11 -37,6 -13,-6 -20,-17 -20,-31l0 -43zm34 -172l120 107 -120 107 0 -75c-50,-9 -98,4 -144,38 32,-76 80,-110 144,-103l0 -75z"/>
 </g>
</svg>
