<?xml version="1.0" encoding="UTF-8"?>
<!DOCTYPE svg PUBLIC "-//W3C//DTD SVG 1.1//EN" "http://www.w3.org/Graphics/SVG/1.1/DTD/svg11.dtd">
<!-- Creator: CorelDRAW X6 -->
<svg xmlns="http://www.w3.org/2000/svg" xml:space="preserve" width="113.113mm" height="113.113mm" version="1.1" shape-rendering="geometricPrecision" text-rendering="geometricPrecision" image-rendering="optimizeQuality" fill-rule="evenodd" clip-rule="evenodd"
viewBox="0 0 420 420"
 xmlns:xlink="http://www.w3.org/1999/xlink">
 <g id="Слой_x0020_1">
  <metadata id="CorelCorpID_0Corel-Layer"/>
  <path fill="#B3B3B3" d="M210 0c116,0 210,94 210,210 0,116 -94,210 -210,210 -116,0 -210,-94 -210,-210 0,-116 94,-210 210,-210zm89 262c12,11 -5,18 -12,21 -16,6 -27,7 -39,-6 -13,-15 -28,-28 -42,-44 -31,32 -48,48 -60,51 -12,3 -23,5 -27,0 -5,-6 1,-13 12,-22 28,-24 46,-41 55,-51 -19,-19 -47,-43 -65,-53 -13,-8 5,-16 12,-19 14,-6 24,-9 38,1 19,13 34,28 48,42 27,-28 44,-42 54,-45 12,-3 23,-5 27,0 5,6 -1,13 -12,22 -23,19 -39,34 -49,44 20,20 36,39 58,59z"/>
 </g>
</svg>
