<?xml version="1.0" encoding="UTF-8"?>
<!DOCTYPE svg PUBLIC "-//W3C//DTD SVG 1.1//EN" "http://www.w3.org/Graphics/SVG/1.1/DTD/svg11.dtd">
<!-- Creator: CorelDRAW X6 -->
<svg xmlns="http://www.w3.org/2000/svg" xml:space="preserve" width="99.0084mm" height="99.0084mm" version="1.1" shape-rendering="geometricPrecision" text-rendering="geometricPrecision" image-rendering="optimizeQuality" fill-rule="evenodd" clip-rule="evenodd"
viewBox="0 0 294 294"
 xmlns:xlink="http://www.w3.org/1999/xlink">
 <g id="Слой_x0020_1">
  <metadata id="CorelCorpID_0Corel-Layer"/>
  <path fill="#B3B3B3" d="M147 0c81,0 147,66 147,147 0,81 -66,147 -147,147 -81,0 -147,-66 -147,-147 0,-81 66,-147 147,-147zm-17 178c-8,-12 -14,-20 -22,-31 -12,-16 -44,-4 -33,10 17,23 27,37 38,51 10,13 31,7 35,-5 14,-38 43,-73 76,-100 5,-4 2,-11 -8,-10 -16,1 -52,29 -85,85z"/>
 </g>
</svg>
