<?xml version="1.0" encoding="UTF-8"?>
<!DOCTYPE svg PUBLIC "-//W3C//DTD SVG 1.1//EN" "http://www.w3.org/Graphics/SVG/1.1/DTD/svg11.dtd">
<!-- Creator: CorelDRAW X6 -->
<svg xmlns="http://www.w3.org/2000/svg" xml:space="preserve" width="117.918mm" height="116.129mm" version="1.1" shape-rendering="geometricPrecision" text-rendering="geometricPrecision" image-rendering="optimizeQuality" fill-rule="evenodd" clip-rule="evenodd"
viewBox="0 0 506 498"
 xmlns:xlink="http://www.w3.org/1999/xlink">
 <g id="Слой_x0020_1">
  <metadata id="CorelCorpID_0Corel-Layer"/>
  <path fill="#B3B3B3" d="M28 5l225 221 225 -221c6,-6 17,-6 23,0 6,6 6,17 0,23l-225 221 225 221c6,6 7,17 0,23 -6,6 -17,7 -23,0l-225 -221 -225 221c-6,6 -17,6 -23,0 -6,-6 -6,-17 0,-23l225 -221 -225 -221c-6,-6 -7,-17 0,-23 6,-6 17,-7 23,0z"/>
 </g>
</svg>
