<?xml version="1.0" encoding="UTF-8"?>
<!DOCTYPE svg PUBLIC "-//W3C//DTD SVG 1.1//EN" "http://www.w3.org/Graphics/SVG/1.1/DTD/svg11.dtd">
<!-- Creator: CorelDRAW X6 -->
<svg xmlns="http://www.w3.org/2000/svg" xml:space="preserve" width="92.8774mm" height="92.8774mm" version="1.1" shape-rendering="geometricPrecision" text-rendering="geometricPrecision" image-rendering="optimizeQuality" fill-rule="evenodd" clip-rule="evenodd"
viewBox="0 0 285 285"
 xmlns:xlink="http://www.w3.org/1999/xlink">
 <g id="Слой_x0020_1">
  <metadata id="CorelCorpID_0Corel-Layer"/>
  <path fill="#B3B3B3" d="M254 5l-111 111 -111 -111c-7,-7 -19,-7 -26,0 -7,7 -7,19 0,26l111 111 -111 111c-7,7 -7,19 0,26 7,7 19,7 26,0l111 -111 111 111c7,7 19,7 26,0 7,-7 7,-19 0,-26l-111 -111 111 -111c7,-7 7,-19 0,-26 -7,-7 -19,-7 -26,0z"/>
 </g>
</svg>
