<?xml version="1.0" encoding="UTF-8"?>
<!DOCTYPE svg PUBLIC "-//W3C//DTD SVG 1.1//EN" "http://www.w3.org/Graphics/SVG/1.1/DTD/svg11.dtd">
<!-- Creator: CorelDRAW X6 -->
<svg xmlns="http://www.w3.org/2000/svg" xml:space="preserve" width="100.133mm" height="100.055mm" version="1.1" shape-rendering="geometricPrecision" text-rendering="geometricPrecision" image-rendering="optimizeQuality" fill-rule="evenodd" clip-rule="evenodd"
viewBox="0 0 262 261"
 xmlns:xlink="http://www.w3.org/1999/xlink">
 <g id="Слой_x0020_1">
  <metadata id="CorelCorpID_0Corel-Layer"/>
  <path fill="#B3B3B3" d="M59 258c-1,0 -3,-1 -4,-1 0,0 -1,0 -1,0 0,0 -1,0 -1,0 0,0 -1,0 -1,-1 -1,0 -1,-1 -2,-1l0 0c-10,-6 -15,-17 -15,-27 -4,0 -7,0 -11,-2 -10,-3 -17,-11 -20,-22 -5,-20 -5,-38 4,-57 14,-30 44,-47 75,-47l17 -17c0,-28 13,-54 37,-69 16,-10 36,-15 55,-12 2,0 5,1 7,1 1,0 2,0 3,1 1,0 2,1 3,1l2 1c9,3 15,10 18,19 1,4 2,8 2,11 5,0 9,1 14,3 9,4 15,11 17,20 15,55 -25,106 -79,104l-9 9c-3,3 -6,6 -9,8 0,15 -3,29 -11,42 -4,8 -9,12 -14,18 -12,13 -33,21 -50,22 -8,1 -19,0 -28,-3zm-25 -63l12 -9c2,-2 4,-3 6,-5l12 -10c3,-2 4,-4 7,-4 3,0 5,3 6,4l11 11c7,7 6,8 2,14l-5 6c-5,7 -11,15 -17,21 -1,1 -2,2 -2,3l0 0c1,1 0,0 0,0 4,2 14,2 18,2 10,-1 23,-6 30,-13 4,-4 6,-6 10,-12 6,-11 8,-23 5,-37 0,-1 0,-1 0,-2 4,-5 14,-14 19,-19l19 -19c1,-1 2,-1 4,0 34,7 68,-23 57,-63 -1,1 -16,13 -18,14l-6 5c-2,2 -4,3 -6,5 -3,2 -4,4 -7,4 -3,0 -5,-3 -6,-4 -2,-2 -4,-4 -5,-5 -2,-2 -10,-9 -10,-11 -1,-4 3,-7 6,-11l19 -24c1,-1 2,-2 2,-3l-2 -1c-1,0 -1,0 -2,-1 -2,0 -3,-1 -5,-1 -12,-2 -24,1 -34,8 -16,10 -25,31 -21,51 0,1 0,1 0,2 0,2 0,2 -3,5l-35 34c-1,1 -2,1 -4,0 -23,-5 -45,7 -55,28 -5,12 -6,23 -2,36z"/>
 </g>
</svg>
