<?xml version="1.0" encoding="UTF-8"?>
<!DOCTYPE svg PUBLIC "-//W3C//DTD SVG 1.1//EN" "http://www.w3.org/Graphics/SVG/1.1/DTD/svg11.dtd">
<!-- Creator: CorelDRAW X6 -->
<svg xmlns="http://www.w3.org/2000/svg" xml:space="preserve" width="125.27mm" height="93.1826mm" version="1.1" shape-rendering="geometricPrecision" text-rendering="geometricPrecision" image-rendering="optimizeQuality" fill-rule="evenodd" clip-rule="evenodd"
viewBox="0 0 382 284"
 xmlns:xlink="http://www.w3.org/1999/xlink">
 <g id="Слой_x0020_1">
  <metadata id="CorelCorpID_0Corel-Layer"/>
  <path fill="#B3B3B3" d="M136 265l-6 6c-1,1 -2,2 -3,3 -6,6 -14,9 -23,9 -18,-1 -25,-19 -27,-35 0,-4 0,-7 -1,-11 0,-5 0,-10 0,-15 0,-8 0,-17 0,-25 0,-4 0,-7 0,-10 0,0 -1,0 -1,1 -3,1 -6,2 -8,3 -4,1 -8,1 -12,-1 -4,-1 -5,-3 -8,-5l-25 -26c-1,-1 -1,-2 -2,-2 -7,-7 -14,-14 -18,-24 -6,-19 -2,-34 14,-46 8,-6 20,-9 30,-11 5,-1 10,-3 15,-4l15 -4c10,-3 20,-5 30,-8 0,0 0,0 0,0l30 -8c0,0 0,0 0,0 10,-2 20,-5 30,-8l45 -11c15,-4 30,-7 45,-11 10,-3 20,-5 30,-8 15,-4 30,-8 45,-12 14,-3 20,-6 35,-1 3,1 6,3 8,5 2,2 4,4 5,6 3,5 5,14 3,20 -1,6 -3,11 -6,16 0,0 0,0 0,0l-38 55c0,0 0,0 0,0 -3,4 -5,7 -8,11 -5,8 -10,15 -16,22l-74 104c0,0 0,0 0,0 -4,5 -8,11 -12,17 -1,2 -3,4 -4,5 -2,2 -4,4 -6,5 -1,1 -2,2 -3,2 -9,6 -14,10 -24,12 -10,2 -20,2 -29,-1 -9,-3 -16,-9 -24,-14 -1,0 -1,-1 -2,-1zm-85 -130l16 16 109 -34c8,-3 17,1 21,9 4,8 1,17 -6,22l-77 53c0,0 0,1 0,1 0,10 0,21 0,31 0,1 0,1 0,2 0,0 1,-1 1,-1 4,-5 9,-10 16,-11 6,-1 11,0 16,3 7,5 14,10 21,14 2,2 5,4 7,5 2,1 3,1 5,1 14,0 22,-15 29,-25 0,0 0,0 0,0l25 -36c0,0 0,0 0,0 12,-16 23,-34 36,-50 2,-2 3,-5 5,-7 2,-2 3,-5 5,-7l51 -72c2,-3 5,-7 7,-10l-58 15c-8,2 -16,4 -24,6 -16,4 -32,8 -48,12l-48 12c-20,5 -40,10 -60,15 -12,3 -24,6 -36,9 -4,1 -8,2 -12,3 -3,1 -6,1 -9,2 -1,0 -6,2 -7,3 0,1 2,4 3,5l7 8c1,1 3,3 4,4z"/>
 </g>
</svg>
