<?xml version="1.0" encoding="UTF-8"?>
<!DOCTYPE svg PUBLIC "-//W3C//DTD SVG 1.1//EN" "http://www.w3.org/Graphics/SVG/1.1/DTD/svg11.dtd">
<!-- Creator: CorelDRAW X6 -->
<svg xmlns="http://www.w3.org/2000/svg" xml:space="preserve" width="92.8063mm" height="92.8063mm" version="1.1" shape-rendering="geometricPrecision" text-rendering="geometricPrecision" image-rendering="optimizeQuality" fill-rule="evenodd" clip-rule="evenodd"
viewBox="0 0 195 195"
 xmlns:xlink="http://www.w3.org/1999/xlink">
 <g id="Слой_x0020_1">
  <metadata id="CorelCorpID_0Corel-Layer"/>
  <path fill="#B3B3B3" d="M119 64c6,6 6,15 0,21 -5,5 -13,6 -19,2 0,0 -1,0 -1,0 -6,-2 -13,-1 -18,4l-47 47c-7,7 -7,17 0,24 7,7 17,7 24,0l14 -14c11,7 24,9 36,5l-29 29c-18,18 -48,18 -66,0l0 0c-18,-18 -18,-48 0,-66l47 -47c14,-14 35,-17 52,-10 2,1 5,3 7,4zm-42 68c-6,-6 -6,-15 0,-21 5,-5 13,-6 19,-2 0,0 1,0 1,0 6,2 13,1 18,-4l47 -47c7,-7 7,-17 0,-24 -7,-7 -17,-7 -24,0l-14 14c-11,-7 -24,-9 -36,-5l29 -29c18,-18 48,-18 66,0l0 0c18,18 18,48 0,66l-47 47c-14,14 -35,17 -52,10 -2,-1 -5,-3 -7,-4z"/>
 </g>
</svg>
