<?xml version="1.0" encoding="UTF-8"?>
<!DOCTYPE svg PUBLIC "-//W3C//DTD SVG 1.1//EN" "http://www.w3.org/Graphics/SVG/1.1/DTD/svg11.dtd">
<!-- Creator: CorelDRAW X6 -->
<svg xmlns="http://www.w3.org/2000/svg" xml:space="preserve" width="82.1948mm" height="82.1948mm" version="1.1" shape-rendering="geometricPrecision" text-rendering="geometricPrecision" image-rendering="optimizeQuality" fill-rule="evenodd" clip-rule="evenodd"
viewBox="0 0 153 153"
 xmlns:xlink="http://www.w3.org/1999/xlink">
 <g id="Слой_x0020_1">
  <metadata id="CorelCorpID_0Corel-Layer"/>
  <path fill="#B3B3B3" d="M76 0c42,0 76,34 76,76 0,42 -34,76 -76,76 -42,0 -76,-34 -76,-76 0,-42 34,-76 76,-76zm39 55c0,-8 -2,-14 -7,-18 -5,-4 -11,-6 -19,-6l-28 0 -5 44 -15 0 -2 14 15 0 -1 10 -14 0 -2 14 14 0 -1 11 18 0 1 -11 26 0 2 -14 -26 0 1 -9 2 0 0 0 0 0 4 0c12,-1 22,-3 28,-8 6,-5 10,-13 10,-24zm-41 19l0 0 3 -30 9 0c4,0 7,1 9,3 2,2 3,5 3,8 0,7 -1,11 -4,15 -3,3 -7,5 -13,5l-5 0 0 0z"/>
 </g>
</svg>
