<?xml version="1.0" encoding="UTF-8"?>
<!DOCTYPE svg PUBLIC "-//W3C//DTD SVG 1.1//EN" "http://www.w3.org/Graphics/SVG/1.1/DTD/svg11.dtd">
<!-- Creator: CorelDRAW X6 -->
<svg xmlns="http://www.w3.org/2000/svg" xml:space="preserve" width="135.083mm" height="98.5068mm" version="1.1" shape-rendering="geometricPrecision" text-rendering="geometricPrecision" image-rendering="optimizeQuality" fill-rule="evenodd" clip-rule="evenodd"
viewBox="0 0 459 335"
 xmlns:xlink="http://www.w3.org/1999/xlink">
 <g id="Слой_x0020_1">
  <metadata id="CorelCorpID_0Corel-Layer"/>
  <path fill="#B3B3B3" d="M204 109l83 59 -83 59 0 -117zm-123 -20l0 166 297 0 0 -166 -297 0zm-41 166l0 -166 -41 0 0 -47c0,-22 18,-41 41,-41l377 0c22,0 41,18 41,41l0 47 -40 0 0 166 40 0 0 40c0,22 -18,41 -41,41l-377 0c-22,0 -41,-18 -41,-41l0 -40 41 0zm1 -230l40 0 0 40 -40 0 0 -40zm0 250l40 0 0 40 -40 0 0 -40zm252 0l40 0 0 40 -40 0 0 -40zm84 0l40 0 0 40 -40 0 0 -40zm-252 0l40 0 0 40 -40 0 0 -40zm84 0l40 0 0 40 -40 0 0 -40zm84 -250l40 0 0 40 -40 0 0 -40zm84 0l40 0 0 40 -40 0 0 -40zm-252 0l40 0 0 40 -40 0 0 -40zm84 0l40 0 0 40 -40 0 0 -40z"/>
 </g>
</svg>
