<?xml version="1.0" encoding="UTF-8"?>
<!DOCTYPE svg PUBLIC "-//W3C//DTD SVG 1.1//EN" "http://www.w3.org/Graphics/SVG/1.1/DTD/svg11.dtd">
<!-- Creator: CorelDRAW X6 -->
<svg xmlns="http://www.w3.org/2000/svg" xml:space="preserve" width="135.083mm" height="98.5068mm" version="1.1" shape-rendering="geometricPrecision" text-rendering="geometricPrecision" image-rendering="optimizeQuality" fill-rule="evenodd" clip-rule="evenodd"
viewBox="0 0 501 365"
 xmlns:xlink="http://www.w3.org/1999/xlink">
 <g id="Слой_x0020_1">
  <metadata id="CorelCorpID_0Corel-Layer"/>
  <path fill="#B3B3B3" d="M45 0l412 0c25,0 45,20 45,45l0 276c0,25 -20,45 -45,45l-412 0c-25,0 -45,-20 -45,-45l0 -276c0,-25 20,-45 45,-45zm50 233l0 41 318 0 0 -69 -101 -92 -115 120 -50 -50 -51 49zm52 -134c15,0 28,12 28,28 0,15 -12,28 -28,28 -15,0 -28,-12 -28,-28 0,-15 12,-28 28,-28zm-103 -54l412 0 0 276 -412 0 0 -276z"/>
 </g>
</svg>
