<?xml version="1.0" encoding="UTF-8"?>
<!DOCTYPE svg PUBLIC "-//W3C//DTD SVG 1.1//EN" "http://www.w3.org/Graphics/SVG/1.1/DTD/svg11.dtd">
<!-- Creator: CorelDRAW 2017 -->
<svg xmlns="http://www.w3.org/2000/svg" xml:space="preserve" width="343.884mm" height="122.895mm" version="1.1" shape-rendering="geometricPrecision" text-rendering="geometricPrecision" image-rendering="optimizeQuality" fill-rule="evenodd" clip-rule="evenodd"
viewBox="0 0 55175.34 19718.23"
 xmlns:xlink="http://www.w3.org/1999/xlink">
 <g id="Слой_x0020_1">
  <metadata id="CorelCorpID_0Corel-Layer"/>
  <path fill="black" fill-rule="nonzero" d="M1122.03 0l52931.28 0c617.11,0 1122.03,504.93 1122.03,1122.04l0 13614.41c0,617.08 -507.58,1065.28 -1122.03,1122.03l-41778.67 3859.75 -11152.61 -3859.75c-583.12,-201.83 -1122.03,-504.91 -1122.03,-1122.03l0 -13614.41c0,-617.11 504.91,-1122.04 1122.03,-1122.04zm12364.01 11637.72l-1065.02 0 0 -7804.96 -1871.37 0 0 7804.96 -2708.15 0 0 -7804.96 -1871.37 0 0 9463.32 5674.96 0 425.99 1597.5 1414.96 0 0 -3255.85zm6785.59 0l-3910.1 0 0 -2434.3 2814.65 0 0 -1597.53 -2814.65 0 0 -2114.78 3757.94 0 0 -1658.36 -5629.31 0 0 9463.32 5781.46 0 0 -1658.36zm7744.11 -7804.96l-1871.37 0 0 3742.72 -2860.3 0 0 -3742.72 -1871.38 0 0 9463.32 1871.38 0 0 -4107.86 2860.3 0 0 4107.86 1871.37 0 0 -9463.32zm1247.56 9265.54c1171.51,197.78 2130.02,304.29 2875.53,304.29 1962.65,0 2951.58,-791.15 2951.58,-2753.8 0,-1475.8 -532.49,-2160.46 -1825.72,-2236.53 1049.79,-167.35 1643.15,-1019.34 1643.15,-2251.71 0,-1886.59 -836.78,-2403.88 -2647.29,-2403.88 -669.44,0 -1582.29,106.51 -2723.38,304.27l0 1582.32c1171.51,-167.36 1962.66,-258.66 2373.46,-258.66 867.22,0 1080.2,228.22 1080.2,1080.23 0,928.08 -289.06,1278 -1551.85,1278l-1201.95 0 0 1475.8 1278.01 0c1384.5,0 1673.58,349.92 1673.58,1278 0,912.87 -289.08,1278.01 -1399.71,1278.01 -562.95,0 -1414.96,-91.29 -2525.61,-258.66l0 1582.3zm13997.24 -5020.75c-76.08,-3727.52 -760.75,-4320.87 -3468.9,-4320.87 -2297.36,0 -3468.88,273.85 -3468.88,4320.87l0 1095.44c0,3590.6 852.01,4229.6 3468.88,4229.6 2221.3,0 3468.9,-273.87 3468.9,-4229.6l0 -1095.44zm-1871.37 912.87c-60.87,2571.22 -258.66,2738.59 -1597.53,2799.44 -1414.92,-76.07 -1536.64,-197.78 -1597.51,-2799.44l0 -821.57c60.87,-2571.22 258.66,-2738.59 1597.51,-2799.44 1414.94,76.07 1536.66,197.78 1597.53,2799.44l0 821.57zm5142.45 1080.23l836.78 0c2495.16,0 3560.16,-775.96 3560.16,-3271.11 0,-2525.58 -791.14,-3042.86 -3225.43,-3042.86 -745.5,0 -1764.86,60.86 -3042.88,167.35l0 9372.06 1871.37 0 0 -3225.43zm0 -4716.46c365.15,-30.44 730.28,-45.65 1095.44,-45.65 1080.21,0 1369.28,304.29 1369.28,1536.64 0,1354.1 -304.27,1704 -1643.15,1704l-821.57 0 0 -3195z"/>
 </g>
</svg>
