<?xml version="1.0" encoding="UTF-8"?>
<!DOCTYPE svg PUBLIC "-//W3C//DTD SVG 1.1//EN" "http://www.w3.org/Graphics/SVG/1.1/DTD/svg11.dtd">
<!-- Creator: CorelDRAW 2017 -->
<svg xmlns="http://www.w3.org/2000/svg" xml:space="preserve" width="181.968mm" height="59.929mm" version="1.1" shape-rendering="geometricPrecision" text-rendering="geometricPrecision" image-rendering="optimizeQuality" fill-rule="evenodd" clip-rule="evenodd"
viewBox="0 0 9108.59 2999.8"
 xmlns:xlink="http://www.w3.org/1999/xlink">
 <g id="Слой_x0020_1">
  <metadata id="CorelCorpID_0Corel-Layer"/>
  <path fill="black" fill-rule="nonzero" d="M583.83 1656.54l99.68 0c218.34,370.22 455.66,802.16 707.23,1295.8l683.5 0 -882.86 -1495.16 816.4 -1457.18 -664.52 0 -655.02 1276.81 -104.42 0 0 -1276.81 -583.83 0 0 2952.34 583.83 0 0 -1295.8zm3716.53 -1030l-555.34 0 -806.91 1414.47 -33.23 0 0 -1414.47 -583.82 0 0 2325.8 545.85 0 811.66 -1466.68 33.23 0 0 1466.68 588.57 0 0 -2325.8zm2373.26 0l-588.57 0 0 882.86 -711.98 0 0 -882.86 -583.82 0 0 2325.8 583.82 0 0 -958.8 711.98 0 0 958.8 588.57 0 0 -2325.8zm1400.23 2373.27c792.67,0 1034.74,-242.08 1034.74,-1248.34 0,-987.27 -232.58,-1186.63 -958.8,-1186.63 -792.68,14.23 -1006.26,194.6 -1034.75,1234.09 28.48,1011.02 213.6,1186.64 958.8,1200.88zm18.99 -488.89c-332.26,0 -389.22,-99.68 -389.22,-749.96 0,-612.3 61.7,-707.23 427.19,-707.23 327.51,0 384.46,90.18 384.46,735.71 0,612.3 -52.21,721.48 -422.44,721.48z"/>
 </g>
</svg>
