<?xml version="1.0" encoding="UTF-8"?>
<!DOCTYPE svg PUBLIC "-//W3C//DTD SVG 1.1//EN" "http://www.w3.org/Graphics/SVG/1.1/DTD/svg11.dtd">
<!-- Creator: CorelDRAW X6 -->
<svg xmlns="http://www.w3.org/2000/svg" xml:space="preserve" width="97.2014mm" height="98.7812mm" version="1.1" shape-rendering="geometricPrecision" text-rendering="geometricPrecision" image-rendering="optimizeQuality" fill-rule="evenodd" clip-rule="evenodd"
viewBox="0 0 364 370"
 xmlns:xlink="http://www.w3.org/1999/xlink">
 <g id="Слой_x0020_1">
  <metadata id="CorelCorpID_0Corel-Layer"/>
  <path fill="#B3B3B3" d="M64 0l237 0c35,0 64,29 64,64l0 244c0,28 -18,51 -43,60 -11,4 -23,3 -33,-4l-97 -62c-6,-4 -14,-4 -20,0l-97 62c-10,6 -21,8 -33,4 -25,-9 -43,-32 -43,-60l0 -244c0,-35 29,-64 64,-64zm0 45l237 0c10,0 19,8 19,19l0 244c0,8 -5,15 -12,18 -3,1 -7,1 -10,-1l-104 -67c-6,-4 -14,-4 -20,0l-106 67c-3,2 -6,2 -10,1 -7,-3 -12,-10 -12,-18l0 -244c0,-10 8,-19 19,-19z"/>
 </g>
</svg>
