<?xml version="1.0" encoding="UTF-8"?>
<!DOCTYPE svg PUBLIC "-//W3C//DTD SVG 1.1//EN" "http://www.w3.org/Graphics/SVG/1.1/DTD/svg11.dtd">
<!-- Creator: CorelDRAW X6 -->
<svg xmlns="http://www.w3.org/2000/svg" xml:space="preserve" width="245.24mm" height="245.24mm" version="1.1" shape-rendering="geometricPrecision" text-rendering="geometricPrecision" image-rendering="optimizeQuality" fill-rule="evenodd" clip-rule="evenodd"
viewBox="0 0 7594 7594"
 xmlns:xlink="http://www.w3.org/1999/xlink">
 <g id="Слой_x0020_1">
  <metadata id="CorelCorpID_0Corel-Layer"/>
  <path fill="black" d="M2758 2259c-3,1 -5,1 -5,1 0,0 2,0 5,-1z"/>
  <path fill="black" d="M393 0l6807 0c216,0 393,177 393,393l0 6807c0,216 -177,393 -393,393l-6807 0c-216,0 -393,-177 -393,-393l0 -6807c0,-216 177,-393 393,-393zm0 334l6807 0c32,0 59,27 59,59l0 6807c0,32 -27,59 -59,59l-6807 0c-32,0 -59,-27 -59,-59l0 -6807c0,-32 27,-59 59,-59z"/>
  <path fill="black" d="M2348 2564c2,-1 4,-1 4,-1 0,0 -1,0 -4,1z"/>
  <path fill="black" d="M3556 957c204,0 409,0 613,0 82,0 149,65 149,145l0 1111c0,1 0,3 0,4 -9,332 545,460 545,875l0 3194c0,80 -67,145 -149,145 -568,0 -1136,0 -1703,0 -82,0 -149,-65 -149,-145l0 -3194c0,-415 554,-543 545,-875 0,-1 0,-3 0,-4l0 -1111c0,-80 67,-145 149,-145zm-308 3332l798 0 0 1285 -795 0c0,170 0,340 0,508 408,0 816,0 1223,0l0 -3052c0,-6 -4,-12 -7,-17 -20,-31 -55,-64 -83,-90 -98,-90 -193,-208 -274,-307 -101,-123 -105,-119 -105,-221l0 -943 -282 0 0 944c0,105 -2,93 -103,216 -83,100 -179,220 -277,311 -14,13 -90,84 -90,107 -2,125 -3,281 -4,459l798 0 0 492 -799 0c0,99 0,202 0,308z"/>
 </g>
</svg>
