<?xml version="1.0" encoding="UTF-8"?>
<!DOCTYPE svg PUBLIC "-//W3C//DTD SVG 1.1//EN" "http://www.w3.org/Graphics/SVG/1.1/DTD/svg11.dtd">
<!-- Creator: CorelDRAW X6 -->
<svg xmlns="http://www.w3.org/2000/svg" xml:space="preserve" width="245.24mm" height="245.24mm" version="1.1" shape-rendering="geometricPrecision" text-rendering="geometricPrecision" image-rendering="optimizeQuality" fill-rule="evenodd" clip-rule="evenodd"
viewBox="0 0 2130 2130"
 xmlns:xlink="http://www.w3.org/1999/xlink">
 <g id="Слой_x0020_1">
  <metadata id="CorelCorpID_0Corel-Layer"/>
  <path fill="black" d="M110 0l1910 0c61,0 110,50 110,110l0 1910c0,61 -50,110 -110,110l-1910 0c-61,0 -110,-50 -110,-110l0 -1910c0,-61 50,-110 110,-110zm0 94l1910 0c9,0 17,7 17,17l0 1910c0,9 -7,17 -17,17l-1910 0c-9,0 -17,-7 -17,-17l0 -1910c0,-9 7,-17 17,-17z"/>
  <path fill="black" d="M771 1586c-28,18 -77,37 -142,43 -18,3 -37,-9 -43,-31l-125 -390c-27,-6 -47,-31 -47,-60l0 -13c-54,-24 -92,-78 -92,-141 0,-63 38,-118 92,-141l0 -13c0,-34 28,-62 62,-62l308 0c148,0 431,-148 524,-199l0 -17c0,-34 28,-62 62,-62l0 0c34,0 62,28 62,62l0 339 0 0c52,0 92,40 92,92 0,52 -40,92 -92,92l0 0 0 339c0,34 -28,62 -62,62l0 0c-34,0 -62,-28 -62,-62l0 -18c-92,-51 -366,-198 -523,-198l12 44c9,40 -22,77 -62,77l-4 0c14,93 43,147 59,172 15,22 15,49 0,71 -6,6 -12,9 -18,12zm899 -926c-15,-15 -40,-15 -55,0 -15,15 -15,39 0,55 155,155 155,405 0,560 -15,15 -15,39 0,55 15,15 40,15 55,0 185,-185 185,-485 0,-670zm-87 126c-15,-15 -39,-15 -54,0 -15,15 -15,39 0,54 85,86 85,224 0,310 -15,15 -15,39 0,54 15,15 39,15 54,0 115,-116 115,-303 0,-418zm-1070 325l270 0c126,0 307,73 455,147l0 -528c-149,74 -334,149 -455,149l-270 0 0 232zm201 419c-53,-94 -70,-214 -70,-319l-98 0 -1 1 108 336c21,-4 44,-10 62,-19z"/>
 </g>
</svg>
