<?xml version="1.0" encoding="UTF-8"?>
<!DOCTYPE svg PUBLIC "-//W3C//DTD SVG 1.1//EN" "http://www.w3.org/Graphics/SVG/1.1/DTD/svg11.dtd">
<!-- Creator: CorelDRAW X6 -->
<svg xmlns="http://www.w3.org/2000/svg" xml:space="preserve" width="80.2838mm" height="80.2838mm" version="1.1" shape-rendering="geometricPrecision" text-rendering="geometricPrecision" image-rendering="optimizeQuality" fill-rule="evenodd" clip-rule="evenodd"
viewBox="0 0 305 305"
 xmlns:xlink="http://www.w3.org/1999/xlink">
 <g id="Слой_x0020_1">
  <metadata id="CorelCorpID_0Corel-Layer"/>
  <path fill="#B3B3B3" d="M153 0c40,0 76,15 103,40 -25,27 -61,69 -68,76 -13,12 -31,36 -43,47l-25 -22c-8,-7 -32,-36 -45,-11 -7,15 8,32 14,42 8,13 15,25 23,38 7,12 15,29 28,33 21,6 29,-11 37,-22 17,-25 33,-49 49,-73 16,-25 32,-49 49,-74 1,-2 3,-4 4,-6 17,24 26,54 26,86 0,84 -68,153 -153,153 -84,0 -153,-68 -153,-153 0,-84 68,-153 153,-153z"/>
 </g>
</svg>
