<?xml version="1.0" encoding="UTF-8"?>
<!DOCTYPE svg PUBLIC "-//W3C//DTD SVG 1.1//EN" "http://www.w3.org/Graphics/SVG/1.1/DTD/svg11.dtd">
<!-- Creator: CorelDRAW X6 -->
<svg xmlns="http://www.w3.org/2000/svg" xml:space="preserve" width="192.237mm" height="168.648mm" version="1.1" shape-rendering="geometricPrecision" text-rendering="geometricPrecision" image-rendering="optimizeQuality" fill-rule="evenodd" clip-rule="evenodd"
viewBox="0 0 1571 1379"
 xmlns:xlink="http://www.w3.org/1999/xlink">
 <g id="Слой_x0020_1">
  <metadata id="CorelCorpID_0Corel-Layer"/>
  <path fill="#B3B3B3" d="M222 1l1278 157 0 0c1,0 1,0 2,0l0 0c1,0 1,0 2,0l0 0c1,0 1,0 2,0l0 0c1,0 1,0 2,0l0 0c1,0 1,0 2,0l0 0c1,0 1,0 2,1l0 0c1,0 1,0 2,1l0 0c1,0 1,0 2,1l0 0c1,0 1,0 2,1l0 0c1,0 1,0 2,1l0 0c1,0 1,1 2,1l0 0c1,0 1,1 2,1l0 0c1,0 1,1 2,1l0 0c1,0 1,1 2,1l0 0c1,0 1,1 2,1l0 0c1,0 1,1 2,1l0 0c1,0 1,1 2,1l0 0c1,0 1,1 2,1l0 0c1,0 1,1 2,1l0 0c1,0 1,1 2,1l0 0c1,0 1,1 2,1l0 0c1,0 1,1 2,1l0 0c1,0 1,1 2,1l0 0c1,0 1,1 2,1l0 0c0,0 1,1 1,1l0 0c0,0 1,1 1,1l0 0c0,0 1,1 1,1l0 0c0,0 1,1 1,1l0 0c0,0 1,1 1,1l0 0c0,0 1,1 1,1l0 0c0,0 1,1 1,2l0 0c0,1 1,1 1,2l0 0c0,1 1,1 1,2l0 0c0,1 1,1 1,2l0 0c0,1 1,1 1,2l0 0c0,1 1,1 1,2l0 0c0,1 1,1 1,2l0 0c0,1 1,1 1,2l0 0c0,1 1,1 1,2l0 0c0,1 1,1 1,2l0 0c0,1 1,1 1,2l0 0c0,1 1,1 1,2l0 0c0,1 1,1 1,2l0 0c0,1 1,1 1,2l0 0c0,1 0,1 1,2l0 0c0,1 0,1 1,2l0 0c0,1 0,1 1,2l0 0c0,1 0,1 1,2l0 0c0,1 0,1 1,2l0 0c0,1 0,1 0,2l0 0c0,1 0,1 0,2l0 0c0,1 0,1 0,2l0 0c0,1 0,1 0,2l0 0c0,1 0,1 0,2l0 0c0,1 0,1 0,2l0 0c0,1 0,1 0,2l0 0c0,1 0,1 0,2l0 0c0,1 0,1 0,2l0 0c0,1 0,1 0,2l0 0c0,1 0,1 0,2l0 0c0,1 0,1 0,2l0 0c0,1 0,1 0,2l0 0c0,1 0,1 0,2l0 0c0,1 0,1 0,2l0 0 -130 1058 0 0c0,1 0,1 0,2l0 0c0,1 0,1 0,2l0 0c0,1 0,1 0,2l0 0c0,1 0,1 0,2l0 0c0,1 0,1 0,2l0 0c0,1 0,1 -1,2l0 0c0,1 0,1 -1,2l0 0c0,1 0,1 -1,2l0 0c0,1 0,1 -1,2l0 0c0,1 0,1 -1,2l0 0c0,1 -1,1 -1,2l0 0c0,1 -1,1 -1,2l0 0c0,1 -1,1 -1,2l0 0c0,1 -1,1 -1,2l0 0c0,1 -1,1 -1,2l0 0c0,1 -1,1 -1,2l0 0c0,1 -1,1 -1,2l0 0c0,1 -1,1 -1,2l0 0c0,1 -1,1 -1,2l0 0c0,1 -1,1 -1,2l0 0c0,1 -1,1 -1,2l0 0c0,1 -1,1 -1,2l0 0c0,1 -1,1 -1,2l0 0c0,1 -1,1 -1,2l0 0c0,0 -1,1 -1,1l0 0c0,0 -1,1 -1,1l0 0c0,0 -1,1 -1,1l0 0c0,0 -1,1 -1,1l0 0c0,0 -1,1 -1,1l0 0c0,0 -1,1 -1,1l0 0c0,0 -1,1 -2,1l0 0c-1,0 -1,1 -2,1l0 0c-1,0 -1,1 -2,1l0 0c-1,0 -1,1 -2,1l0 0c-1,0 -1,1 -2,1l0 0c-1,0 -1,1 -2,1l0 0c-1,0 -1,1 -2,1l0 0c-1,0 -1,1 -2,1l0 0c-1,0 -1,1 -2,1l0 0c-1,0 -1,1 -2,1l0 0c-1,0 -1,1 -2,1l0 0c-1,0 -1,1 -2,1l0 0c-1,0 -1,1 -2,1l0 0c-1,0 -1,1 -2,1l0 0c-1,0 -1,0 -2,1l0 0c-1,0 -1,0 -2,1l0 0c-1,0 -1,0 -2,1l0 0c-1,0 -1,0 -2,1l0 0c-1,0 -1,0 -2,1l0 0c-1,0 -1,0 -2,0l0 0c-1,0 -1,0 -2,0l0 0c-1,0 -1,0 -2,0l0 0c-1,0 -1,0 -2,0l0 0c-1,0 -1,0 -2,0l0 0c-1,0 -1,0 -2,0l0 0c-1,0 -1,0 -2,0l0 0c-1,0 -1,0 -2,0l0 0c-1,0 -1,0 -2,0l0 0c-1,0 -1,0 -2,0l0 0c-1,0 -1,0 -2,0l0 0c-1,0 -1,0 -2,0l0 0c-1,0 -1,0 -2,0l0 0c-1,0 -1,0 -2,0l0 0c-1,0 -1,0 -2,0l0 0 -1278 -157 0 0c-1,0 -1,0 -2,0l0 0c-1,0 -1,0 -2,0l0 0c-1,0 -1,0 -2,0l0 0c-1,0 -1,0 -2,0l0 0c-1,0 -1,0 -2,0l0 0c-1,0 -1,0 -2,-1l0 0c-1,0 -1,0 -2,-1l0 0c-1,0 -1,0 -2,-1l0 0c-1,0 -1,0 -2,-1l0 0c-1,0 -1,0 -2,-1l0 0c-1,0 -1,-1 -2,-1l0 0c-1,0 -1,-1 -2,-1l0 0c-1,0 -1,-1 -2,-1l0 0c-1,0 -1,-1 -2,-1l0 0c-1,0 -1,-1 -2,-1l0 0c-1,0 -1,-1 -2,-1l0 0c-1,0 -1,-1 -2,-1l0 0c-1,0 -1,-1 -2,-1l0 0c-1,0 -1,-1 -2,-1l0 0c-1,0 -1,-1 -2,-1l0 0c-1,0 -1,-1 -2,-1l0 0c-1,0 -1,-1 -2,-1l0 0c-1,0 -1,-1 -2,-1l0 0c-1,0 -1,-1 -2,-1l0 0c0,0 -1,-1 -1,-1l0 0c0,0 -1,-1 -1,-1l0 0c0,0 -1,-1 -1,-1l0 0c0,0 -1,-1 -1,-1l0 0c0,0 -1,-1 -1,-1l0 0c0,0 -1,-1 -1,-1l0 0c0,0 -1,-1 -1,-2l0 0c0,-1 -1,-1 -1,-2l0 0c0,-1 -1,-1 -1,-2l0 0c0,-1 -1,-1 -1,-2l0 0c0,-1 -1,-1 -1,-2l0 0c0,-1 -1,-1 -1,-2l0 0c0,-1 -1,-1 -1,-2l0 0c0,-1 -1,-1 -1,-2l0 0c0,-1 -1,-1 -1,-2l0 0c0,-1 -1,-1 -1,-2l0 0c0,-1 -1,-1 -1,-2l0 0c0,-1 -1,-1 -1,-2l0 0c0,-1 -1,-1 -1,-2l0 0c0,-1 -1,-1 -1,-2l0 0c0,-1 0,-1 -1,-2l0 0c0,-1 0,-1 -1,-2l0 0c0,-1 0,-1 -1,-2l0 0c0,-1 0,-1 -1,-2l0 0c0,-1 0,-1 -1,-2l0 0c0,-1 0,-1 0,-2l0 0c0,-1 0,-1 0,-2l0 0c0,-1 0,-1 0,-2l0 0c0,-1 0,-1 0,-2l0 0c0,-1 0,-1 0,-2l0 0c0,-1 0,-1 0,-2l0 0c0,-1 0,-1 0,-2l0 0c0,-1 0,-1 0,-2l0 0c0,-1 0,-1 0,-2l0 0c0,-1 0,-1 0,-2l0 0c0,-1 0,-1 0,-2l0 0c0,-1 0,-1 0,-2l0 0c0,-1 0,-1 0,-2l0 0c0,-1 0,-1 0,-2l0 0c0,-1 0,-1 0,-2l0 0 130 -1058 0 0c0,-1 0,-1 0,-2l0 0c0,-1 0,-1 0,-2l0 0c0,-1 0,-1 0,-2l0 0c0,-1 0,-1 0,-2l0 0c0,-1 0,-1 0,-2l0 0c0,-1 0,-1 1,-2l0 0c0,-1 0,-1 1,-2l0 0c0,-1 0,-1 1,-2l0 0c0,-1 0,-1 1,-2l0 0c0,-1 0,-1 1,-2l0 0c0,-1 1,-1 1,-2l0 0c0,-1 1,-1 1,-2l0 0c0,-1 1,-1 1,-2l0 0c0,-1 1,-1 1,-2l0 0c0,-1 1,-1 1,-2l0 0c0,-1 1,-1 1,-2l0 0c0,-1 1,-1 1,-2l0 0c0,-1 1,-1 1,-2l0 0c0,-1 1,-1 1,-2l0 0c0,-1 1,-1 1,-2l0 0c0,-1 1,-1 1,-2l0 0c0,-1 1,-1 1,-2l0 0c0,-1 1,-1 1,-2l0 0c0,-1 1,-1 1,-1l0 0c0,0 1,-1 1,-1l0 0c0,0 1,-1 1,-1l0 0c0,0 1,-1 1,-1l0 0c0,0 1,-1 1,-1l0 0c0,0 1,-1 1,-1l0 0c0,0 1,-1 1,-1l0 0c0,0 1,-1 2,-1l0 0c1,0 1,-1 2,-1l0 0c1,0 1,-1 2,-1l0 0c1,0 1,-1 2,-1l0 0c1,0 1,-1 2,-1l0 0c1,0 1,-1 2,-1l0 0c1,0 1,-1 2,-1l0 0c1,0 1,-1 2,-1l0 0c1,0 1,-1 2,-1l0 0c1,0 1,-1 2,-1l0 0c1,0 1,-1 2,-1l0 0c1,0 1,-1 2,-1l0 0c1,0 1,-1 2,-1l0 0c1,0 1,-1 2,-1l0 0c1,0 1,0 2,-1l0 0c1,0 1,0 2,-1l0 0c1,0 1,0 2,-1l0 0c1,0 1,0 2,-1l0 0c1,0 1,0 2,-1l0 0c1,0 1,0 2,0l0 0c1,0 1,0 2,0l0 0c1,0 1,0 2,0l0 0c1,0 1,0 2,0l0 0c1,0 1,0 2,0l0 0c1,0 1,0 2,0l0 0c1,0 1,0 2,0l0 0c1,0 1,0 2,0l0 0c1,0 1,0 2,0l0 0c1,0 1,0 2,0l0 0c1,0 1,0 2,0l0 0c1,0 1,0 2,0l0 0c1,0 1,0 2,0l0 0c1,0 1,0 2,0l0 0c1,0 1,0 2,0l0 0zm538 738l263 -285 95 90 -357 386 -90 -95 -133 -140 90 -95 132 139zm-525 -580c3,-22 23,-38 46,-36l1132 139c22,3 38,23 36,46l-112 912c-3,22 -23,38 -46,36l-1132 -139c-22,-3 -38,-23 -36,-46l112 -912z"/>
 </g>
</svg>
