<?xml version="1.0" encoding="UTF-8"?>
<!DOCTYPE svg PUBLIC "-//W3C//DTD SVG 1.1//EN" "http://www.w3.org/Graphics/SVG/1.1/DTD/svg11.dtd">
<!-- Creator: CorelDRAW X6 -->
<svg xmlns="http://www.w3.org/2000/svg" xml:space="preserve" width="98.9654mm" height="93.1425mm" version="1.1" shape-rendering="geometricPrecision" text-rendering="geometricPrecision" image-rendering="optimizeQuality" fill-rule="evenodd" clip-rule="evenodd"
viewBox="0 0 416 391"
 xmlns:xlink="http://www.w3.org/1999/xlink">
 <g id="Слой_x0020_1">
  <metadata id="CorelCorpID_0Corel-Layer"/>
  <path fill="#B3B3B3" d="M42 305c-25,-11 -42,-36 -42,-65l0 -169c0,-39 32,-71 71,-71l273 0c39,0 71,32 71,71l0 169c0,39 -32,71 -71,71l-151 0c-1,3 -3,6 -4,7 -11,25 -20,48 -46,63 -15,9 -33,12 -50,9l-6 -1 -5 -2c-37,-14 -40,-49 -42,-83zm61 -130l105 0c14,0 25,11 25,25 0,14 -11,25 -25,25l-105 0c-14,0 -25,-11 -25,-25 0,-14 11,-25 25,-25zm0 -85l208 0c14,0 25,11 25,25 0,14 -11,25 -25,25l-208 0c-14,0 -25,-11 -25,-25 0,-14 11,-25 25,-25zm-32 -39l273 0c12,0 21,9 21,21l0 169c0,12 -9,21 -21,21l-156 0c-55,-1 -42,86 -87,80 -18,-7 2,-80 -31,-80 -12,0 -21,-9 -21,-21l0 -169c0,-12 9,-21 21,-21z"/>
 </g>
</svg>
