<?xml version="1.0" encoding="UTF-8"?>
<!DOCTYPE svg PUBLIC "-//W3C//DTD SVG 1.1//EN" "http://www.w3.org/Graphics/SVG/1.1/DTD/svg11.dtd">
<!-- Creator: CorelDRAW X6 -->
<svg xmlns="http://www.w3.org/2000/svg" xml:space="preserve" width="106.093mm" height="91.393mm" version="1.1" shape-rendering="geometricPrecision" text-rendering="geometricPrecision" image-rendering="optimizeQuality" fill-rule="evenodd" clip-rule="evenodd"
viewBox="0 0 536 462"
 xmlns:xlink="http://www.w3.org/1999/xlink">
 <g id="Слой_x0020_1">
  <metadata id="CorelCorpID_0Corel-Layer"/>
  <path fill="#B3B3B3" d="M189 414c-45,22 -90,37 -141,46 -47,9 -62,-16 -37,-51 14,-20 28,-40 40,-59 4,-6 3,-13 -2,-18 -31,-33 -50,-75 -50,-123 0,-14 2,-27 5,-41 28,-114 155,-169 263,-169 108,0 235,55 263,169 3,13 5,27 5,41 0,14 -2,27 -5,41 -28,114 -155,169 -263,169 -23,0 -45,-2 -68,-7 -4,-1 -7,0 -11,2zm79 -353c115,0 207,67 207,149 0,82 -93,149 -207,149 -31,0 -61,-5 -87,-14l0 0c-24,22 -59,39 -88,49 15,-22 33,-51 39,-72l0 0c-43,-27 -71,-67 -71,-112 0,-82 93,-149 207,-149z"/>
 </g>
</svg>
