<?xml version="1.0" encoding="UTF-8"?>
<!DOCTYPE svg PUBLIC "-//W3C//DTD SVG 1.1//EN" "http://www.w3.org/Graphics/SVG/1.1/DTD/svg11.dtd">
<!-- Creator: CorelDRAW X6 -->
<svg xmlns="http://www.w3.org/2000/svg" xml:space="preserve" width="245.24mm" height="245.24mm" version="1.1" shape-rendering="geometricPrecision" text-rendering="geometricPrecision" image-rendering="optimizeQuality" fill-rule="evenodd" clip-rule="evenodd"
viewBox="0 0 21178 21178"
 xmlns:xlink="http://www.w3.org/1999/xlink">
 <g id="Слой_x0020_1">
  <metadata id="CorelCorpID_0Corel-Layer"/>
  <path fill="black" d="M1097 0l18984 0c603,0 1097,494 1097,1097l0 18984c0,603 -494,1097 -1097,1097l-18984 0c-603,0 -1097,-494 -1097,-1097l0 -18984c0,-603 494,-1097 1097,-1097zm0 932l18984 0c91,0 165,74 165,165l0 18984c0,91 -74,165 -165,165l-18984 0c-91,0 -165,-74 -165,-165l0 -18984c0,-91 74,-165 165,-165z"/>
  <path fill="black" d="M10637 3072c-16,0 -31,0 -47,0 -16,0 -31,0 -47,0l0 1c-2031,21 -3403,305 -4117,853 0,3727 1084,6379 3251,7955 -353,332 -508,675 -463,1029 1022,166 1130,1249 324,3251l1005 0 14 0 1 0 15 0 1 0 15 0 1 0 15 0 1 0 15 0 1 0 14 0 1005 0c-806,-2002 -699,-3085 324,-3251 45,-354 -109,-697 -463,-1029 2168,-1576 3252,-4228 3251,-7955 -714,-547 -2086,-832 -4117,-853l0 -1zm-48 7512l51 -37c1886,-1371 2504,-3646 2625,-5874 -776,-220 -1861,-286 -2676,-286 -835,9 -1876,60 -2675,286 120,2228 739,4502 2625,5874l51 37zm-3397 7523l6741 0 0 -120 14 0c271,0 493,-222 493,-493l0 0c0,-271 -222,-493 -493,-493l-14 0 0 -29c0,-205 -168,-372 -372,-372l-5997 0c-205,0 -372,168 -372,372l0 29 -14 0c-271,0 -493,222 -493,493l0 0c0,271 222,493 493,493l14 0 0 120zm7999 -13846l2 813c413,0 827,0 1240,0 -421,1268 -1017,2233 -1786,2894 -138,444 -310,891 -517,1341 1495,-931 2496,-2146 3005,-3645 262,-855 -138,-1413 -607,-1402 -384,0 -830,0 -1338,0zm-9205 0l-2 813c-413,0 -827,0 -1240,0 421,1268 1017,2233 1786,2894 138,444 310,891 517,1341 -1495,-931 -2496,-2146 -3005,-3645 -262,-855 138,-1413 607,-1402 384,0 830,0 1338,0z"/>
 </g>
</svg>
