<?xml version="1.0" encoding="UTF-8"?>
<!DOCTYPE svg PUBLIC "-//W3C//DTD SVG 1.1//EN" "http://www.w3.org/Graphics/SVG/1.1/DTD/svg11.dtd">
<!-- Creator: CorelDRAW X6 -->
<svg xmlns="http://www.w3.org/2000/svg" xml:space="preserve" width="192.237mm" height="168.648mm" version="1.1" shape-rendering="geometricPrecision" text-rendering="geometricPrecision" image-rendering="optimizeQuality" fill-rule="evenodd" clip-rule="evenodd"
viewBox="0 0 1945 1706"
 xmlns:xlink="http://www.w3.org/1999/xlink">
 <g id="Слой_x0020_1">
  <metadata id="CorelCorpID_0Corel-Layer"/>
  <path fill="#B3B3B3" d="M274 1l1582 194c55,7 95,58 88,113l-161 1310c-7,55 -58,95 -113,88l-1582 -194c-55,-7 -95,-58 -88,-113l161 -1310c7,-55 58,-95 113,-88zm711 747l664 -436 -1202 -148 539 583zm803 -333l-771 506c-2,1 -4,3 -7,4 -15,8 -32,11 -48,9 -16,-2 -32,-9 -45,-21 -2,-2 -4,-4 -5,-5l-626 -677 -135 1095c-3,28 16,53 44,56l1401 172c28,3 53,-16 56,-44l135 -1095z"/>
 </g>
</svg>
