<?xml version="1.0" encoding="UTF-8"?>
<!DOCTYPE svg PUBLIC "-//W3C//DTD SVG 1.1//EN" "http://www.w3.org/Graphics/SVG/1.1/DTD/svg11.dtd">
<!-- Creator: CorelDRAW X6 -->
<svg xmlns="http://www.w3.org/2000/svg" xml:space="preserve" width="143.595mm" height="144.272mm" version="1.1" shape-rendering="geometricPrecision" text-rendering="geometricPrecision" image-rendering="optimizeQuality" fill-rule="evenodd" clip-rule="evenodd"
viewBox="0 0 583 586"
 xmlns:xlink="http://www.w3.org/1999/xlink">
 <g id="Слой_x0020_1">
  <metadata id="CorelCorpID_0Corel-Layer"/>
  <path fill="#B3B3B3" d="M81 0l421 0c45,0 81,37 81,81l0 424c0,45 -37,81 -81,81l-82 0 0 -195 66 0 0 -98 -66 0 0 -87c0,-11 9,-20 20,-20l78 0 0 -106 -101 0c-79,0 -127,67 -127,118l0 95 -63 0 0 98 63 0 0 195 -210 0c-45,0 -81,-37 -81,-81l0 -424c0,-45 37,-81 81,-81z"/>
 </g>
</svg>
