<?xml version="1.0" encoding="UTF-8"?>
<!DOCTYPE svg PUBLIC "-//W3C//DTD SVG 1.1//EN" "http://www.w3.org/Graphics/SVG/1.1/DTD/svg11.dtd">
<!-- Creator: CorelDRAW X6 -->
<svg xmlns="http://www.w3.org/2000/svg" xml:space="preserve" width="93.0986mm" height="94.1981mm" version="1.1" shape-rendering="geometricPrecision" text-rendering="geometricPrecision" image-rendering="optimizeQuality" fill-rule="evenodd" clip-rule="evenodd"
viewBox="0 0 591 598"
 xmlns:xlink="http://www.w3.org/1999/xlink">
 <g id="Слой_x0020_1">
  <metadata id="CorelCorpID_0Corel-Layer"/>
  <path fill="#B3B3B3" d="M406 296l0 225c0,30 -16,55 -42,68 -26,13 -56,10 -80,-7l-68 -51c-20,-15 -30,-36 -30,-61l0 -173 -164 -168c-22,-22 -28,-54 -16,-83 12,-29 39,-47 70,-47l438 0c31,0 58,18 70,47 12,29 6,60 -16,83l-163 167zm-330 -220l438 0 -184 189 0 256 -68 -51 0 -204 -186 -190z"/>
 </g>
</svg>
