<?xml version="1.0" encoding="UTF-8"?>
<!DOCTYPE svg PUBLIC "-//W3C//DTD SVG 1.1//EN" "http://www.w3.org/Graphics/SVG/1.1/DTD/svg11.dtd">
<!-- Creator: CorelDRAW X6 -->
<svg xmlns="http://www.w3.org/2000/svg" xml:space="preserve" width="554.692mm" height="122.895mm" version="1.1" shape-rendering="geometricPrecision" text-rendering="geometricPrecision" image-rendering="optimizeQuality" fill-rule="evenodd" clip-rule="evenodd"
viewBox="0 0 148431 32886"
 xmlns:xlink="http://www.w3.org/1999/xlink">
 <g id="Слой_x0020_1">
  <metadata id="CorelCorpID_0Corel-Layer"/>
  <g id="_617736112">
   <path fill="black" fill-rule="nonzero" d="M3121 15248l533 0c1167,1979 2436,4288 3781,6927l3654 0 -4720 -7993 4364 -7790 -3552 0 -3502 6826 -558 0 0 -6826 -3121 0 0 15783 3121 0 0 -6927zm19868 -5506l-2969 0 -4314 7562 -178 0 0 -7562 -3121 0 0 12433 2918 0 4339 -7841 178 0 0 7841 3146 0 0 -12433zm12687 0l-3146 0 0 4720 -3806 0 0 -4720 -3121 0 0 12433 3121 0 0 -5126 3806 0 0 5126 3146 0 0 -12433zm7485 12687c4238,0 5532,-1294 5532,-6673 0,-5278 -1243,-6344 -5126,-6344 -4238,76 -5379,1040 -5532,6597 152,5405 1142,6344 5126,6420zm101 -2614c-1776,0 -2081,-533 -2081,-4009 0,-3273 330,-3781 2284,-3781 1751,0 2055,482 2055,3933 0,3273 -279,3857 -2258,3857z"/>
   <path fill="black" d="M58282 0l88278 0c1029,0 1871,842 1871,1871l0 22706c0,1029 -847,1777 -1871,1871l-69678 6437 -18600 -6437c-973,-337 -1871,-842 -1871,-1871l0 -22706c0,-1029 842,-1871 1871,-1871zm20621 19409l-1776 0 0 -13017 -3121 0 0 13017 -4517 0 0 -13017 -3121 0 0 15783 9465 0 710 2664 2360 0 0 -5430zm11317 0l-6521 0 0 -4060 4694 0 0 -2664 -4694 0 0 -3527 6267 0 0 -2766 -9388 0 0 15783 9642 0 0 -2766zm12916 -13017l-3121 0 0 6242 -4770 0 0 -6242 -3121 0 0 15783 3121 0 0 -6851 4770 0 0 6851 3121 0 0 -15783zm2081 15453c1954,330 3552,507 4796,507 3273,0 4923,-1319 4923,-4593 0,-2461 -888,-3603 -3045,-3730 1751,-279 2740,-1700 2740,-3755 0,-3146 -1396,-4009 -4415,-4009 -1116,0 -2639,178 -4542,507l0 2639c1954,-279 3273,-431 3958,-431 1446,0 1802,381 1802,1802 0,1548 -482,2131 -2588,2131l-2005 0 0 2461 2131 0c2309,0 2791,584 2791,2131 0,1522 -482,2131 -2334,2131 -939,0 -2360,-152 -4212,-431l0 2639zm23344 -8374c-127,-6217 -1269,-7206 -5785,-7206 -3831,0 -5785,457 -5785,7206l0 1827c0,5988 1421,7054 5785,7054 3705,0 5785,-457 5785,-7054l0 -1827zm-3121 1522c-102,4288 -431,4567 -2664,4669 -2360,-127 -2563,-330 -2664,-4669l0 -1370c102,-4288 431,-4567 2664,-4669 2360,127 2563,330 2664,4669l0 1370zm8576 1802l1396 0c4161,0 5938,-1294 5938,-5456 0,-4212 -1319,-5075 -5379,-5075 -1243,0 -2943,101 -5075,279l0 15631 3121 0 0 -5379zm0 -7866c609,-51 1218,-76 1827,-76 1802,0 2284,507 2284,2563 0,2258 -507,2842 -2740,2842l-1370 0 0 -5329z"/>
  </g>
 </g>
</svg>
