<?xml version="1.0" encoding="UTF-8"?>
<!DOCTYPE svg PUBLIC "-//W3C//DTD SVG 1.1//EN" "http://www.w3.org/Graphics/SVG/1.1/DTD/svg11.dtd">
<!-- Creator: CorelDRAW X6 -->
<svg xmlns="http://www.w3.org/2000/svg" xml:space="preserve" width="245.24mm" height="245.24mm" version="1.1" shape-rendering="geometricPrecision" text-rendering="geometricPrecision" image-rendering="optimizeQuality" fill-rule="evenodd" clip-rule="evenodd"
viewBox="0 0 2602 2602"
 xmlns:xlink="http://www.w3.org/1999/xlink">
 <g id="Слой_x0020_1">
  <metadata id="CorelCorpID_0Corel-Layer"/>
  <path fill="black" d="M135 0l2332 0c74,0 135,61 135,135l0 2332c0,74 -61,135 -135,135l-2332 0c-74,0 -135,-61 -135,-135l0 -2332c0,-74 61,-135 135,-135zm0 115l2332 0c11,0 20,9 20,20l0 2332c0,11 -9,20 -20,20l-2332 0c-11,0 -20,-9 -20,-20l0 -2332c0,-11 9,-20 20,-20z"/>
  <path fill="black" d="M931 1464c41,-10 104,-51 116,-94 -26,-7 -96,-81 -115,-99 -27,-27 -77,-87 -95,-119 -46,31 -53,68 -53,116 0,61 115,148 147,196zm285 -232c-25,-6 -57,-35 -71,-53 -9,-12 -16,-22 -25,-37 -29,-48 -3,-20 -47,-78l-67 -89c-10,-12 -2,-14 -26,-14 -41,0 -94,67 -94,107 0,34 75,118 106,148 23,23 109,112 141,108 50,-6 78,-41 83,-91zm-62 -392c-65,0 -107,54 -109,87 0,10 4,14 12,24 12,15 25,31 35,46 34,-8 116,-54 151,-62l-56 -78c-8,-9 -2,-5 -12,-10 -1,0 -21,-5 -21,-5zm143 67c39,-9 116,-53 156,-62 -8,-12 -15,-17 -26,-28 -59,-59 -70,-122 -160,-55 -27,20 -29,36 -42,52l71 94zm664 285c0,122 -17,126 -25,202 -4,32 110,150 137,190 -11,7 -14,12 -23,21l-79 68c-32,-22 -47,-71 -76,-71l-156 13 44 -192c8,-33 14,-60 21,-95 30,-150 16,-179 -69,-327 -22,-38 -36,-50 -79,-68 -118,-51 -136,-31 -222,3 -29,11 -58,27 -87,34 5,22 45,79 -34,104 -26,8 -61,15 -82,25 -13,-20 -29,-41 -40,-62 -11,6 -32,15 -45,18 5,64 74,147 169,147 67,0 109,-13 161,-48 34,-23 35,-21 35,-45 0,-30 -16,-62 18,-62 20,0 20,30 22,49 5,66 16,61 -35,98 -18,13 -26,11 -35,36l-50 164c-5,16 -12,40 -14,57l-57 -86c-15,-23 -47,-68 -77,-70 -5,66 -82,101 -145,114 -42,8 -21,45 -99,97 -15,10 -27,17 -41,26l104 97c12,11 27,22 41,31 57,35 169,16 230,46 41,20 83,57 117,88 68,63 104,96 173,175l-98 89c-22,-6 -40,-35 -55,-52l-80 -80c-146,-122 -40,-82 -261,-113 -89,-12 -143,-73 -202,-123 -13,-11 -17,-13 -29,-25l-207 -221c-49,-52 -84,-106 -84,-188 0,-140 95,-195 105,-216 7,-16 4,-39 38,-95 7,-12 18,-27 28,-39 64,-76 111,-62 131,-92 38,-56 102,-110 189,-110 11,-20 27,-36 44,-49 69,-53 165,-88 243,-34 26,18 103,99 120,121 44,57 59,47 129,62 23,5 55,16 74,24 48,21 72,51 98,94 28,47 116,208 116,272z"/>
 </g>
</svg>
