<?xml version="1.0" encoding="UTF-8"?>
<!DOCTYPE svg PUBLIC "-//W3C//DTD SVG 1.1//EN" "http://www.w3.org/Graphics/SVG/1.1/DTD/svg11.dtd">
<!-- Creator: CorelDRAW X6 -->
<svg xmlns="http://www.w3.org/2000/svg" xml:space="preserve" width="123.95mm" height="96.3933mm" version="1.1" shape-rendering="geometricPrecision" text-rendering="geometricPrecision" image-rendering="optimizeQuality" fill-rule="evenodd" clip-rule="evenodd"
viewBox="0 0 860 669"
 xmlns:xlink="http://www.w3.org/1999/xlink">
 <g id="Слой_x0020_1">
  <metadata id="CorelCorpID_0Corel-Layer"/>
  <path fill="#B3B3B3" d="M463 7l347 151c31,14 50,42 50,76 0,34 -19,63 -50,76l-55 24 55 24c31,14 50,42 50,76 0,34 -19,63 -50,76l-347 151c-22,10 -44,10 -66,0l-347 -151c-31,-14 -50,-42 -50,-76 0,-34 19,-63 50,-76l55 -24 -55 -24c-31,-14 -50,-42 -50,-76 0,-34 19,-63 50,-76l347 -151c22,-10 44,-10 66,0zm187 373l-187 81c-22,10 -44,10 -66,0l-187 -81 -127 55 347 151 347 -151 -127 -55zm-220 -296l347 151 -347 151 -347 -151 347 -151z"/>
 </g>
</svg>
