<?xml version="1.0" encoding="UTF-8"?>
<!DOCTYPE svg PUBLIC "-//W3C//DTD SVG 1.1//EN" "http://www.w3.org/Graphics/SVG/1.1/DTD/svg11.dtd">
<!-- Creator: CorelDRAW X6 -->
<svg xmlns="http://www.w3.org/2000/svg" xml:space="preserve" width="245.24mm" height="245.24mm" version="1.1" shape-rendering="geometricPrecision" text-rendering="geometricPrecision" image-rendering="optimizeQuality" fill-rule="evenodd" clip-rule="evenodd"
viewBox="0 0 1895 1895"
 xmlns:xlink="http://www.w3.org/1999/xlink">
 <g id="Слой_x0020_1">
  <metadata id="CorelCorpID_0Corel-Layer"/>
  <path fill="#B3B3B3" d="M98 0l1699 0c54,0 98,44 98,98l0 1699c0,54 -44,98 -98,98l-1699 0c-54,0 -98,-44 -98,-98l0 -1699c0,-54 44,-98 98,-98zm883 477l575 250c32,14 51,43 51,78 0,35 -19,64 -51,78l-150 65 150 65c32,14 51,43 51,78 0,35 -19,64 -51,78l-575 250c-22,10 -45,10 -68,0l-575 -250c-32,-14 -51,-43 -51,-78 0,-35 19,-64 51,-78l150 -65 -150 -65c-32,-14 -51,-43 -51,-78 0,-35 19,-64 51,-78l575 -250c22,-10 45,-10 68,0zm319 517l-319 138c-22,10 -45,10 -68,0l-319 -138 -223 97 575 250 575 -250 -223 -97zm223 -189l-575 -250 -575 250c317,138 304,132 575,250 275,-119 254,-110 575,-250zm-1425 -721l1699 0c8,0 15,7 15,15l0 1699c0,8 -7,15 -15,15l-1699 0c-8,0 -15,-7 -15,-15l0 -1699c0,-8 7,-15 15,-15z"/>
 </g>
</svg>
