<?xml version="1.0" encoding="UTF-8"?>
<!DOCTYPE svg PUBLIC "-//W3C//DTD SVG 1.1//EN" "http://www.w3.org/Graphics/SVG/1.1/DTD/svg11.dtd">
<!-- Creator: CorelDRAW X6 -->
<svg xmlns="http://www.w3.org/2000/svg" xml:space="preserve" width="245.24mm" height="245.24mm" version="1.1" shape-rendering="geometricPrecision" text-rendering="geometricPrecision" image-rendering="optimizeQuality" fill-rule="evenodd" clip-rule="evenodd"
viewBox="0 0 27019 27019"
 xmlns:xlink="http://www.w3.org/1999/xlink">
 <g id="Слой_x0020_1">
  <metadata id="CorelCorpID_0Corel-Layer"/>
  <path fill="black" d="M18656 17125l1967 -4552 1970 4552 -3937 0zm-14226 -2l1965 -4550 1967 4550 -3932 0zm19963 172c-59,-106 -173,-169 -298,-169l-512 0 -2442 -5656c477,-236 794,-631 818,-1102 2,-211 -84,-431 -249,-591 -211,-217 -490,-325 -738,-321 -576,31 -961,343 -1313,321 -448,17 -1163,-448 -1837,-969 -697,-508 -1317,-1079 -2037,-1115 -433,6 -796,134 -1086,288l0 -459c0,-90 -37,-180 -101,-244 -66,-66 -154,-101 -249,-101l-1672 0c-92,0 -185,36 -249,101 -66,64 -101,154 -101,244l0 462c-288,-156 -655,-283 -1086,-288 -723,32 -1341,604 -2037,1112 -677,523 -1389,987 -1837,969 -354,22 -739,-290 -1317,-318 -245,-7 -527,101 -740,321 -158,156 -246,376 -246,589 24,470 338,869 817,1103l-2442 5651 -510 0c-123,0 -237,66 -301,171 -62,108 -62,240 0,348 741,1312 2154,2198 3770,2198 1618,-1 3029,-886 3772,-2198 59,-108 59,-237 -2,-348 -62,-105 -176,-171 -299,-171l-510 0 -2352 -5436c240,-11 492,-50 754,-132 679,-222 1396,-681 2029,-1081 605,-407 1220,-730 1279,-697 121,-13 563,185 899,409 139,90 260,176 363,248 53,613 561,1095 1183,1095 627,0 1130,-481 1183,-1095 103,-72 227,-158 365,-248 332,-227 776,-422 899,-409 59,-31 675,293 1277,697 633,400 1352,859 2029,1081 262,82 515,121 752,132l-2350 5438 -510 0c-125,0 -237,64 -301,169 -62,110 -62,242 0,348 743,1310 2152,2198 3772,2200 1618,-2 3026,-890 3770,-2200 62,-106 59,-240 -3,-347z"/>
  <path fill="black" d="M1400 0l24219 0c770,0 1400,630 1400,1400l0 24219c0,770 -630,1400 -1400,1400l-24219 0c-770,0 -1400,-630 -1400,-1400l0 -24219c0,-770 630,-1400 1400,-1400zm0 1190l24219 0c115,0 210,94 210,210l0 24219c0,115 -94,210 -210,210l-24219 0c-115,0 -210,-94 -210,-210l0 -24219c0,-115 94,-210 210,-210z"/>
 </g>
</svg>
