<?xml version="1.0" encoding="UTF-8"?>
<!DOCTYPE svg PUBLIC "-//W3C//DTD SVG 1.1//EN" "http://www.w3.org/Graphics/SVG/1.1/DTD/svg11.dtd">
<!-- Creator: CorelDRAW X6 -->
<svg xmlns="http://www.w3.org/2000/svg" xml:space="preserve" width="94.9872mm" height="93.2656mm" version="1.1" shape-rendering="geometricPrecision" text-rendering="geometricPrecision" image-rendering="optimizeQuality" fill-rule="evenodd" clip-rule="evenodd"
viewBox="0 0 203 199"
 xmlns:xlink="http://www.w3.org/1999/xlink">
 <g id="Слой_x0020_1">
  <metadata id="CorelCorpID_0Corel-Layer"/>
  <path fill="#B3B3B3" d="M0 181l35 0 0 -99 -35 0 0 99zm47 -100l0 101 65 14c23,5 49,7 59,-8 7,-10 12,-29 21,-43 10,-16 12,-33 10,-43 -3,-17 -14,-19 -39,-24 -41,-9 -27,-16 -15,-44 2,-6 5,-16 3,-22 -6,-14 -14,-16 -22,-4 -22,28 -29,22 -58,53 -4,4 -18,17 -24,20z"/>
 </g>
</svg>
