<?xml version="1.0" encoding="UTF-8"?>
<!DOCTYPE svg PUBLIC "-//W3C//DTD SVG 1.1//EN" "http://www.w3.org/Graphics/SVG/1.1/DTD/svg11.dtd">
<!-- Creator: CorelDRAW X6 -->
<svg xmlns="http://www.w3.org/2000/svg" xml:space="preserve" width="87.089mm" height="149.319mm" version="1.1" shape-rendering="geometricPrecision" text-rendering="geometricPrecision" image-rendering="optimizeQuality" fill-rule="evenodd" clip-rule="evenodd"
viewBox="0 0 390 669"
 xmlns:xlink="http://www.w3.org/1999/xlink">
 <g id="Слой_x0020_1">
  <metadata id="CorelCorpID_0Corel-Layer"/>
  <path fill="#B3B3B3" d="M196 0c98,0 178,77 178,172 0,95 -80,172 -178,172 -98,0 -178,-77 -178,-172 0,-95 80,-172 178,-172zm-196 400c0,31 25,46 48,57 15,7 61,27 78,27 -7,10 -97,94 -104,106 -21,33 -1,79 45,79 25,0 47,-29 68,-50 9,-9 56,-54 60,-60 6,4 78,78 90,89 46,46 94,8 94,-31 0,-28 -28,-49 -51,-72 -9,-9 -57,-56 -61,-62 25,-2 86,-29 107,-45 29,-22 24,-89 -38,-89 -15,0 -22,7 -31,12 -70,41 -147,36 -217,1 -20,-10 -15,-13 -42,-13 -21,0 -46,24 -46,50zm196 -299c41,0 74,32 74,71 0,39 -33,71 -74,71 -41,0 -74,-32 -74,-71 0,-39 33,-71 74,-71z"/>
 </g>
</svg>
