<?xml version="1.0" encoding="UTF-8"?>
<!DOCTYPE svg PUBLIC "-//W3C//DTD SVG 1.1//EN" "http://www.w3.org/Graphics/SVG/1.1/DTD/svg11.dtd">
<!-- Creator: CorelDRAW X6 -->
<svg xmlns="http://www.w3.org/2000/svg" xml:space="preserve" width="74.5146mm" height="94.5538mm" version="1.1" shape-rendering="geometricPrecision" text-rendering="geometricPrecision" image-rendering="optimizeQuality" fill-rule="evenodd" clip-rule="evenodd"
viewBox="0 0 298 378"
 xmlns:xlink="http://www.w3.org/1999/xlink">
 <g id="Слой_x0020_1">
  <metadata id="CorelCorpID_0Corel-Layer"/>
  <path fill="#B3B3B3" d="M148 0c57,0 103,46 103,103 0,57 -46,103 -103,103 -57,0 -103,-46 -103,-103 0,-57 46,-103 103,-103zm-2 226c0,0 1,0 1,0 0,0 1,0 1,0l0 0c0,0 1,0 1,0 0,0 1,0 1,0 7,0 17,-3 24,-5 12,-3 24,-4 37,-3 46,4 86,47 86,93l0 19c0,26 -22,48 -48,48l-202 0c-26,0 -48,-22 -48,-48l0 -19c0,-47 40,-89 86,-93 13,-1 25,0 37,3 7,2 16,5 24,5zm-99 104l99 0 3 0 99 0 0 -19c0,-23 -23,-44 -42,-45 -21,-2 -34,8 -57,8l0 0c-1,0 -1,0 -2,0l0 0c-1,0 -1,0 -2,0l0 0c-23,0 -36,-10 -57,-8 -20,2 -42,22 -42,45l0 19zm100 -282c30,0 55,24 55,55 0,30 -24,55 -55,55 -30,0 -55,-24 -55,-55 0,-30 24,-55 55,-55z"/>
 </g>
</svg>
