<?xml version="1.0" encoding="UTF-8"?>
<!DOCTYPE svg PUBLIC "-//W3C//DTD SVG 1.1//EN" "http://www.w3.org/Graphics/SVG/1.1/DTD/svg11.dtd">
<!-- Creator: CorelDRAW X6 -->
<svg xmlns="http://www.w3.org/2000/svg" xml:space="preserve" width="92.7715mm" height="92.9895mm" version="1.1" shape-rendering="geometricPrecision" text-rendering="geometricPrecision" image-rendering="optimizeQuality" fill-rule="evenodd" clip-rule="evenodd"
viewBox="0 0 523 524"
 xmlns:xlink="http://www.w3.org/1999/xlink">
 <g id="Слой_x0020_1">
  <metadata id="CorelCorpID_0Corel-Layer"/>
  <path fill="#B3B3B3" d="M209 0c115,0 209,94 209,209 0,46 -15,88 -40,123l145 145 -48 48 -145 -145c-34,24 -76,39 -121,39 -115,0 -209,-94 -209,-209 0,-115 94,-209 209,-209zm0 68c78,0 141,63 141,141 0,78 -63,141 -141,141 -78,0 -141,-63 -141,-141 0,-78 63,-141 141,-141z"/>
 </g>
</svg>
