<?xml version="1.0" encoding="UTF-8"?>
<!DOCTYPE svg PUBLIC "-//W3C//DTD SVG 1.1//EN" "http://www.w3.org/Graphics/SVG/1.1/DTD/svg11.dtd">
<!-- Creator: CorelDRAW X6 -->
<svg xmlns="http://www.w3.org/2000/svg" xml:space="preserve" width="94.887mm" height="69.6502mm" version="1.1" shape-rendering="geometricPrecision" text-rendering="geometricPrecision" image-rendering="optimizeQuality" fill-rule="evenodd" clip-rule="evenodd"
viewBox="0 0 639 469"
 xmlns:xlink="http://www.w3.org/1999/xlink">
 <g id="Слой_x0020_1">
  <metadata id="CorelCorpID_0Corel-Layer"/>
  <path fill="#B3B3B3" d="M639 58l0 81 -71 0c-15,34 -50,58 -89,58 -40,0 -74,-24 -89,-58l-389 0 0 -81 389 0c15,-34 50,-58 90,-58 40,0 74,24 90,58l70 0zm-639 273l0 81 71 0c15,34 50,58 89,58 40,0 74,-24 89,-58l389 0 0 -81 -389 0c-15,-34 -50,-58 -90,-58 -40,0 -74,24 -90,58l-70 0zm160 0c-22,0 -40,18 -40,40 0,22 18,40 40,40 22,0 40,-18 40,-40 0,-22 -18,-40 -40,-40zm319 -273c22,0 40,18 40,40 0,22 -18,40 -40,40 -22,0 -40,-18 -40,-40 0,-22 18,-40 40,-40z"/>
 </g>
</svg>
