<?xml version="1.0" encoding="UTF-8"?>
<!DOCTYPE svg PUBLIC "-//W3C//DTD SVG 1.1//EN" "http://www.w3.org/Graphics/SVG/1.1/DTD/svg11.dtd">
<!-- Creator: CorelDRAW 2017 -->
<svg xmlns="http://www.w3.org/2000/svg" xml:space="preserve" width="164.735mm" height="164.801mm" version="1.1" shape-rendering="geometricPrecision" text-rendering="geometricPrecision" image-rendering="optimizeQuality" fill-rule="evenodd" clip-rule="evenodd"
viewBox="0 0 2032.85 2033.67"
 xmlns:xlink="http://www.w3.org/1999/xlink">
 <g id="Слой_x0020_1">
  <metadata id="CorelCorpID_0Corel-Layer"/>
  <path fill="#B3B3B3" d="M810.97 1993.59c16.76,-0.87 13.99,-4.62 26.53,-9.82 3.34,8.42 -0.8,13.74 -9.03,15.84 -0.32,0.08 -10.62,0.06 -10.83,0.02 -9.36,-1.6 -4.66,1.74 -6.67,-6.05zm763.44 -1728.22l6.54 -3.33c-4.99,-6.16 -4.53,-5.68 -11.83,-7.52 2.41,9.64 0.13,5.27 5.28,10.85zm-133.74 265.31c2.65,7.49 0.43,5.08 6.46,7.86 5.03,-3.94 5.21,-3.42 2.44,-10.43l-8.9 2.57zm-1082.27 -188.53c6.41,3.99 4.27,3.67 12.04,1.6l1.3 -12.96 -13.34 11.36zm1193 387.03c8.04,-4.53 6.09,0.27 5.34,-6.7 -0.46,-4.27 -4.92,-7.06 -6.97,-8.53 -3.95,7.79 -5.17,8.37 1.63,15.23zm-417.68 660.44l9.91 8.34 1.14 -20.42c-6.31,3.56 -8.02,5.62 -11.04,12.08zm-24.9 292.42l11.12 -5.06c0.64,-10.61 1.11,-9.36 -7.44,-13.48l-3.69 18.54zm458.09 -396.55c3.08,-7.16 1.42,-13.85 2.07,-21.35 -3.19,3.45 -11.68,11.88 -9.21,17.24 3.11,6.74 6.93,4.05 7.14,4.11zm-466.5 -1260.06c15.28,7.1 18.61,-4.46 10.25,-13.84l-10.25 13.84zm31.31 1466.67l6.92 10.35c4.18,-5.71 5.18,-13.42 2.55,-20.85 -7.72,1.21 -5.56,2.6 -9.47,10.49zm437.56 -227.74c10.88,-3.23 13.23,-7.04 12.64,-18.73 -10.45,1.99 -12.31,8.17 -12.64,18.73zm-24.62 45.89c12.87,0.55 22.09,-12.76 11.37,-19.73 -3.99,3.24 -11.2,13.01 -11.37,19.73zm-1118.99 -426.05c6.13,-5.83 4.37,-6.64 6.54,-15.74 2.6,-10.93 4.17,-9.77 -5.54,-15.05 -7.79,8.17 -7.14,21.22 -0.99,30.8zm1093.92 -214.23l-3.98 2.51c12.11,16.36 15.12,29.61 25.07,31.26 1.25,-11.03 -7.61,-26.77 -19.11,-27.77l-1.98 -6 3.79 -0.67c-10.6,-18.29 -28.88,-39.55 -42.62,-55.98 -7.21,-8.62 -7.98,-13.74 -18.7,-10.88 2.72,6.94 30.5,37.58 40.74,51.85 15.3,21.29 8.76,4.18 16.79,15.69zm-648.25 -9.47l15.44 -15.28 -9.44 -15.98c-6.15,3.52 -2.96,-2.54 -5.82,5.23l-0.18 26.04zm268.88 803.93c4.04,-2.91 8.67,-8.73 11.79,-12.32 -8.68,-7.58 -13.21,-11.87 -24.24,-4.38 1.34,10.7 4.86,8.12 12.45,16.7zm219.75 -948.37l4.47 -4.56c-3.13,-6.72 -36.88,-27.1 -44.45,-29 5.27,9.03 29.16,28.03 39.98,33.56zm-219.87 1091.81c4.23,8.25 5.56,5.39 16.56,3.23 8.53,-1.67 15.8,-3.46 24.04,-6.35 -3.41,-2.67 -5.95,-5.05 -8.95,-7.78 -10.04,2.58 -24.69,3.35 -31.65,10.9zm-51.86 -1567.74c-10.57,0.61 -5.94,-5.94 -12.45,2.18 1.89,8.75 12.55,9.01 31.55,8.63 -2.31,-10.15 -5.64,-18.65 -15.45,-22.44 -6.06,7.67 -2.17,1.12 -3.64,11.62zm400.79 721.66c-7.13,-9.97 -19.05,-9.87 -27.57,-11.94 -18.6,-7.75 -117.87,22.67 -136.65,34.12l51.13 190.61c3.14,8.45 2.22,1.58 4,11.85l12.11 47.14 48.61 -20.07 -20.23 -77.9c18.14,-7.67 77.75,-19.43 83.38,-39.77l4.06 -6.53c29.65,-14.29 2.11,-105.71 -18.83,-127.49zm-345.36 673.08c3.33,6.54 10.61,11.31 16.4,16.45l27.14 -9.3 -33.28 -15.26 -10.26 8.11zm-337.12 -241.66l28.91 -6.25 -9.91 -10.05c-8.36,5.76 -6.94,10.45 -16.18,8.24 3.43,-2.83 8.22,-3.34 10.67,-7.43 4.92,-8.2 -0.92,-5.99 1.57,-12.91 6.57,7.97 4.21,6.61 14.8,9.94 15.14,4.75 17.91,15.27 65.88,-8.34 31.2,-15.36 40.51,-34.27 34.46,-69.18 -17.6,-101.58 -50.28,-92.58 -132.1,-68.17l-16.42 4.89 -15.34 -56.7c18.17,-5.24 36.16,-9.89 54.18,-14.65l39.04 -10.32c11.87,-3.37 9.12,-0.82 11.37,-7.74l-8.91 -34.09 -3.18 -5.97 -24.54 6.75 -2.39 6.43c-7.04,-1.12 0.11,1.82 -8.04,-3.18l-1.46 3.59c-8.09,4.7 -17.26,10.04 -27.06,11.31l7.17 -9.28 -48.96 11.49c-0.11,2.8 -1.79,2.09 0.4,6.96 3.85,8.53 12.66,5.64 18.81,2.8 -7.08,6.76 -2.25,3 -2.04,6.53 7.89,2.78 15.9,4.04 21.85,9.35l-8.85 -1.7c-0.25,6.14 -0.97,-0.76 0.47,3.23 2.92,8.14 0.15,-5.52 0.73,1.37 -10.28,-1.66 -5.32,-2.18 -12.46,-5.71 -3.92,-1.94 -12.88,-4.7 -16.76,-5.38 -14.85,-12.71 -32.56,-9.48 -52.47,-2.89l67.5 251.82 29.23 -4.78zm693.25 195.44c10.1,-5.14 46.9,-59.51 47.45,-70.44 -13.04,3.59 -32.29,35.78 -39.87,49.14 -6.05,10.65 -9.61,7.13 -7.57,21.3zm-444.01 -1301.95c10.64,1.65 17.49,-0.34 26.87,1.18 8.92,1.45 18.84,3.27 27.71,1.74 -3.3,-4.9 0.06,-2.21 -7.48,-5.4 8.19,-4.84 4,-0.09 4.94,-7.66l-58.71 -3.59 6.67 13.74zm-680.72 736.12c4.75,4.32 0.88,1.64 8.55,3.89 1.23,9.01 0.22,4.86 -0.02,12.8l8.68 -0.95c0.49,9.07 -6.65,10.8 6.54,16.03 2.86,-17.72 8.94,-19.24 1.96,-36.17l-10.39 -3.22 -5.93 -15.41c-5.46,4.58 -8.01,15.95 -9.39,23.02zm329.3 -334.2c5.83,2.67 5.79,3.62 10.95,1.1l85.06 -40.96c-6.89,-7.31 -9.77,-5.22 -24.39,1.39 -16.22,7.33 -65.3,27.67 -71.63,38.48zm752.7 101.44c-5.2,-10.4 -76.37,-79.6 -92.31,-74.66 1.89,9.4 34.53,30.64 44.3,38.71 7.69,6.35 14.39,12.61 21.72,19.31 9.91,9.06 14.05,18.87 26.29,16.64zm-173.71 388.04c-2.64,7.85 1.36,11.25 -0.22,22.84 -0.97,7.11 -3.92,11.63 -6.61,17.3 -17.08,5.16 -40.11,21.21 -58.81,10.73 -19.7,-11.04 -38.41,-95.09 -42.27,-117.57 -3.88,-22.58 -6.77,-31.44 10.19,-46.98 14.75,-5.25 23.64,-9.42 39.9,-9.84 16.71,-0.43 16.2,7.62 26.45,15.07 0.51,4.85 14.91,50.86 17.36,57.3 8.73,22.87 2.67,-3.91 5.88,21.55 1.2,9.51 3.62,21.81 8.13,29.59zm-163.2 -89.65c-3.52,26.92 25.24,125.71 38.49,151.37 28.27,54.77 70.62,44.3 122.62,26.95 58.79,-19.62 62,-51.33 50.47,-108.59 -6.23,-30.93 -30.63,-127.15 -56.7,-140.85 -24.58,-23.31 -73.07,-7.27 -102.15,1.97 -8.71,5.48 -2.26,3.6 -9.27,5.89 -4.53,1.47 -5.22,0.05 -11.77,3.51 -7.5,3.96 -10.43,9.04 -16.91,14.12 -9.71,7.61 -14.66,24.68 -16.14,37.71l1.35 7.92zm-532.8 -300.54c9.78,-4.82 38.79,-34.27 51.14,-43.97l41.69 -30.81c9.68,-6.39 10.62,-4.17 8.66,-13.4 -3.29,-0.87 2.23,-3.97 -8,0.95l-49.8 37c-8.68,6.83 -17.73,13.92 -25.86,21.57 -4.06,3.82 -7.86,7.55 -12.14,11.39 -8.66,7.78 -8.89,6.85 -5.69,17.27zm1031.21 320.36c4.34,-14.81 -11.79,-62.68 -17.12,-79.96 -5.91,-19.13 -6.56,-7 -9.14,-23.3 -1.42,-8.98 -10.44,-39.06 -18.92,-39.92 -4.44,9.24 15.25,51.36 21.96,74.21 4.23,14.4 5.98,24.87 12.49,38.08 3.3,6.7 -4.92,25.97 10.74,30.88zm-818.34 -466.29c8.65,10.65 33.26,-4.31 66.28,-12.61 23.98,-6.02 51.06,-9.05 73.17,-15.06 -6.11,-11.59 -16.61,-6.3 -29.64,-3.84 -12.75,2.41 -24.57,4.73 -37.26,7.8 -17.2,4.17 -61.1,13.18 -72.55,23.7zm684.25 103.18c-20.47,5.99 -5.92,-8.76 -21.16,-6.37 -0.16,7.45 1.12,0.57 5.39,10.59l-19.43 -4.54c4.95,8.73 7.58,5.69 17.68,16.19 7.92,8.22 7.04,3.31 15,8.95 7.02,4.97 18.11,17.39 20.03,25.04 2.16,8.65 -1.63,3.13 4.66,11.99l10.84 -14.8c-7.02,-22.36 -20.51,-13.93 -25.9,-36.76 7.06,3.08 3.45,2.68 10.27,0.46l-27.41 -26.5c1.95,8.68 4.73,6.64 10.04,15.75zm-505.85 1081.92c52.06,-1.17 99.56,2.86 151.55,-10.34l2.78 -10.38c-29,3.46 -54.95,8.4 -83.67,9.57 -23.01,0.94 -59.89,-2.33 -79.02,-0.01l8.35 11.15zm-90.49 -1531.55l75.97 -7.55c11.68,-1.1 9.09,-5.19 23.37,-8.78 8.73,8.87 14.85,14.58 20.22,-1 7.67,10.44 0.51,8.15 33.34,8.34 0.87,-5.88 2.05,-8.41 2.78,-13.38 -28.96,-1.44 -140.8,1.3 -160.85,10.88l5.18 11.49zm205.79 1336.18c-4.77,15.01 -14.84,23.19 -18.01,34.15 8.18,4.37 4.71,0.81 7.87,1.19 10.55,1.28 -4.38,1.37 9.92,4.04 12.49,-10.18 -5.03,1.14 10.37,-14.99 13.25,-13.87 12.2,-16.48 18.03,-24.31l10.99 2.15c1.51,-3.61 2.93,-7.81 3.93,-9.8 4.48,-8.98 2.66,1.07 4.39,-8.73 -6.86,-5.67 -5.99,-7.27 -14.21,-4.07 -2.24,6.72 -0.85,5.41 1.4,13.33 -5.42,-3.38 -1.43,-0.04 -5.02,-4.5 -1,-1.24 -1.5,-3.16 -3.68,-6.07l-9.81 5.12c-7.95,-12.97 -18.78,-16.36 -40.59,-19.49 5.24,10.69 14.12,29.64 24.44,31.97zm-402.96 445c0.41,0.62 0.3,6.3 0.29,6.33 -7.32,-5.43 -11.73,-1.52 -15.53,4.96 7.49,5.2 18.68,9.81 27.64,8.61 3.08,-4 3.01,-6.21 3.98,-10.41 46.13,21.77 -30.87,7.72 61.12,33.67 7.41,2.09 15.05,3.89 22.2,5.95 13.97,4.01 9.46,3.77 17.96,-2.75 0.27,8.1 -2.65,1.8 2.89,8.53l19.64 -3.37c-0.38,-7.56 -5.49,-12.71 -13.78,-14.02 -12.5,-1.97 -11.09,3.53 -18.51,6.64 -15.22,-7.13 -1.65,-11 -24.71,-17.18l-83.21 -26.97zm889.84 -641.52c15.85,-7.09 19.55,-29.65 26.34,-53.23 5.8,-20.14 10.11,-40.85 13.95,-61.25 5.98,-31.72 8.46,-64.83 9.17,-97.17 0.31,-14.14 2.53,-25.37 -7.58,-33.97 9.63,-9.03 6.94,-6.57 5.18,-27.59 -0.93,-11.1 -0.44,-24.67 -10.31,-29.81 -2.11,8.16 3.78,66.76 3.59,82.86 -0.3,26.61 -1.59,51.13 -5.13,77.33 -1.55,11.5 -17.83,99.14 -22.5,107.18 -5.77,9.94 -12.07,23.71 -12.71,35.65zm-759.75 -1048.85l2.38 12.21 28.18 -4.61c10.14,21.9 11.74,72.5 20.48,98.08l14.76 -1.94c3.65,-22.88 -19.29,-78.24 -15.17,-99.55l27.74 -6.18 -2.51 -13.7c-7.26,-0.69 -69.1,9.35 -75.86,15.7zm902.24 378.43l13.67 27.05 -86.81 49.61 7.26 14.13c19.41,-5.06 65.92,-38.76 88.75,-48.78l14.22 25.06 13.4 -6.41c-3.94,-10.14 -33.28,-61.88 -38.85,-66.73l-11.63 6.07zm215.29 311.92c-4.82,5.45 -6.99,6.16 -0.46,13.22 2.3,2.49 8.9,8.81 11.36,9.99 2.58,-17.81 -13.4,-74.55 -16.66,-98.62 -10.78,-3.43 -6.99,4 -10.46,-5.45 4.06,-3.88 -0.59,-2.25 8.14,0.42 -2.6,-29.57 -23.86,-88.41 -34.92,-117.78l-12.74 2.86c2.09,7.12 5.85,14.06 9.02,20.09l33.64 129.34c3.7,19.11 4.87,41.81 13.08,45.93zm-216.33 342.68c9.11,4.89 84.74,25.84 96.07,27.25l-6.58 29.49 12.98 4.57c5.34,-8.29 18.64,-60.85 21.64,-73.48 -5.48,-3.59 -6.81,-4.16 -14.2,-3.61l-8.44 26.62c-25.84,-3.85 -77.53,-25.19 -97.83,-24.97l-3.63 14.13zm-774.59 -810.13c9.01,8.14 33.31,1.86 46.05,1.37 93.01,-3.59 165.37,10.45 251.83,44.11 4.38,1.71 33.41,17.9 36.66,12.89 1.46,-6.66 -3.39,-8 -11.79,-11.77 -6.03,-2.71 -13.31,-5.35 -19.15,-7.93 -12.43,-5.5 -25.89,-10.7 -38.87,-14.86 -28,-8.99 -54.11,-16.07 -82.49,-21.56 -14.76,-2.86 -28.72,-4.79 -43.46,-6.46 -33.53,-3.78 -13.47,-2.3 -32.35,-0.43 -6.42,0.64 0.07,-0.85 -9.7,-2.89 -8.66,-1.8 -37.02,-0.77 -47.15,-0.38l-36.32 2.23c-0.46,0.05 -6.25,0.82 -6.26,0.82 -7.71,2.64 4.72,-3.23 -3.83,1.87l-3.17 3zm-513.6 443.94c6.6,-6.45 8.73,-23.23 12.2,-33.18 4.08,-11.73 8.35,-23.21 13,-34.46 46.36,-112.18 108.48,-168.49 115.26,-183.25l-7.72 -4.1c-52.46,49.22 -107.1,147.72 -130.55,217.92 -5.27,15.79 -11.4,23.27 -2.19,37.08zm385.12 294.09c-4.56,-11.27 -19.3,-63.76 -19.28,-74.14 56.15,-19.31 69.32,-23.92 80.53,18.74 13,49.46 -19.3,46.46 -61.25,55.41zm179.29 -872.65l-0.52 -13.16c-24.92,5.58 -48.1,15.16 -53.95,-15.7 -17.18,-90.63 24.39,-62.13 47.99,-67.38l-1.04 -12.34c-14.37,-5.66 -43.29,-4.89 -55.81,5.07 -19.5,15.5 -11.52,94.16 5.48,106.58 13.11,9.58 43.48,2.61 57.86,-3.07zm186.36 1328.01c6.94,-0.17 14.87,-2.22 21.77,-4.86 10.67,-4.08 6.86,-4.86 15.19,-12.44l2.92 5.83c47.28,-14.36 102.17,-46.36 142.38,-73.18 30.75,-20.51 84.9,-65.98 106.7,-95.17l-8.02 -4.57c-37.76,38.96 -76.28,75.28 -123.5,104.17 -47.09,28.81 -89.62,51.21 -142.83,66.6 -13.13,3.8 -16.17,0.71 -14.62,13.62zm334.88 -1011.84c6.75,6.25 7.09,2.14 6.91,12.56l-9.25 -3.32 -7.31 9.83c8.8,11.62 19.62,33.76 35.85,29.3 -0.53,-4.17 -1.26,-5.07 -1.44,-6.24 -0.74,-4.94 -1.16,-3.63 -0.34,-7.7 5.76,1.68 8.95,2.13 13.16,13.68 -7.61,2.78 -10.4,3.13 -16.06,8.88 1.14,4.11 34.97,61.14 39.23,67.35l11.38 -1.02c-6.03,-9.49 -0.05,-2.15 -9,-7.14 7.54,-9.03 8.08,-5.67 14.38,-12.03 -5.09,-7.2 1.53,-0.31 -9.52,-3.62l9.82 -9.58 -18.57 -30.18c-9.37,-1.27 7.86,0.01 -3.52,0.43 -4.8,0.18 -1.03,1.32 -5.37,-0.4 3.58,-14 2.57,-11.73 -19.2,-39.61 -7.24,-9.28 -20.42,-27.54 -28.66,-34.85l-2.49 13.65zm-174.33 767.37c-17.28,2.59 -11.7,-4.3 -16.56,-12.09 -14.34,2.24 -9.88,8.46 -17.38,0.05 4.3,-5.6 5.55,-6.53 12.58,-8.81 7.41,4.9 18.22,12.72 21.36,20.85zm-11.12 -32.5c-4.66,-2.76 -4.51,-3.6 -9.88,-3.58l-8.66 9.49 -35.96 -10.09c4.05,10.07 15.78,30.5 20.98,38.26l-12.39 8.71c3.76,8.53 4.49,1.48 8.95,9.42 -11.33,0.95 -14.08,-5.65 -16.76,7.8l34.61 -6.73 22.23 28.6c7.28,-9.62 1.75,-25.03 7.1,-37.25 9.63,-3.92 21.96,-5.64 29.27,-12.52 -4.04,-9.09 -17.92,-10.12 -28.32,-15.88 -3.8,-12.54 -1.72,-25.94 -3.01,-39.06 -7.8,6.46 -3.9,1.74 -6.37,15.03l-1.28 5.7c-0.12,0.53 -0.31,1.39 -0.5,2.08zm-1144.06 -106.42l12.61 -2.67c-3.78,-16.84 -10.01,-23.78 -9.51,-42.36 32.19,-20.1 33.66,4.88 40.52,26.6l11.18 -1.33c2.04,-11.05 -5.06,-24.67 -0.95,-34.34 4.37,-10.29 20.72,-12.69 29.65,-8.23 11.63,11.12 8.87,31.44 10.81,46.41l13.74 -3.44c1.19,-16.16 -2.13,-50 -17.08,-59.15 -15.89,-9.72 -43.91,-2.24 -49.87,19 -7.63,-2.51 -10.07,-8.81 -21.6,-8.8 -44.89,0.04 -35.07,43.62 -19.53,68.32zm1189.3 -956.79c13.02,8.27 28.39,7.06 37.69,20.42 0.4,9.16 -6.22,22.47 -15.81,24.18 -12.08,2.16 -18.29,-9.71 -30.8,-9.34l-5.26 7.82c7,10.61 45.3,18.06 22.31,44.02 -16.79,18.95 -36.5,-11.95 -51.76,-14.84l-4.65 12.78c24.15,19.28 57.32,41.35 74.98,5.41 7.52,-15.3 6.64,-18.62 -1.7,-32.83 14.28,-3.27 16.92,-3.98 24.55,-16.09 23.44,-37.2 -28.72,-51.41 -43.43,-52.68l-6.12 11.14zm-611.38 57.6l65.59 -19.61 -3.52 -14.74 -50.24 15.05 -11.01 -35.94 37.08 -11.1 -3.42 -14.45 -37.75 11.52 -9.65 -31.69 47.32 -14.84 -3.53 -13.56 -64.11 18.18 33.24 111.18zm141.57 1120.55l-37.23 -9.71 18.95 33.11 -21.36 32.28 37.6 -7.94 23.86 29.61 4.74 -37.69c15.98,-6.83 15.79,-8.87 25.62,-10.58 5.52,-0.96 3.64,-0.04 9.42,-2.53 -4.14,-5.45 -26.14,-13.51 -33.73,-14.75l-1.96 -39.48 -25.91 27.69zm632.76 -1020.07c3.64,-8.82 21.05,-25.8 28.61,-31.86 9.58,4.47 19.69,14.31 23.22,24.86 -3.05,14.01 -13.91,24.15 -28.92,26.81l-22.9 -19.81zm-52.72 29.72l10.73 11.97 30.62 -31.08c20.54,12.58 36.69,47.71 73.7,3.29 12.45,-14.95 9.56,-25.67 -3.63,-39.58 -7.88,-8.32 -23.9,-22.33 -33.54,-27.62l-77.88 83.02zm-846.15 -202.3l45.38 105.49 63.01 -26.85 -4.59 -13.2c-16.22,1.89 -33.44,13.64 -49.28,18.85l-14.33 -33.74 35.86 -15.72 -6.22 -13.55 -34.22 14.69c-0.63,-0.82 -1.5,-2.16 -1.54,-1.79 -0.04,0.35 -1.04,-1.07 -1.31,-1.46l-5.22 -10.17c-2.3,-5.4 -4.56,-10.39 -6.38,-16l44.72 -19.89 -4.53 -13.34c-9.31,1.11 -54.04,20.89 -61.34,26.67zm-307.34 249.21c5.5,7.59 78.38,67.21 89.01,73.74l43.6 -51.3 -10.91 -10.64 -34.12 40.6 -27.38 -24.02c5.86,-11.71 19.83,-20.05 22.67,-32.29l-7.48 -6.99c-11.13,4.08 -17.84,19.73 -27.1,27.98 -8.58,-3.13 -20.78,-12.87 -24.39,-20.97l29.82 -37.3 -11.43 -9.58 -42.29 50.77zm1408.58 616.54l51.74 8.85c-8.95,13.3 -42.03,20.75 -56.83,29.67l-4.22 19.15 65.41 -29.85c7.5,7.49 43.17,42.14 49.64,44.78l3.45 -18.47c-11.82,-10.61 -40.29,-30.3 -45.17,-42.98l49.78 7.04 3.47 -16.07 -113.77 -18.41 -3.5 16.28zm-1058.26 -449.47l-35.5 11.17c4.57,6.04 24.69,13.26 33.19,18.73l-0.13 37.84 27.13 -26.41 36.4 11.23 -17.21 -35.12c6.07,-6.96 22.11,-23.54 21.23,-30.74l-36.9 6.66c-4.87,-8.35 -13.65,-23.74 -21.38,-28.26 -4.62,10.53 -3.18,23.5 -6.82,34.89zm1142.75 154.38c10.81,20.53 11.93,36.48 -13.28,41.51 -24.71,4.93 -25.12,-12.8 -28.85,-33.14l42.12 -8.37zm-99.21 20.38l41.86 -8.69c13.47,29.5 5.84,58.63 55.24,45.4 40.56,-10.87 20.6,-46.42 12.1,-77.75 -15.18,2.44 -103.71,21.03 -112.5,25.92l3.3 15.12zm-636.18 -284.72l-36.43 11.9 33.28 17.41 0.56 38.09c11.11,-6.46 17.9,-19.19 28.55,-25.49l35.23 11.57 -17.1 -34.24c4.89,-8.53 21.76,-24.76 21.34,-32.14l-36.23 6.49 -21.89 -29.83c-5.79,9.18 -4.07,24.52 -7.32,36.25zm-992.21 622.22c-9.94,12.91 -11.47,0.12 -5.86,24.65 2.67,11.67 5.11,23.32 8.01,34.95 4.84,19.43 16.35,50.56 18.83,67.07 11.54,2.13 14.98,0.99 18.67,11 -5.38,-0.53 -7.62,-1.41 -13.34,1.18l7.54 25.7 15.51 2.69 7.93 15.1c-12.62,-3.12 -0.57,1.47 -8.96,-6.59 -5.05,-4.85 -1.21,-4.34 -9.28,-1.99 0.88,9.29 14.83,39.84 19.11,49.02 10.01,3.41 0.95,-2.7 7.22,0.41 6.15,3.05 -4.79,2.75 8.28,5.57 4.53,-9.53 -0.58,-18.13 -6.71,-28.18 -13.25,-21.73 -44.72,-131.26 -51.59,-160.74l-14.37 -67.78c-5.09,-2.78 -3.59,-0.55 -7.94,-4.03 -6.3,-5.04 1.34,-2.74 -7.75,-6.38 -5.36,23.22 10.65,33.39 14.7,38.34zm89.38 -379.19l109.02 32.57c6.72,-9.82 20.01,-55.83 20.15,-67.43l-12.78 -2.33 -15.53 48.12 -34.43 -9.31c-1.35,-12.23 8.65,-25.58 8.28,-40.11l-12.53 -2.18 -11.32 35.37c-9.62,0.48 -22.98,-3.93 -31.3,-8.4 2.44,-15.73 11.92,-31.6 12.28,-47.29l-13.06 -4.14c-5.58,13.99 -18.58,52.2 -18.78,65.14zm154.59 653.74c10.65,8.84 13.48,12.06 20.65,24.71 -7.65,9.24 -24.67,19.89 -36.5,24.98 -3.72,-6.79 -38.92,-41.33 15.85,-49.69zm-16.36 71.21c11.33,-3.89 82.13,-53.17 95.36,-63.42 -2.1,-6.49 -4.69,-10.68 -9.88,-13.85l-35.63 23.32c-18.5,-33.29 -37.06,-47.38 -70.97,-19.94 -15.78,12.77 -15.42,22.14 -4.47,40.2 5.68,9.36 17.94,26.28 25.58,33.69zm1420.33 -441.92l14.47 1.22 2.85 -51.5 35.83 0.87 -0.49 39.74 14.59 0.5c3.42,-12.06 -1.54,-29.04 3.93,-39.04l29.53 0.76c3.41,14.56 -5.8,40.22 2.63,50.62l11.68 0.03c3.16,-10.98 4.8,-55.7 2.61,-67.3l-114.57 -4.84c-2.98,9.36 -4.66,58.38 -3.07,68.95zm-1588.88 -69.9c31.23,-0.91 92.42,8.12 117.63,3.38l2.15 -67.93 -15.99 -1.14 -2.3 51.66 -36.21 -1.2c-0.99,-13.03 2.72,-27.34 -0.39,-39.84l-13.41 -0.37 -2.52 39.03 -31.33 -0.93 0.94 -49.61 -15.69 -1.47 -2.88 68.41zm191.46 542.3l49.03 56.84 87.07 -75.92 -10.81 -13.26 -75.06 65.93 -27.05 -29.35 73.97 -67.33 -9.33 -12.74 -87.82 75.82zm1343.24 -823.27l4.78 15.87 95.15 -33.28 13.69 38.14 -93.74 34.22 4.38 15.76 108.69 -38.3c-0.74,-11.98 -18.65,-56.9 -24.02,-70.8l-108.92 38.38zm-1195.37 946.97c1.39,-9.09 15.93,-43.24 21.59,-50.3 7.22,4.14 16.8,10.8 21.67,17.32 -6.53,8.34 -33.1,28.31 -43.26,32.97zm-19.4 2.41l20 17.43c11.27,-5.76 91.86,-65 96.53,-71.94l-11.79 -10.21c-10.03,5.35 -18.39,15.58 -29.43,19.08l-28.39 -22 12.05 -31.45 -12.02 -11.06c-6.62,6.21 -42.25,95.61 -46.95,110.16zm-170.53 -47.04l10.4 -13.49c-17.07,-21.55 -34.01,-40.92 -50.08,-62.86 -3.74,-5.1 -8.16,-12.38 -12.05,-16.87 -3.98,-4.58 -4.68,-3.93 -6.3,-6.6 -3.42,-5.65 -12.41,-31.54 -29.15,-38.58 6.22,-7.23 -8.35,-24.33 -18.44,-42.68 -8.21,-14.93 -15.04,-30.72 -23.21,-45.52l-3.48 8.88c-5.97,-5.54 -7.43,-6.83 -14.95,-9.32 14.08,37.71 45.89,90.68 68.11,124.17 14.78,22.28 60.59,88.92 79.16,102.88zm1605.32 -385.82l11.25 1.87c6.58,-15.55 11.92,-48.91 15.14,-66.32l7.98 -50.39c1.43,-13.73 -1.43,-9.41 -4.81,-19.01l8.24 -5.88 3.77 -100.39c0.1,-17.52 -0.49,-34.97 -1.94,-52.44 -2.72,-32.93 1.36,-47.97 -15.93,-47.85 -0.92,4.75 7.57,120.49 1.7,178.52 -2.87,28.39 -5.3,53.56 -10.13,81.78 -2.49,14.54 -16.74,71.32 -15.27,80.1zm-1668.82 -599.49l41.39 18.42c-0.31,6.62 -11.57,30.49 -14.92,37.3 -13.58,1.75 -31.4,-14.11 -46.66,-15.85l-4.63 13.21c4.86,5.02 96.24,46.57 105.02,47.83l7.29 -13.48 -46.72 -22.04c-0.13,-8.23 10.94,-30.39 15.15,-38.23 9.98,-0.05 36.87,15.58 48.59,19.42 3.77,-5.73 6.18,-8.45 5.65,-16.2 -11.38,-6.12 -97.61,-44.74 -105,-44.79 -0.84,1.96 -2.33,4.88 -3.05,6.61 -2.83,6.83 -1.66,1.64 -2.11,7.8zm305.17 1084.8c4.8,5.7 7.11,7.09 14.33,8.3l23.82 -39.31 35.98 20.29c-1.99,10.81 -15.73,30.02 -21.77,40.72l13.52 9.16c6.92,-8.08 56.29,-92.96 57.78,-100.05l-13.75 -8.27 -25.29 44.3c-10.89,-2 -26.68,-14.51 -37.62,-20.03l25.67 -45.31c-5.84,-5.96 -7.97,-7.86 -15.56,-8.16l-57.11 98.36zm1295.56 -770.57c-14.76,8.01 -46.2,10.54 -63.33,9.93 -32.73,-1.16 -22.71,-37.61 -17.6,-41.57 1.92,-1.49 107.12,-34.33 80.92,31.64zm-91.2 -45.38c-16.97,12.2 -13.97,62.34 11.91,70.29 17.3,5.31 74.33,0.33 88.53,-10.2 15.41,-11.43 13.07,-61.69 -11.4,-69.86 -17.28,-5.77 -74.66,-0.57 -89.04,9.77zm-1405.85 455.45c-6.08,13.22 -25.28,20.01 -38.57,26.61 -17.84,8.86 -32.54,19.6 -44.43,-1.31 -12.49,-21.96 -4.3,-27.03 15.02,-37.48 15.61,-8.43 33.37,-18.25 51.13,-19.63 10.08,8.54 16.17,17.87 16.85,31.81zm-50.24 -39.41c-23.73,11.48 -63.82,22.98 -53.07,55.98 12.4,38.08 28.36,46.41 65.28,28.82 23.85,-11.37 61.84,-24.08 52.23,-55.75 -11.73,-38.62 -29.1,-46.15 -64.44,-29.06zm1163.15 -921.44c-64.84,-12.91 12.44,-85.05 20.14,-85.85 7.23,-0.75 20.74,8.38 24.78,14.01 12.68,17.65 -30.92,67.91 -44.92,71.84zm3.63 -97.36c-14.25,9.88 -43.03,50.8 -47.48,66.18 -7.49,25.91 37.52,59.24 61.25,42.55 13.45,-9.46 43.12,-51.45 47.16,-65.84 5.05,-17.98 -6.06,-27.9 -19.58,-37 -13.8,-9.3 -25.04,-17.2 -41.36,-5.89zm-237.69 -94.88c-0.11,12.32 -8.47,45.09 -13.17,56.72 -8.99,22.23 -44.82,13.79 -44.97,-7.52 -0.07,-10.91 9.01,-45.38 13.29,-56.32 8.81,-22.52 45.03,-12.7 44.85,7.12zm-47.38 -31.15c-17.62,13.06 -25.16,54.63 -27.2,76.25 -4.27,45.22 54.36,42.94 65.12,35.83 14.31,-9.46 24.88,-59.06 26.23,-76.34 1.54,-19.68 -3.15,-28.52 -21.75,-34.73 -13.3,-4.44 -31.07,-9.4 -42.39,-1.01zm533.11 1104.51c11.26,-9.65 75.43,13.63 77.71,32.1 0.86,7 -5.55,22.78 -11.18,26.75 -11.49,8.1 -75.08,-15.24 -77.64,-32.06 -1.41,-9.28 5.12,-21.65 11.11,-26.79zm-9.19 -14.32c-14.25,14.67 -34.01,52.58 4.99,71.5 45.94,22.29 84.39,42.06 97.94,-20.96 4.11,-19.11 -8.17,-26.75 -22.08,-34.7 -17.24,-9.86 -64.39,-32.77 -80.85,-15.83zm-14.91 -741.79c-4.6,7.7 -36.7,30.61 -45.58,35.86 -27.56,16.27 -41.49,-17.55 -35.72,-27.83 5.22,-9.31 34.98,-30.17 44.83,-36.27 28.47,-17.64 42.37,18.37 36.47,28.24zm-35.65 -48.47c-15.64,7.38 -58.97,37.16 -64.18,53.08 -4.88,14.92 7.19,30.53 16.24,41.12 12.84,15 21.57,17.67 40.93,8.79 15.17,-6.96 57.99,-38.4 61.95,-54.26 3.13,-12.54 -19.47,-65.47 -54.94,-48.73zm-387.76 -176.77c0.7,-9.08 9.96,-28.58 13.22,-37.97 11.28,2.16 26.92,7.09 34.53,15.44 1.97,12.6 -3.16,22.72 -10.59,32.23 -12.93,2.98 -25.9,-4.77 -37.16,-9.7zm-20.31 5.05c7.23,5.26 29.85,14.83 39.48,18 18.4,6.06 30.66,4.82 39.33,-13.31 26.58,-55.59 -12.7,-44.76 -39.22,-61.66l11.01 -29.95 48.64 17.71c4.49,-8.88 4.37,-5.46 4.62,-15.66l-62.5 -23.01c-4.64,5.91 -40.8,99.91 -41.34,107.88zm-206.81 -101.96c-11.46,-29.97 10.08,-44.39 36.72,-32.79l-1.63 37.25c-10.51,2.07 -26.33,1.18 -35.08,-4.46zm-4.33 18.42l-25.08 45.26 18.61 2.33 22.18 -46.55 21.57 -0.34 -1.13 48.66 16.14 1.29c3.22,-9.01 7.59,-103.34 6.53,-116.56 -36.06,-0.66 -77.57,-18.35 -75.68,35.56 0.77,22.01 8.1,17.85 16.87,30.35zm-161.72 349.71l-42.63 12.81c4.71,6 30.34,17.03 39.17,20.42 3.71,12.67 0.16,7.42 9.35,15.26 3.79,3.23 7.32,6.8 12.66,8.98l10.64 -10.24 43.02 14.89c-5.33,-14.73 -17.56,-27.6 -20.01,-42.68 5.54,-7.01 24.63,-28.07 24.36,-35.4l-43.66 8.09 -25.18 -36.81 -7.73 44.67zm-571.17 -35.26l52.38 81.4c-13.29,-2.13 -58.16,-37.12 -75.15,-44.49l-9.46 12.72 97 61.98 11.59 -16.1 -53.11 -82.43 75.87 45.06 9.01 -12.62c-9.55,-10.3 -35.96,-23.44 -48.65,-32.18 -15.73,-10.83 -32.29,-19.08 -47.78,-30.51 -5.1,4.23 -9.04,10.91 -11.7,17.16zm175.55 -194.4l24.64 93.11c-16.7,-7.62 -40.16,-49.9 -57.67,-63.7l-12.63 8.85 73.95 89.2 15.74 -12.07 -25.65 -95.34c15.95,9.48 42.56,53.97 59.01,66.1l12.46 -8.62c-12.88,-23.46 -54.82,-65.22 -73.86,-89.94l-16.01 12.41zm-282.96 902.7c7.07,37.29 46.22,15.28 103.09,30.29l-82.38 29.33 4.08 14.99c11.45,-0.48 93.68,-29.77 109.42,-35.84l-4.73 -18.95c-19.33,-5.23 -87.07,-6.16 -97.61,-12.09l82.43 -29.25 -4.67 -15.87 -109.64 37.4zm1533.4 195.08c-8.36,-1.24 -22.83,-8.88 -23.24,-18.24 -0.27,-6.26 9.43,-21.44 12.63,-27.36 10.82,1.33 20.22,9.99 30.15,14.79 -1.51,9.83 -9.96,26.23 -19.54,30.81zm-21.9 -54.12c-1.41,7.1 -8.75,19.31 -13.39,24.98 -8.13,9.91 -15.74,7.4 -25.39,1.92 -28.64,-16.28 3.35,-44.01 6.34,-45.89l32.45 18.99zm-14.67 43.36c4.26,19.28 31.97,38.31 48.39,23.28 7.61,-6.96 26,-40.59 27.95,-49.78l-97.28 -57.65c-8.94,6.61 -30.81,43.62 -31.62,55.03 -1.01,14.2 9.16,22.11 19.59,27.93 13.29,7.42 18.87,7.83 32.96,1.19zm-1463.27 -340.16c-2.3,-7.52 -5.91,-29.99 -0.65,-36.59 6.91,-8.68 25.99,-8.31 34.67,-3.59 6.37,9.58 5.27,24.25 5.23,35.81 -8.04,3.52 -30.27,5.31 -39.25,4.37zm-48.11 3.69c-4.35,-12.38 -4.21,-21.97 -2.66,-34.4 29.98,-11.58 37.9,-0.08 35.09,32.8l-32.44 1.61zm-12.21 18.7l114.21 -8.97c0.07,-16.94 0.73,-55.04 -10.17,-67.49 -7.3,-8.34 -19.32,-7.46 -29.15,-6.45 -17.11,1.75 -17.75,3.93 -26.76,15.88 -11.51,-6.25 -9.39,-7.95 -25.44,-7.44 -10.13,0.32 -21.5,2.15 -26.14,11.86 -5.51,11.54 -0.26,49.92 3.46,62.6zm1222.47 -631.89l15.81 -7.27c1.69,11.07 3.9,15.79 -6.69,20.73 -6.11,-4.69 -7.25,-6.02 -9.12,-13.46zm-5.37 -21.21l-12.53 6.03c-0.82,-8.64 -1.89,-8.67 3.04,-15.63 6.15,2.65 6.02,2.64 9.49,9.61zm-74.93 -37.92l-2.74 -8.37c9.08,-2.37 15.2,2.88 17.51,11.49 -8.2,-3.25 -5.25,-3.95 -14.77,-3.12zm0 0l1.57 8.69 -9.68 6.05c13.3,8.75 48.2,25.15 70.33,41.98l49.78 37.07c3.59,1.78 16.17,-0.48 21.34,-2.83 1.33,-6.26 -0.19,-2.55 0.37,-8.12 0.72,-7.14 1.64,-2.6 1.54,-10.34l-49.43 -37.61c-6.66,4.2 -7.95,3.88 -10.9,3.02l4.87 -4.66c-4.2,-6.71 -22.69,-17.67 -30.08,-21.29 -5.79,-2.84 -12.76,-4.03 -17.2,-7.74 -7.06,-5.91 -7.03,-6.56 -15.81,-10.98 -13.37,-6.73 -57.9,-28.03 -71.05,-31.13l3.12 6.91 -15.34 6.45c-2.21,7.68 0.4,4.73 -3.67,13.71 17.93,3.72 42.81,20.37 55.85,21.91 -6.81,-12.98 -16.25,-9.23 -19.34,-25.12l6.79 -7.45c8.25,3.82 16.43,18.76 26.93,21.48zm-1117.59 424.43l83.32 14.11 -6.95 40.15 -62.38 -16.5c-3.77,-1.13 -7.34,-1.84 -11.04,-2.93l-9.26 -4.12 6.31 -30.71zm-23.62 42.52c7.6,4.98 81.39,25.25 95.12,28.47l1.13 9.89c9.73,2.06 26.86,6.61 35.09,4.11l0.99 -10.66 -17.34 -6.84c-1.19,-10.95 5.9,-51.1 10.15,-60.6l20.21 -1.8 1.36 -10.56 -34.06 -7.05 -3.79 9.42 -97.26 -16.55c-5.6,11.4 -10.59,48.36 -11.6,62.17zm1424.89 -622.44c0.39,19.58 10.87,23.61 25.5,33.91 14.53,10.22 77,74.94 89.46,88.61 27.37,30.02 57.61,69.97 80.37,104.37 7.58,11.46 14.39,29.93 27.33,34.45 -0.8,4.57 -5.59,0.27 4.64,17.59l31 59.53 9.86 2 -5.57 7.63 19.34 43.72c15.55,-1.5 12.21,-5.99 2.32,-27.94l-30.67 -63.7c-3.72,-6.73 -7.98,-17.22 -13.12,-22.31l-18.64 -33.29c-36.2,-59.63 -88.43,-125.28 -137.65,-173.16 -15.13,-14.72 -76.25,-72.48 -91.93,-77.88l7.76 6.47zm-482.65 -192.16c0.78,14.09 31.15,14.74 40.12,9.22 9.44,8.44 30.16,12.55 42.74,10.6 -8.18,-4.84 -3.29,0.66 -6.64,-7.52 10.71,0.51 16.09,-0.2 25.29,7.54 13.32,11.2 8.48,7.01 24.81,10.58 15.32,3.34 35.79,10.05 51.6,14.9 33.72,10.34 67.23,22.78 99.14,36.9 39.19,17.34 102.95,49.83 137.65,74.57 9.57,6.82 34.33,26.88 44.33,28.64 -13.33,-29.63 -40.93,-42.81 -72.64,-61.8 -68.95,-41.29 -187.97,-94.81 -265.11,-107.08 -2.17,7.33 0.32,2.63 -1.48,9.59 -6,-7.6 -1.44,-3.36 -4.23,-11.66 -21.94,-2.66 -101.75,-24.61 -115.58,-14.49zm-526.29 195.94l14.81 63.81c-6.49,-0.06 -43.35,-33.1 -51.62,-39.69 -8.95,2.08 -15.79,7.54 -22.81,13.06l60.33 98.46 14.61 -7.5c-9.23,-24.73 -35.67,-53.57 -46.87,-78.21l51.58 39.19 12.51 -8.11 -12.61 -63.41 48.11 77.21 15.35 -8.68 -60.77 -99.36 -22.61 13.23zm119.78 1331.58c6.9,10.17 77.87,36.61 94.9,42.65 34.15,12.11 71.18,20.63 106.06,26.86 5.04,-19.36 -6.37,-0.35 13.33,-20.22l5.35 -6.83 -45.15 -9.7 -8.44 8.77c-1.54,-10.94 2.59,-5.65 -3.7,-11.53 -9.21,-0.86 -2.12,-0.03 -9.86,4.16 -15.49,-10.41 16.6,-0.03 -37.17,-17.45 -21.26,-6.89 -57.96,-20.28 -77.17,-30.7 -7.2,-3.91 -32.8,-17.34 -38.89,-18.5 5.23,17.07 5.87,10.17 11.35,19.21 5.3,8.75 -4.97,6.66 -10.61,13.27zm518.53 304.78c-54.78,7.46 -72.13,15.84 -145.27,20.77 -50.44,3.4 -83.62,2.38 -132.34,-0.86 -24.7,-1.64 -16.33,-3.49 -37.79,8.3l-2.76 -9.86 -47.98 -9.83 -19.23 11.76c7.03,5.94 29.34,7.08 39.42,8.84l2.73 -6.53c1.45,-2.01 -0.01,-1.06 3.68,-2.3 5,5.19 0.79,0.11 3.15,10.64l14.31 -3.25c10.86,9.29 42.48,9.31 57.86,9.92 16.03,0.63 49.3,6.6 60.86,-3.45l3.54 3.01c10.23,6.1 77.92,-2.71 90.42,-4.36 27.87,-3.69 116.01,-10.86 134.89,-25.78 6.98,-5.51 20.4,-12.49 23.37,-17.93 -5.27,-1.22 -0.28,-1.26 -7.49,-0.13l-41.39 11.02zm-489.39 -1483.66c2.34,-3.13 -4.76,-3.22 7.65,-4.09l1.25 6.65c-6.27,0.95 -4.55,1.51 -8.9,-2.56zm-77.87 20.3c6.07,8.64 1.76,-0.3 7.17,5.75l-7.4 8.68 -8.97 -7.85 -17.54 11.25c8.1,1.16 2.4,-0.48 10.25,2.09 1.45,5.93 11.07,24.63 -0.86,19.75 -5.34,-2.19 -13.06,-13.73 -15.75,-16.51 -16.32,10.34 -66.63,48.26 -73.29,63.39 19.03,22.72 2.32,12.91 18.03,22.84l57.63 -54.06 -4.73 -13.73c6.84,-0.43 17.3,1.77 22.48,4.78 6.71,-6.97 18.55,-12.99 27.35,-18.63l1.74 -17.63c-0.73,-5.71 -2.2,3.16 -0.85,-5.13 9.4,0.63 10.45,5 17.43,10.38 17.31,-10.77 70.59,-35.74 86.88,-41.93 -5.87,-9.08 -3.85,3.38 -10.99,-7.84 -3.52,-5.53 -2.05,-8.28 -6.93,-15.67 -22.13,-0.65 -59.34,28.5 -77.36,36.15 -7.82,3.31 -16.65,9.59 -24.3,13.92zm-338.33 1191.34c5.78,4.5 23.9,25.84 30.78,32.96 9.89,10.24 22.11,21.73 32.95,31.5l51.45 43.75c16.38,13.03 11.07,6.58 16.4,6.48 3.28,4.68 -1.03,5.51 7.61,11.93 31.81,23.64 100.43,67.58 133.31,82.3 26.4,11.81 36.83,23.63 54.24,18.65 3.73,12.97 6.26,8.78 17.97,14.42 4.82,-14.41 -3.91,-3.97 9.02,-15.03 -25.92,-9.84 -48.52,-21.63 -74.08,-33.67 -6.97,-3.28 -11.11,-6 -18.03,-9.89 -13.2,-7.41 -7.71,2.99 -18.74,-8.44 -9.7,-10.04 -22.51,-17.47 -35.96,-16.94 -5.9,-12.8 -3.86,-6.78 -7.43,-9.32 -10.95,-7.81 -6.58,-4.17 -13.86,-4.76 -4.92,-9.18 -8.69,-17.09 -18.45,-12.06 -4.48,-14.64 -23.53,-23.13 -35.74,-32.89l-99.81 -90.05c-7.94,-3.99 -2.12,0.38 -11.73,-1.09 -3.17,-12.66 2.49,-2.45 -0.51,-12.14 -11.33,0.44 -7.44,4.73 -19.39,4.3zm197.67 -1424.27c4.44,8.77 1.72,-1.27 6.86,9.5 -12.47,2.27 -4.56,0.65 -15.08,-4.7 -21.46,11.7 -37.43,26.1 -54.41,37.64 -13.59,9.24 -8.77,5.49 -12.21,16.32 -13.84,-3.55 -10.22,3.24 -26.15,14.4 -16.12,11.29 -20.97,14.46 -19.91,23.29 -8.1,-2.24 -8.19,-0.78 -13.65,6.84l10.95 7.68c10.39,-5.13 28.58,-23.71 38.62,-32.01 6.4,-5.29 13.4,-11.26 19.76,-16.03 19.73,-14.8 12.73,-8.9 12.92,-18.22 8.42,5.45 19.19,-3.18 26.19,-10.21 4.27,-4.29 1.23,-0.83 2.9,-3.95 0.22,-0.41 0.45,-1.13 0.62,-1.52l0.96 -3.19c9.08,1.76 13.85,-3.7 21.76,-9.08l45.75 -28.59c21.16,-13.05 109.74,-54.81 131.15,-60.06l0.14 -7.68c12.22,7.1 27.07,-2.44 39.86,-6.6l99.08 -26.14c14.63,-3.03 32.11,-5.06 45.94,-8.97l-7.45 -12.52c-67.29,11.3 -133.02,30.32 -196.43,53.31 -31.55,11.44 -136.59,60.27 -158.16,80.5zm-0.34 353.39c6.71,11.77 9.94,10.5 14.3,26.91 -6.28,-1.65 -10.81,-7.68 -15.24,-13.05 -3.61,-4.38 -0.53,-2.42 -4.49,-7.39 -39.98,39.56 -117.48,168.44 -125.59,217.3 12.98,9.56 12.53,11.51 20.94,24.76 10.84,-10.16 19.45,-52.14 27.08,-65.94 41.14,-74.41 36.99,-76.28 93.05,-147.01 7.79,-9.82 17.26,-18.36 24,-28.02 -2.56,-11.25 -9.82,-17.57 -21.19,-20.16l-12.86 12.59zm-104.2 406.82l-8.05 5.23c-3.02,172.1 51.04,338.6 175.38,460.83 27.49,27.02 51.73,46.65 81.93,70.08 8.79,6.82 34.91,23.98 44.26,27.75 14.29,5.76 29.31,17.84 47.39,25.45 55.78,23.46 91.87,39.89 153.35,50.3 18.96,3.21 41.82,11.68 58.52,0.3 -7.33,-7.84 -46.15,-8.8 -59.25,-11.52 -61.81,-12.84 -110.13,-28.84 -167.27,-58.05 -154.08,-78.76 -265.39,-227.31 -306.44,-393.57 -17.55,-71.1 -20.63,-136.93 -13.47,-206.78 1.25,-12.22 10.81,-54.08 7.64,-61.88 -13.15,-0.4 -11.97,12.19 -16.28,42.08 -2.2,15.26 -9.13,37.85 2.29,49.8zm893.65 916.59c-1.08,21.93 41.48,-0.98 52.99,-5.52 17.9,-7.06 78.69,-32.06 93.67,-43.21 11.27,-8.39 14.24,-6.47 24.92,-12.44 18.3,-10.23 36.3,-21.49 53.91,-32.92 17.56,-11.39 33.32,-23.09 50.24,-35.14 10.04,-7.15 10.94,-17.38 14.45,-17.87 16.55,-2.32 6.67,1.82 21.71,-10.6 30.05,-24.8 57.23,-51.07 84.13,-79.22 12.9,-13.5 26.61,-29.12 38.51,-43.51 8.1,-9.78 10.13,-12.48 16.57,-23.34 4.01,-6.76 11.99,-12.78 17.76,-20.75 42.51,-58.7 82.02,-125.29 109.3,-192.49 7.11,-17.5 13.95,-34.38 20.21,-52.23 4.31,-12.28 18.89,-43.47 11.33,-53.45 -13.3,-1.88 -11.75,10.57 -14.36,20.85 -9.99,39.32 -57.14,139.22 -76.35,173.01 -18.14,31.92 -36.78,60.72 -57.99,90.67 -20.35,28.73 -5.9,10.38 -12.46,23.53 -2.54,5.09 -6.04,3.83 -10.51,6.99l-44.12 51.28c-9.75,10.64 -53.91,50.54 -56.65,60.98 -1.28,4.89 -11.8,4.92 -20.33,13.39 -44.87,44.52 -144.61,105.29 -201.97,132.31l-93.12 39.05c-5.22,3 -5.84,6.06 -11.33,7.75 -4.82,1.47 -4.98,-0.32 -10.5,2.91zm-1158.66 -1221.54c-11.1,3.87 -7.56,3.44 -16.22,27.07 -3.86,10.53 -7.34,21.38 -10.74,32.14 -16.26,51.45 -40.64,156.1 -39.38,205 7.9,3.62 10.3,4.93 11.83,14.42l-13.44 2.73c-2.39,30.21 -2.31,71.03 -1.04,102.49 0.41,10.13 -1.47,10.28 6,15.6 -7.3,9.56 -3.37,29.23 -0.72,41.74 14.04,5.45 7.78,6.64 16.97,11.57 1.88,-8.62 -1.38,-10.51 -1.83,-19.24 -1.97,-38.53 -5.62,-71.72 -4.08,-111.68 0.47,-12.16 2.92,-12.13 -6.7,-16.13 8.12,-7.53 -0.38,0.58 7.11,-3.88 3.08,-70.69 13.39,-132.98 30.69,-201.24 11.51,-45.41 29.02,-93.17 48.19,-136.43 6.99,-15.77 -0.02,-6.98 9.31,-21.88 4.34,-6.94 8.12,-14.86 10.79,-22.33l1.54 -3.42c22.7,-41.16 44.96,-78.83 72.24,-117.24 12.91,-18.18 27.39,-36.98 42.11,-54.2 7.86,-9.19 43.06,-46.75 45.79,-53.4 -2.94,-6.78 -2.29,-4.68 -9.05,-8.58 -21.24,11.12 -105.38,122.8 -120.25,148.91 -34.1,59.85 -50.9,83.07 -76.98,147.24 -4.41,10.86 -9.32,13.65 -2.12,20.75zm1001.28 -297.06c10.35,1.13 6.39,0.96 14.81,-2.48l5.88 7.26 -14.12 4.14 -6.57 -8.92zm-386.6 23.13c2.98,4.25 3.35,3.97 6.57,7.32 12.76,13.31 -2.1,6.65 20.44,9.63 8.33,1.1 6.49,0.79 15.97,-2.52 33.94,-11.87 66.46,-19.78 101.72,-26.5 69.87,-13.32 160.92,-13.32 229.96,1.09 16.9,3.53 34.28,7.69 51.32,12.27 12.23,3.28 40.18,14.74 50.3,14.41 -5.07,-7.7 -16.35,-9.85 -22.69,-15.04l7.82 -12.71c9.32,3.56 22.61,20.7 28.92,5.14 -20.56,-5.89 -4.42,2.53 -23.84,-10.95 -4.7,-3.26 -20.85,-7.23 -27.13,-9.46 -12.02,4.34 0.35,-0.01 -6.93,4.37 -12.2,-11.85 -15.34,-11.29 -43.2,-16.42 -16.46,-3.03 -33.32,-6.44 -49.99,-8.27 -76.85,-8.44 -143.46,-6.72 -220.18,8.79 -21.24,4.29 -109.15,26.96 -119.05,38.85zm825.87 328.85c6.16,12.38 1.57,9.43 11.14,12.58 -3.06,8.22 0.86,15.6 6.69,20.7 3.33,-1.57 11.91,-7.06 16.76,-9.85 -0.34,1.62 -12.99,17.22 -12.02,26.1 5.49,13.89 17.68,25.3 31.81,26.79 -4.88,10.14 0.98,14.49 7.6,25.74 -13.6,-0.75 -10.52,-6.37 -21.78,-3.19 7.33,31.28 5.88,23.71 15.56,32.34l-6.05 4.98c5.04,17.66 7.91,34.03 11.13,51.22 6.18,33.02 -0.87,26.74 11.26,43.31l-5.44 -1.24 1.74 36.91c0.28,66.12 -0.64,103.86 -16.86,171.16 -5.01,20.78 -13.89,44.58 -17.82,63.02 7.47,4.76 5.03,-0.13 10.77,6.04 -12.78,1.72 -17.84,0.12 -16.96,13.83 8.74,1.74 14.85,1.12 22.37,-3.61l-3.22 9.2c-3.79,9.75 -3.14,10.47 -15.39,8.85 -6.89,10.69 1.07,8.27 -15.11,9.7l-11.94 24.55 5.26 5.71 -11.83 5.88c5.89,9.37 4.42,1.52 10.94,14.22l7.3 9.64c8.36,9.39 -2.87,-2.09 2.97,3.6l28.94 -59.67c7.54,-18.3 17.69,-43.93 22.75,-63.43l-6.07 -6.36c13.71,-10.47 13.55,-17.81 17.29,-34.7 4.95,-22.35 16.1,-79.2 15.93,-100.54 -0.13,-16.16 -2.57,-7.74 -6.34,-18.4 6.64,-5.25 0.18,3.35 7.98,-4.43 0.36,-10.87 2.02,-33.63 -1.61,-42.45 -4.72,-11.5 -5.34,-10.11 -11.42,-17.71 -4.35,-5.44 0.09,-2.27 -6.37,-7.95 -8.67,-7.64 -9.84,-1.07 -6.42,-16.19 15.53,2.38 9.83,17.61 24.16,19.45 3.07,-9.63 -1.18,-34.97 -2.75,-46.84l-5.58 -38.7c-2.63,-9.55 -0.05,-6.9 -8.08,-9.21 3.34,-8.17 8.09,-3.33 -1.07,-32.25l-6.46 -20.38 -13.81 6.14c-0.1,-1.27 0.12,-2.56 0.43,-2.22 0.3,0.34 0.63,-1.12 0.87,-1.38 5.47,-5.71 6.37,-3.98 11.64,-7.91 -5.82,-26.27 -19.39,-61.71 -30.95,-86.36 -23.74,-0.47 -13.2,-16.91 -23.84,-30.45 -7.35,1.65 -3.3,0.37 -16.74,12.38 -0.35,0.31 -0.93,0.91 -1.36,1.4zm-74.08 705.88c0.97,-15.13 3.36,-2.82 13.11,-14.74l6.45 13.92c-9.39,-1.14 -16.48,2.46 -17.65,1.13 -0.53,-0.6 -1.28,-0.18 -1.91,-0.31zm68.88 -56.14c5.17,-7.06 2.48,-5.68 4.42,-10.33 2.09,-4.99 7.47,-7.89 16.49,-25.67 -11.41,-12.5 -6,-16.21 -25.29,-16.63 -4.42,6.12 -6.34,12.08 -10.42,18.13 -3.85,5.71 -7.66,11.34 -11.33,17.26 -67.38,108.81 -173.2,197.69 -291.26,246.33 -48.65,20.04 -99.49,36.6 -150.85,42.6 -35.07,4.1 -58.85,7.37 -95,7.37 -3.75,0 -22.09,-0.7 -24.06,-0.34 -13.82,2.52 -4.88,9.68 -1.54,13.49 -13.17,3.46 -2.32,-11.08 -27.76,-6.81 8.45,-5.71 3.59,0.81 4.3,-7.91l-23.86 -1.48c-9.05,12.95 -7.59,11.87 -22.97,17.45 -5.15,17.12 -2.99,3.51 -8.4,9.04l34.52 3.97c-1.6,-4.5 -4.08,-7.2 -2.7,-11.88 12.98,6.29 16.47,11.58 31.29,5.64l6.97 6.65 7.94 -5.33c11.69,12.47 2.54,8.68 20.18,6.17 7.2,-1.02 13.45,9.09 22.2,-2.83 6.74,6.85 4.97,4.9 15.75,4.4l52.24 -5.38c-2.59,-16 -6.36,-6.17 -2.79,-20 5.12,-0.43 3.08,1.2 8.06,0.29 9.99,-1.83 9.57,-11.11 21.88,7.99l11.25 -1.53c1.59,7.39 1.18,0.59 -0.72,7.47 75.77,-7 204.71,-66.68 264.78,-112 53.23,-40.16 90.11,-73.44 132.33,-124.43 19.5,-23.55 31.4,-34.47 26.66,-51.04 8.75,4.97 6.39,6.39 11.65,-2.54 -10.72,-2.68 -5.69,3.89 -9.24,-0.56 -0.51,-0.64 -1.31,0.06 -1.96,-0.02 3.12,-8.69 3.44,-4.72 10.03,-12.42l7.19 4.91zm-135.39 -483.35l-38.02 -1.1 -21.79 -84.61c12.06,-5.49 30.25,-11.09 43.48,-12.1 15.18,-1.15 19.79,5.17 26.35,17.51l9.72 36.73c-0.13,4.23 -0.1,9.9 -1.26,13.96 -1.62,5.69 -1.91,3.68 -3.59,7.16 -2.05,4.24 -1.69,1.71 -1.74,6.56l7.88 -0.39 -0.77 18.23c-12.46,-4.72 -0.78,-6.61 -20.26,-1.95zm-527.03 1.03l11.29 43.46c40.48,-15.21 83.96,-43.93 96.57,-11.11 20.79,54.15 -28.83,46.88 -61.67,61.81l9.82 38.47c36.11,-0.15 84.9,-41.8 91.37,27.1 3.5,37.22 -73.5,37.9 -100.36,42.49l10 36.08c17.62,-0.8 12.43,1.06 24.37,3.04 7.96,-5.82 22.78,-8.71 27.88,-12.41 7.22,-5.23 10.26,-15.12 19.98,-21.22 -0.11,14.97 -7.06,16.38 -7.43,28.05 18.48,-4.27 29.5,-7.09 46.82,-14.93l-2.56 -6.89c28.9,9.68 39.59,-43.27 33.43,-65.56 -11.84,-42.83 -20.75,-63.25 -58.11,-60.25 11.41,-19.87 24.53,-21.84 21.75,-53.66 -1.73,-19.86 -11.45,-48.55 -28.77,-60.2 -34.71,-23.36 -99.64,12.8 -134.39,25.73zm-563.51 156.9l-8.81 9.27 13.38 101.05c5.25,0.08 4.23,-1.65 5.66,-1.95l5.55 6.16c-10.45,-0.36 -6.43,1.93 -8.06,3.45 38.08,153.71 127.65,297.61 258.3,389.22 7.24,5.08 5.33,1.2 13.18,8.3 4.64,4.2 64.82,47.18 70.73,37.05 2.48,-4.24 -1.1,-19.12 -14.19,-11.55 1.47,-6.6 5.55,-4.05 -7.92,-26.67 -3.2,-5.36 -16.94,-15.76 -23.42,-17.12 -20.95,-4.4 -9.02,0.02 -21.83,-15.85 -3.62,-4.48 -16.61,-13.34 -22.34,-18.01 -30.98,-25.24 -56.73,-49.9 -82.39,-78.77 -55.95,-62.94 -100.72,-143.73 -127.06,-226.85l-8.76 -1.88c0.68,-9.2 -1.74,-2.17 5.45,-8.93 -2.07,-8.07 -7.23,-31.9 -10.65,-37.42 -2.7,-4.36 -0.64,1.02 -4.23,-5.24l-11.74 -26.43c11.88,8.87 6.89,10.76 13.35,17.17l-9.41 -55.88 -12.28 3.6c-5.79,-6.96 -11.17,-14.37 -13.22,-22.42l12.89 -4.7c0.62,11.62 -5.5,9.27 2.36,18.94l7.82 -1.59c3.78,-8.72 0.36,-24.51 -0.98,-34.41 -13.56,-8.24 -5.7,2.84 -9.51,-13.39 -8.5,1.49 -11.86,1.56 -18.96,-2.2 5.08,-3.61 11.52,-20.52 22.91,-4.12 4.64,6.68 -1.73,2.78 4,10.2 1.56,-3.21 3.13,-78.83 4.87,-93.16 3.89,-32.15 9.55,-58.75 15.82,-89.91 -10.54,-8.15 -13.2,-16.63 -21.9,-25.6 -20.34,13.77 -33.63,193.06 -28.03,207.82 1.03,2.7 7.53,10.24 9.42,11.8zm202.43 -67.15l1.09 13.91c-9.76,-7.05 -3.94,-3.74 -10.16,-10.96 -20.17,9.59 -25.72,9.99 -31.85,24.25 -6.53,15.2 -11.49,5.59 -12.2,38.6 -0.75,34.7 11.84,70.42 20.64,103.88 23.77,90.44 51.23,105.27 139.3,77.75 -8.95,-7.59 -13.63,-28.84 -17.73,-41.73 -15.46,3.59 -37.61,12.89 -49.95,-0.84 -10.99,-12.23 -59.45,-140.99 -26.78,-159.54 12.9,-7.33 40.51,-15.89 53.91,-7.95 17.89,10.61 36.65,89.58 40.11,110.83 2.93,18.05 9.48,36.54 -4.59,50.66 8.58,43.06 8.11,10.28 14.11,44.25 7.82,-5.22 47.06,-7.81 48,-61.32 0.66,-37.58 -26.7,-159.82 -66.65,-188.71 -21.38,-15.46 -74.55,-2.87 -97.26,6.92zm400.81 -963.32c-6.46,5.77 -3.05,5.25 -9.42,0.05 3.71,-3.71 -1.76,-2.37 4.78,-3.16 8.01,-0.96 1.73,0.09 4.64,3.11zm-116.23 19.53l-1.64 -14.87c6.94,3.14 8.89,7 14.21,13.32 -7.77,3.81 -3.71,2.02 -12.57,1.55zm-513.35 226.4c9.55,15.45 3.7,12.95 2,16.03l-8.46 -8.31c-7.15,3.9 -13.41,9.18 -16.45,16.03 3.12,2.93 -2.37,-2.11 3.19,1.55 11.12,7.33 -5.5,2.75 18.44,20.97l9.48 9.76 15.01 -13.69c-6.23,-10.45 -10.65,-7 -11.8,-21.17 6.06,4.06 13.36,12.89 17.26,16.23 10.45,-11.92 28.16,-22.67 37.69,-34.1 11.62,-13.94 2.57,-1.07 20.05,-15.87 6.56,-5.55 15.25,-10.33 20.88,-16.74l-2 -7.85c-9.8,-3.05 -14.04,4.35 -17.94,-12.08l8.27 -7.84c10.58,4.71 23.83,12.16 35.97,11.52 -5.61,-14.65 -3.89,-10.79 -1.6,-15.15l8.6 9.9c39.05,-25.68 76.63,-48.87 118.76,-69.47 29.09,-14.22 72.63,-33.34 103.74,-43.81 4.61,-1.55 14.14,-4.32 17.81,-6.74 6.33,-4.19 0.08,-2.9 6.25,-3.7 2.17,-0.28 -2.13,1.96 6.16,-0.88 -5.38,-6.35 -2.72,-1.02 -2.3,-5.34 11.02,7.37 68.09,-11.62 84.71,-17.22l100.83 -16.84c19.19,-5.16 24.4,4.78 40.9,-8.55 22.89,7.33 9.46,4.31 45.79,3.13 11.59,-0.38 39.67,0.71 48.34,-1.53 -6.11,-6.3 -6.52,-1.7 -4.34,-8.82 8.23,4.01 6.47,2.83 12.12,10.61l23.96 0.13c4.84,-14.88 0.06,-10.13 1.12,-16.71 10.25,-0.49 9.44,5.11 18.12,-5.46 -6.13,-12.74 -6.89,-2.99 -13.85,-12.74 -2.22,-3.11 2.51,0.38 -3.86,-6.84 -5.6,3.51 -12.85,13.74 -15.91,20.53l-8.12 -5.37 19.92 -16.59c-12.24,-9.12 -19.33,1.69 -33.45,7.05 0.73,-9.95 2.3,2.35 3.11,-8.35 -6.04,-4.69 -16.63,-3.73 -24.71,-2.57 3.31,17.75 -0.67,15.61 14.42,20.58 -7.61,10.89 -18.03,12.29 -30.06,6.04 -0.22,-7.17 9.17,-18.46 12.3,-26.32 -13.39,-2.66 -19.61,1.28 -28.12,1.29 -31.89,0.03 -70.6,-0.88 -101.1,7.85 0.91,6.19 2.72,9.59 3.61,14.98 1.59,9.67 0.72,7.21 -3.41,10.55 -7.82,-11.56 -4.33,-10.13 -18.43,-12.46l-9.9 -1.23c-0.52,-0.13 -1.13,-0.36 -1.65,-0.52 -30.43,-9.29 -74.02,3.78 -81.48,14.25 -16.43,-8.49 -115.85,31.33 -132.1,37.94 -109.63,44.64 -222.72,111.94 -307.75,193.91zm-43.68 42.23l3.34 9.17 -8.34 -4.41c-22.52,26.03 -43.98,49.26 -64.62,75.43l-42.03 57.91c-7.9,12.62 -10.17,8.73 -6.25,21.83 -7.75,-4.35 -5.78,-3.16 -10.87,4.69l-24.75 40.57 6.41 11.86 -12.37 -1.52c-50.42,92.82 -84.23,187.22 -106.48,289.92 -0.79,3.66 -2.43,11.4 -2.49,14.9 -0.21,13.4 2.81,1.88 -1.97,13.34 -5.91,14.16 -16.89,132.37 -15.09,152.11 1.19,12.97 1.95,5.54 0.04,17.98 8.87,1.81 -0.17,-2.16 8.87,-0.36 -0.31,8.53 -3.72,7.88 -9.37,11.78 -0.1,5.94 -0.23,18.58 0.58,23.98l1.94 22.51c-0.69,14.8 -0.1,36.42 4.47,50.29 15.05,-0.84 7.56,-11.12 23.52,-5.19 -5.34,6.17 -34.68,12.89 -17.14,42.15 7.61,-4.92 7.13,-8.44 4.45,-17.89 8.55,4.6 6.8,5.57 15.76,-1.48 1.09,9.4 1.05,2.23 -7.22,10.35 4.07,7.53 9.18,15.4 17.41,16.35 2.51,-7.45 0.96,-5.25 -4.16,-11.45 13.52,0.2 1.23,12.89 17.94,10.19l-8.11 -79.13c-1.16,-15.82 -0.92,-66.8 -4.34,-77.06 -9.16,-4.96 -10.77,-6.39 -20,-0.37 -0.24,-0.71 -0.96,-3.17 -1.22,-3.6l-6.59 -8.11c-9.24,-13.66 -11.18,-13.12 -12.78,-18.64 27.1,0.49 25.96,9.43 40.82,24.09 3.24,-8.02 1.45,-3.77 0.91,-12.34 -0.65,-10.51 1.11,-5.13 1.73,-14.32 1.23,-18.19 -23.11,-15.26 0.88,-30.3 15.04,-87.92 8.37,-104.87 38.79,-205.86 20.2,-67.06 36.57,-103.22 65.5,-162.98 4.75,-9.8 10.88,-14.19 4.44,-23.12 9.94,1.76 8.09,-0.1 21.64,-23.92 29.29,-51.48 64.29,-100.04 102.86,-145.06 46.99,-54.83 58.96,-50.63 33.55,-70.42 -7.08,-5.51 -10.03,-12.21 -15.27,-17.55l-14.38 13.66zm-242.55 869.63l13.33 16.65c-9.08,-0.05 -2.2,0.46 -8.76,-2.69 -12.11,-5.82 -12.53,-2 -12.77,-12.35l8.2 -1.61zm1484.13 -1003.46l-12 -7.83c8.59,-8.31 18.09,-3.61 26.05,1.93l-14.04 5.91zm-253.02 -108.82c-8.96,6.84 -7.29,2.12 -14.34,-2.61 -6.64,-4.46 -6.72,0.77 -10.87,-6.68 13.76,-5.67 8.95,-5.2 20.43,-3.28 0.25,0.39 4.07,5.75 4.16,5.95 2.66,5.81 1.47,1.68 0.61,6.63zm-52.49 1946.79l113.2 -30.47 38.46 -14.83 2.43 -8.11 7.52 5.21c37.13,-18.39 73.78,-32.14 110.97,-51.56 93.49,-48.83 186.9,-120.63 259.08,-197.27 88.74,-94.21 153.44,-197.1 203.73,-315.16 5.23,-12.27 6.66,-11.68 3.72,-23.55 8.94,-5.9 20.67,-27.35 14.97,-38.11 -5.31,-10.03 -14.98,-9.75 -28,-44.04l10.82 10.08c12.49,-3.76 5.47,-11.06 16.32,-6.65 -5.56,5.16 -3.43,0.41 -10.46,7.07 8.06,10.43 4.45,-0.55 8.27,12.29 1.76,5.92 3.89,7.54 8.83,11.36 8.03,-9.31 27.34,-95.17 30.94,-111.66 8.33,-38.1 14.48,-82.35 16.95,-121.73 4.18,-66.6 4.9,-133.44 -4.07,-199.9 -1.73,-12.83 -10.94,-63.41 -10.41,-70.64l-40.87 -151.88c-3.7,-4.75 -60.48,-157.47 -124.43,-237.12 -4.1,-5.11 -7.24,-13.21 -12.26,-19.6 -17.91,-22.79 -34.47,-46.2 -54.01,-67.74 -88.28,-97.3 -147.3,-140.49 -254.79,-211.27 -4.45,5.69 -2.95,7.43 -10.03,9.23 -6.31,1.6 -10.28,2.59 -13.38,-4.17 10.63,1.48 10.6,-0.87 19.6,-5.42 -15.2,-17.94 -190.67,-94.6 -220.84,-94.57 -3.12,8.34 -0.58,4 -1.46,11.86 -12.32,3.82 -15.1,5.4 -18.54,-9.17l16.87 -3.91c-7.67,-7.11 -76.37,-22.56 -89.23,-22.26l-5.95 7.93 -1.2 -10.19 -65.31 -10.69c-7.75,-0.54 -14.88,8.26 -15.02,8.12 -0.42,-0.41 -0.98,0.87 -1.4,1.36 8.26,7.57 3.5,-1.34 8.69,6.16 -7.02,7.41 -13.71,3.54 -20.36,11.53l10.42 4.21c-0.63,0.4 -3.71,1.43 -4.16,1.85 -4.06,3.7 -1.82,-2.92 -3.01,4.38 -1.54,9.44 2.36,6.63 4.31,7.59l84.28 12.91c27.15,5.66 20.78,-6.02 30.23,-2.36 9.85,7.7 0.75,8.21 13.35,12.03l50.56 13.48c21.41,7.5 42.74,13.87 63.98,22.03 32.35,12.44 62.09,27.29 92.81,41.51 15.51,7.18 24.56,-6.87 33.02,6.51 -9.92,-0.28 -5.29,-4.56 -17.76,-1.75 8.57,11.56 53.09,32.24 68.69,42.76 22.81,15.38 44.47,30.15 66.31,46.46 114.01,85.17 212.06,201.1 275.42,328.99 11.07,22.35 28.66,71.39 44.34,86.53l-2.88 8.33c12.76,28.65 23.46,65.53 31.61,96.01 8.26,30.86 12.76,68.17 21.41,97.41l8.46 -1.25c-11.83,8.14 -7.43,13.41 -5.41,26.19 4.78,30.23 6.66,61.1 7.88,91.63 1.55,39.15 0.74,76.5 -2.49,115.47 -1.03,12.37 1.91,10.62 -1.78,24.13 -2.07,7.59 -2.48,18.92 -3.67,27.32 -7.36,51.73 -17.08,104.32 -33.66,153.92 -45.8,137 -101.2,242.49 -195.79,352.53 -41.79,48.62 -69.8,70 -112.43,110.39 -8.29,7.86 -5.64,13.45 -15.35,15.49 -9.26,1.94 -14.49,8.14 -22.33,14 -186.45,139.42 -433.39,214.28 -666.84,189.63 -7.48,-0.79 -14.62,-3.24 -21.52,-0.42 -4.47,1.83 -1.95,0.88 -4.37,3.46 6.53,5.61 1.57,0.39 10.68,4.58 -2.57,6.11 -8.4,12.28 -13.81,14.47l-5.48 -3.2c-0.06,-10.15 2.93,-0.98 2.84,-11.87 -7.84,-5.19 -6.75,-1.69 -13.18,-8.41 -6.37,-6.65 -4.78,-5.54 -15.75,-5.15 -5.43,8.32 -0.99,8.1 -12.19,8.92 1.14,-8.63 5.01,3.1 3.01,-10.72 -18.19,-5.35 -40.32,-7.98 -59.02,-12.21 -11.12,-2.52 -8.6,-3.61 -14.11,2.58 -9.19,-6.08 0.26,-5.43 -14.68,-9.4 -15.96,-4.24 -33.45,-13.56 -48.57,-7.86 -7.58,-5.84 -0.24,-5.02 -10.68,-9.7l-36.76 -12.05c-20.19,-4.94 -42.2,-19.67 -61.91,-25.61l-33.9 -17.19c-68.09,-36.72 -136.07,-76.58 -194.15,-128.67 -10.17,-9.13 -9.1,-5.55 -20.44,-17.32l-5.18 5.13 -3.16 -13.55c-13.45,-5.7 -6.74,-3.49 -16.77,-12.34 -10.32,-9.11 -7.48,-10.71 -14.36,-16.93 -4.64,3.04 -2.17,-3.39 -4.1,7.57l-4.42 -4.31c1.04,-9.97 2.65,4.92 3.03,-9.46 -52.55,-48.17 -104.31,-121.31 -140.5,-183.43 -7.1,-12.18 -13.94,-24.36 -20.57,-36.9l-19.65 -37.27c-4.45,10.47 1.6,4.43 -4.44,11.52l-5.56 -10.48 7.75 -6.22c-5.36,-14.18 -12.35,-28.58 -18.21,-42.78 -7,-16.98 -6.68,-29.16 -22.05,-34.52 1.79,-12.21 -3.57,-16.22 -8.1,-26.25 7.53,-9.94 3.7,-14.51 -2.95,-31.03 -9.65,-24 -22.12,-88.58 -26.01,-111.68l-36.34 -23.76c-3.48,0.01 -4.83,4.64 -13.93,5.31 2.01,16.22 2.36,17.51 17.41,17.25l-4.58 6.76 8.48 12.58c-12.43,0.92 -5.68,-3.89 -15.99,-0.27l17.49 73.38c6.23,-0.17 -6.42,3.07 2.61,-1.52 2.68,-1.36 1.2,-1.07 4.9,-2.1 8.46,7.13 16.84,15.89 26.98,5.92 -5.95,-6.15 -3.08,-0.74 -12.38,-3.73 -10.78,-3.46 -6.84,-7.31 -6.83,-7.62 6.93,-2.48 11.18,4.42 14.06,-3.96 18.36,13.14 1.47,4.9 13.07,19.5 -10.28,9.63 -3.01,3.69 -15.45,8 -2.97,10.03 2.24,3.56 -4.77,10.05 -6.19,-4.51 -11.9,-9.8 -19.22,-12.26 19.8,71.69 46.27,138.18 80.31,203.63 13.15,25.28 67.16,114.77 91.27,142.12 5.73,6.5 7.41,11.12 13.61,17.55 9.28,0.75 3.04,-2.8 12.31,1.17 -0.09,4.93 -1.11,4.48 -5.01,8.3 96.84,114.25 215.8,212.54 352.33,275.56 44.3,20.45 33.56,20.46 61.35,1.62 2.55,14.21 -0.06,2.77 -2.27,15.28 13.5,16.01 21.25,14.84 38.71,22.31 19.91,8.51 50.33,19.96 70.94,22.33 14.8,1.7 2.94,-1.66 15.96,4.36 4.19,1.94 9.71,2.86 14.17,3.83 29.35,6.39 58.69,13.87 88.91,16.7l-0.4 -4.91 10.47 -0.62 -2.37 7.39 76.49 7.32c27.49,1.78 55.14,2.03 82.66,1.64 29.25,-0.42 57.92,-2.6 87.23,-5.52 22.59,-2.25 46.23,-4.59 68.43,-9.67 17.04,-3.91 4.45,-2.48 16.52,-10.39l0.97 6.66 12.25 -0.39z"/>
 </g>
</svg>
