<?xml version="1.0" encoding="UTF-8"?>
<!DOCTYPE svg PUBLIC "-//W3C//DTD SVG 1.1//EN" "http://www.w3.org/Graphics/SVG/1.1/DTD/svg11.dtd">
<!-- Creator: CorelDRAW 2017 -->
<svg xmlns="http://www.w3.org/2000/svg" xml:space="preserve" width="161.911mm" height="161.911mm" version="1.1" shape-rendering="geometricPrecision" text-rendering="geometricPrecision" image-rendering="optimizeQuality" fill-rule="evenodd" clip-rule="evenodd"
viewBox="0 0 1536.74 1536.74"
 xmlns:xlink="http://www.w3.org/1999/xlink">
 <g id="Слой_x0020_1">
  <metadata id="CorelCorpID_0Corel-Layer"/>
  <path fill="#B3B3B3" d="M568.73 26.59c409.68,-110.26 831.16,132.47 941.42,542.15 110.26,409.68 -132.47,831.16 -542.15,941.42 -409.68,110.26 -831.16,-132.47 -941.42,-542.15 -110.26,-409.68 132.47,-831.16 542.15,-941.42zm-76.65 678.58l-2.93 -10.92 30.82 -10.21c5.41,-1.79 10.79,-3.28 16.12,-4.34l0.07 -1.73c40.65,-9.54 92.85,-23.12 131.71,-33.81l1.37 2.58 19.06 -4.47c11.86,-4.82 23.49,-10.21 35.68,-14.56 29.19,-10.41 63.19,-16.87 90.73,1.66 1.55,1.05 3.06,2.17 4.52,3.36 4.09,-8.76 9.76,-16.67 17.31,-22.58 1.16,-0.91 2.49,-2.41 3.56,-3.45 26.33,-25.45 96.35,-38.07 124.26,-28.89l-0.48 -1.79 21.99 -13.41c15.03,-9.17 42.07,-17.08 59.17,-21.85 19.69,-5.48 51.65,-14.19 72.74,-8.28 3.78,0.87 7.3,1.67 10.61,2.56 -1.64,-2.7 -3.4,-5.48 -5.5,-8.33l-17.88 -24.16c-8.24,-9.8 -18.31,-20.85 -24.25,-30.79 -8.77,-4.77 -11.5,-9.76 -18.67,-16.32 -5.07,-4.64 -10.1,-9.34 -15.4,-13.71 -10.03,-8.28 -22.6,-15.82 -32.18,-25.51 -76.49,-49.88 -146.03,-86.21 -297.89,-75.35 -83.34,22.69 -73.97,11.15 -166.67,55.79 -2.56,1.23 -5,2.21 -7.34,2.93 -4.15,5.85 -8.66,8.23 -14.93,12.32 -8.05,5.95 -16.58,14.18 -25.78,17.17 -1.43,0.46 -3.08,3.39 -4.15,4.77 -31.58,33.11 -46.19,40.62 -76.26,81.23 -20.95,28.3 -38.14,58.68 -51.59,91.24 -3.36,8.12 -6.42,16.37 -9.3,24.67 -3.3,9.48 -4.31,17.45 -8.01,25.31 -0.45,2.75 -1.1,5.57 -1.83,8.63 -1.36,5.7 -2.24,9.93 -3.68,13.73 -0.65,14.54 -5.12,30.1 -6.47,43.04 -2.73,26.67 -3.32,52.46 -1.47,78.13 -0,-1.07 0.01,-2.14 0.03,-3.21 0.38,-17.54 1.59,-29.38 12.51,-43.33 6.87,-15.6 14.98,-22.24 26.52,-28.33l-0.01 -0.07 0.78 -0.33c4.1,-2.13 8.64,-4.22 13.7,-6.62l23.7 -11.27 1.87 2.17c23.08,-6.95 51.46,-10.41 73.85,-3.65zm-95.55 258.62c-11.07,-10.93 -13.96,-5.71 -8.56,4.55 40.25,76.56 102.74,141.39 180.12,180.94 234.67,108.11 398.64,31.05 538.01,-112.6l0.14 0.08c1.77,-4.39 4.44,-8.68 8.18,-13.33 6.53,-11.5 14.94,-25.5 25.3,-36.51 1.88,-7.84 5.79,-15.64 10.8,-22.23 1.51,-6.52 4.71,-12.65 8.86,-18.38 1.6,-6.18 4.18,-11.76 7.77,-16.54 1.88,-11.46 6.51,-22.77 12.09,-32.86 3.08,-9.88 5.26,-23.29 7.24,-33.24 2.51,-12.67 5.48,-26.37 7.21,-39.14 2.49,-18.41 3.42,-36.69 3.63,-55.26 0.21,-18.33 -5.3,-49.14 -2.53,-67.65 -0.79,-1.27 -1.53,-2.58 -2.2,-3.95 -4.59,-9.31 -4.87,-16.15 -4.85,-25.05 -0.44,-1.06 -0.85,-2.11 -1.24,-3.16 -2.57,10.36 -7.43,19.75 -15.55,26.95 -9.84,18.44 -31.25,27.79 -50.41,34.34 -0.56,0.19 -1.14,0.38 -1.72,0.57l14.93 57.52 -101.7 42 -4.27 -16.64c-12.23,13.43 -28.81,21.97 -46.56,27.9 -26.74,8.92 -55.34,17.4 -83.43,9.11 -8.69,-2.57 -16.42,-6.46 -23.28,-11.42 -2.83,7.16 -6.62,13.9 -11.5,19.66l2.31 6.2 -29.26 13.24c-14.38,6.51 -27.17,10.13 -42.44,13.66l-43.56 10.07 0.16 -5.18 -1.09 -0.18c-3.13,-0.52 -5.95,-1.18 -8.87,-2.02 -0.91,0.02 -1.83,0.07 -2.69,0.11l-14.59 0.66c-7.35,8.08 -16.97,15.04 -28.94,20.93l-2.32 1.14 4.16 4.22c-79.81,17.26 -243.38,96.69 -299.34,41.47zm452.42 351.57l-58.11 26.41 4.15 -20.89c-3.9,0.18 -7.85,0.34 -11.75,0.13 -6.02,1.32 -12.42,1.2 -19.08,-0.29l1.47 4.15 -18.49 -2.13 -8.79 5.9 -8.25 -7.86 -22.32 -2.57 -0.39 1.5 -24.32 -4.34 -68.63 -7.91 5.64 -5.76c-10.48,-2.87 -20.86,-6.08 -31.05,-9.69 -12.73,-4.51 -25.45,-9.42 -37.94,-14.55 -3.42,-1.41 -7.28,-2.96 -11.33,-4.68l-1.7 8.05c-2.83,13.42 -42.14,80.74 -51.98,92.23l-5.57 6.5c11.05,5.3 22.17,10.46 33.6,14.8l21 7.98 55 17.82c6,1.66 11.39,3.69 16.16,6.47 3.96,-0.29 8.13,-0.07 12.58,0.63 6.02,0.95 11.65,2.94 16.67,5.8l2.85 -1.74 52.74 10.8c5.85,-1.09 12.32,-0.73 24.02,0.05 33.43,2.22 63.69,2.92 97.19,0.66 22.71,-1.53 43.72,-4.19 66.04,-8.39 13.75,-2.59 27.34,-5.1 41.19,-7.05l33.3 -8.68c0.25,-0.04 0.51,-0.08 0.76,-0.13 5.02,-1.09 9.92,-1.21 14.71,-0.27l3.1 -1.81c4.05,-2.37 7.92,-4.03 12.09,-5.07 1.52,-1.14 3.12,-2.21 4.93,-3.25l74.78 -31.65c42.6,-20.16 112.16,-62.05 145.11,-94.75 4.93,-4.89 9.37,-7.77 14.57,-10.44 11.57,-16.38 31.69,-32.8 43.16,-45.2l36.33 -42.23 2.31 -1.63c0.57,-1.13 1.2,-2.24 1.88,-3.33 2.71,-4.32 5.77,-8.57 8.71,-12.73 3.82,-5.4 7.58,-10.82 11.27,-16.29 -19.69,5.35 -41.32,-2.23 -56.24,-16.84 -8.31,-0.7 -16.63,-3.62 -25.84,-8.76 -14.09,-7.87 -25.08,-18.78 -29.98,-32.89 -5.56,9.1 -13.06,17.6 -20.5,26.59 -33.14,40.02 -66.17,70 -107.56,101.22 -50.31,37.96 -148.52,83.42 -213.81,92.1l0.25 1.52 -23.95 2.47z"/>
 </g>
</svg>
