<?xml version="1.0" encoding="UTF-8"?>
<!DOCTYPE svg PUBLIC "-//W3C//DTD SVG 1.1//EN" "http://www.w3.org/Graphics/SVG/1.1/DTD/svg11.dtd">
<!-- Creator: CorelDRAW 2017 -->
<svg xmlns="http://www.w3.org/2000/svg" xml:space="preserve" width="164.735mm" height="164.801mm" version="1.1" shape-rendering="geometricPrecision" text-rendering="geometricPrecision" image-rendering="optimizeQuality" fill-rule="evenodd" clip-rule="evenodd"
viewBox="0 0 1593.44 1594.08"
 xmlns:xlink="http://www.w3.org/1999/xlink">
 <g id="Слой_x0020_1">
  <metadata id="CorelCorpID_0Corel-Layer"/>
  <path fill="white" fill-opacity="0.800000" d="M593.27 41.07c417.51,-112.37 847.06,135 959.43,552.51 112.37,417.51 -135,847.06 -552.51,959.43 -417.51,112.36 -847.06,-135 -959.43,-552.51 -112.36,-417.51 135,-847.06 552.51,-959.43zm-78.12 691.56l-2.98 -11.13 31.41 -10.41c5.51,-1.82 10.99,-3.34 16.43,-4.42l0.07 -1.77c41.43,-9.72 94.62,-23.57 134.23,-34.46l1.4 2.63 19.42 -4.56c12.09,-4.91 23.94,-10.41 36.37,-14.84 29.75,-10.61 64.39,-17.19 92.46,1.69 1.58,1.07 3.12,2.21 4.61,3.42 4.17,-8.93 9.95,-16.99 17.64,-23.02 1.18,-0.92 2.53,-2.46 3.63,-3.52 26.83,-25.94 98.19,-38.79 126.64,-29.44l-0.49 -1.83 22.41 -13.67c15.32,-9.34 42.87,-17.41 60.3,-22.26 20.06,-5.59 52.64,-14.46 74.14,-8.44 3.85,0.89 7.44,1.7 10.81,2.61 -1.67,-2.75 -3.46,-5.59 -5.61,-8.49l-18.22 -24.62c-8.4,-9.99 -18.66,-21.25 -24.71,-31.38 -8.94,-4.86 -11.72,-9.95 -19.03,-16.63 -5.17,-4.72 -10.29,-9.52 -15.7,-13.98 -10.22,-8.44 -23.03,-16.13 -32.79,-25.99 -77.95,-50.84 -148.82,-87.86 -303.59,-76.79 -84.94,23.12 -75.39,11.36 -169.86,56.86 -2.61,1.26 -5.09,2.25 -7.48,2.99 -4.23,5.97 -8.82,8.38 -15.21,12.56 -8.2,6.06 -16.89,14.45 -26.27,17.5 -1.45,0.47 -3.14,3.45 -4.23,4.86 -32.19,33.74 -47.07,41.39 -77.72,82.79 -21.35,28.84 -38.87,59.8 -52.58,92.98 -3.42,8.28 -6.54,16.68 -9.48,25.14 -3.36,9.67 -4.39,17.79 -8.16,25.79 -0.46,2.8 -1.13,5.68 -1.87,8.79 -1.38,5.81 -2.29,10.12 -3.75,13.99 -0.66,14.82 -5.22,30.68 -6.59,43.86 -2.78,27.18 -3.38,53.46 -1.5,79.63 -0,-1.09 0.01,-2.18 0.03,-3.27 0.38,-17.88 1.62,-29.94 12.75,-44.15 7.01,-15.9 15.27,-22.66 27.03,-28.87l-0.01 -0.07 0.79 -0.34c4.18,-2.17 8.8,-4.3 13.96,-6.75l24.15 -11.48 1.9 2.21c23.53,-7.09 52.44,-10.61 75.26,-3.72zm-97.37 263.56c-11.29,-11.14 -14.22,-5.82 -8.73,4.64 41.02,78.03 104.71,144.09 183.57,184.41 239.16,110.18 406.26,31.64 548.3,-114.75l0.15 0.08c1.8,-4.48 4.53,-8.85 8.33,-13.58 6.66,-11.72 15.22,-25.98 25.78,-37.21 1.92,-7.99 5.9,-15.94 11.01,-22.66 1.54,-6.64 4.8,-12.89 9.03,-18.73 1.63,-6.3 4.26,-11.99 7.92,-16.85 1.91,-11.68 6.63,-23.21 12.32,-33.49 3.14,-10.07 5.36,-23.74 7.38,-33.88 2.56,-12.92 5.59,-26.87 7.35,-39.88 2.53,-18.77 3.49,-37.39 3.7,-56.32 0.21,-18.68 -5.4,-50.08 -2.58,-68.95 -0.81,-1.29 -1.56,-2.63 -2.25,-4.02 -4.68,-9.49 -4.96,-16.46 -4.94,-25.52 -0.44,-1.08 -0.86,-2.15 -1.26,-3.22 -2.62,10.56 -7.58,20.13 -15.85,27.47 -10.03,18.8 -31.85,28.32 -51.38,35 -0.57,0.2 -1.16,0.39 -1.75,0.58l15.22 58.62 -103.64 42.8 -4.36 -16.96c-12.46,13.69 -29.36,22.39 -47.45,28.43 -27.25,9.1 -56.4,17.73 -85.02,9.28 -8.86,-2.62 -16.73,-6.59 -23.73,-11.64 -2.89,7.3 -6.75,14.16 -11.72,20.03l2.35 6.32 -29.82 13.49c-14.65,6.63 -27.69,10.32 -43.26,13.92l-44.4 10.27 0.17 -5.28 -1.11 -0.18c-3.19,-0.53 -6.07,-1.2 -9.04,-2.06 -0.93,0.02 -1.87,0.07 -2.74,0.12l-14.87 0.67c-7.49,8.23 -17.3,15.33 -29.49,21.34l-2.37 1.16 4.24 4.3c-81.34,17.59 -248.03,98.54 -305.06,42.27zm461.08 358.3l-59.22 26.92 4.23 -21.29c-3.98,0.19 -8,0.34 -11.98,0.13 -6.13,1.34 -12.66,1.22 -19.44,-0.29l1.5 4.23 -18.84 -2.17 -8.95 6.01 -8.4 -8.01 -22.75 -2.62 -0.4 1.53 -24.78 -4.43 -69.94 -8.06 5.74 -5.87c-10.68,-2.93 -21.26,-6.19 -31.64,-9.88 -12.97,-4.6 -25.94,-9.61 -38.67,-14.83 -3.49,-1.43 -7.42,-3.02 -11.54,-4.77l-1.73 8.21c-2.88,13.68 -42.95,82.29 -52.97,94l-5.68 6.63c11.26,5.4 22.59,10.66 34.24,15.09l21.4 8.13 56.05 18.17c6.11,1.69 11.61,3.76 16.47,6.59 4.04,-0.3 8.29,-0.07 12.82,0.64 6.14,0.97 11.87,3 16.98,5.91l2.9 -1.77 53.75 11.01c5.96,-1.11 12.56,-0.74 24.48,0.05 34.07,2.26 64.91,2.98 99.05,0.68 23.14,-1.56 44.56,-4.27 67.3,-8.56 14.01,-2.64 27.87,-5.2 41.98,-7.18l33.94 -8.84c0.26,-0.04 0.52,-0.08 0.78,-0.13 5.11,-1.12 10.11,-1.23 14.99,-0.27l3.16 -1.85c4.12,-2.41 8.07,-4.1 12.32,-5.17 1.55,-1.16 3.18,-2.25 5.02,-3.31l76.21 -32.25c43.41,-20.55 114.3,-63.24 147.89,-96.56 5.02,-4.98 9.55,-7.92 14.85,-10.64 11.79,-16.7 32.3,-33.42 43.99,-46.07l37.02 -43.04 2.36 -1.66c0.58,-1.15 1.22,-2.29 1.92,-3.39 2.76,-4.41 5.88,-8.73 8.88,-12.98 3.9,-5.5 7.73,-11.03 11.49,-16.6 -20.07,5.45 -42.11,-2.27 -57.31,-17.16 -8.47,-0.71 -16.95,-3.69 -26.33,-8.93 -14.36,-8.02 -25.56,-19.14 -30.55,-33.52 -5.66,9.27 -13.3,17.94 -20.89,27.1 -33.77,40.78 -67.44,71.33 -109.61,103.16 -51.27,38.69 -151.36,85.01 -217.9,93.86l0.25 1.55 -24.41 2.51z"/>
  <path fill="black" fill-opacity="0.701961" d="M635.67 1562.67c13.14,-0.68 10.97,-3.62 20.79,-7.69 2.61,6.6 -0.63,10.77 -7.08,12.42 -0.25,0.06 -8.32,0.05 -8.49,0.02 -7.33,-1.26 -3.66,1.36 -5.23,-4.74zm598.42 -1354.66l5.13 -2.61c-3.91,-4.82 -3.55,-4.45 -9.27,-5.9 1.89,7.56 0.11,4.13 4.14,8.51zm-104.83 207.96c2.08,5.87 0.34,3.98 5.06,6.16 3.94,-3.09 4.09,-2.68 1.91,-8.17l-6.97 2.01zm-848.33 -147.78c5.02,3.13 3.35,2.88 9.44,1.25l1.02 -10.16 -10.46 8.91zm935.13 303.37c6.3,-3.55 4.77,0.21 4.19,-5.25 -0.36,-3.35 -3.86,-5.53 -5.46,-6.69 -3.1,6.11 -4.05,6.56 1.27,11.94zm-327.4 517.68l7.77 6.54 0.89 -16.01c-4.94,2.79 -6.29,4.4 -8.66,9.47zm-19.52 229.21l8.72 -3.96c0.5,-8.32 0.87,-7.34 -5.83,-10.57l-2.89 14.53zm359.07 -310.83c2.41,-5.61 1.11,-10.86 1.62,-16.73 -2.5,2.71 -9.16,9.31 -7.22,13.51 2.43,5.28 5.43,3.18 5.6,3.22zm-365.66 -987.69c11.97,5.57 14.59,-3.5 8.04,-10.85l-8.04 10.85zm24.55 1149.64l5.42 8.12c3.28,-4.48 4.06,-10.52 2,-16.34 -6.05,0.95 -4.36,2.04 -7.42,8.22zm342.98 -178.51c8.53,-2.54 10.37,-5.52 9.91,-14.69 -8.19,1.56 -9.65,6.4 -9.91,14.69zm-19.3 35.97c10.09,0.43 17.32,-10.01 8.91,-15.46 -3.13,2.54 -8.78,10.19 -8.91,15.46zm-877.12 -333.95c4.8,-4.57 3.42,-5.21 5.12,-12.34 2.04,-8.56 3.27,-7.66 -4.35,-11.8 -6.1,6.41 -5.6,16.64 -0.78,24.14zm857.47 -167.92l-3.12 1.97c9.49,12.82 11.85,23.21 19.65,24.51 0.98,-8.65 -5.97,-20.99 -14.98,-21.77l-1.55 -4.71 2.97 -0.53c-8.31,-14.34 -22.64,-31 -33.41,-43.88 -5.65,-6.76 -6.26,-10.77 -14.66,-8.53 2.13,5.44 23.9,29.46 31.94,40.64 11.99,16.69 6.87,3.28 13.16,12.3zm-508.13 -7.42l12.11 -11.98 -7.4 -12.53c-4.82,2.76 -2.32,-1.99 -4.56,4.1l-0.14 20.41zm210.76 630.16c3.16,-2.28 6.8,-6.84 9.24,-9.65 -6.8,-5.94 -10.36,-9.31 -19,-3.44 1.05,8.39 3.81,6.37 9.75,13.09zm172.25 -743.38l3.5 -3.57c-2.46,-5.27 -28.91,-21.24 -34.84,-22.73 4.13,7.08 22.85,21.97 31.34,26.31zm-172.34 855.81c3.32,6.47 4.36,4.22 12.98,2.53 6.69,-1.31 12.39,-2.71 18.84,-4.98 -2.67,-2.09 -4.66,-3.96 -7.02,-6.1 -7.87,2.02 -19.35,2.63 -24.81,8.54zm-40.65 -1228.86c-8.29,0.48 -4.66,-4.66 -9.76,1.71 1.48,6.86 9.83,7.06 24.73,6.77 -1.81,-7.95 -4.42,-14.62 -12.11,-17.59 -4.75,6.01 -1.7,0.88 -2.85,9.11zm43.45 1093.25c2.61,5.12 8.31,8.87 12.86,12.89l21.27 -7.29 -26.09 -11.96 -8.04 6.36zm279.15 -36.23c7.91,-4.03 36.76,-46.65 37.19,-55.21 -10.23,2.81 -25.31,28.04 -31.26,38.52 -4.74,8.35 -7.54,5.59 -5.94,16.69zm-348.03 -1020.53c8.34,1.29 13.71,-0.27 21.06,0.93 6.99,1.14 14.77,2.56 21.72,1.37 -2.59,-3.84 0.05,-1.73 -5.87,-4.23 6.42,-3.79 3.13,-0.07 3.87,-6.01l-46.02 -2.82 5.23 10.77zm-533.58 577c3.73,3.39 0.69,1.29 6.7,3.05 0.97,7.06 0.17,3.81 -0.02,10.03l6.8 -0.74c0.38,7.11 -5.21,8.47 5.13,12.57 2.24,-13.89 7.01,-15.08 1.54,-28.35l-8.15 -2.52 -4.65 -12.08c-4.28,3.59 -6.27,12.5 -7.36,18.04zm258.12 -261.96c4.57,2.1 4.54,2.84 8.59,0.86l66.67 -32.11c-5.4,-5.73 -7.66,-4.09 -19.12,1.09 -12.71,5.75 -51.18,21.69 -56.14,30.16zm590 79.52c-4.07,-8.15 -59.86,-62.4 -72.36,-58.52 1.48,7.37 27.06,24.02 34.73,30.34 6.03,4.97 11.28,9.88 17.03,15.13 7.77,7.1 11.02,14.79 20.6,13.04zm-681.72 -1.68c7.67,-3.78 30.41,-26.86 40.09,-34.46l32.67 -24.15c7.58,-5.01 8.33,-3.27 6.79,-10.5 -2.58,-0.68 1.75,-3.11 -6.27,0.74l-39.03 29c-6.8,5.36 -13.89,10.91 -20.27,16.91 -3.18,2.99 -6.16,5.92 -9.52,8.93 -6.79,6.1 -6.97,5.37 -4.46,13.53zm808.31 251.11c3.4,-11.61 -9.24,-49.13 -13.42,-62.67 -4.63,-15 -5.14,-5.49 -7.16,-18.27 -1.11,-7.04 -8.18,-30.61 -14.83,-31.29 -3.48,7.24 11.96,40.26 17.21,58.17 3.31,11.29 4.68,19.49 9.79,29.85 2.59,5.25 -3.86,20.36 8.42,24.21zm-641.45 -365.5c6.78,8.35 26.07,-3.38 51.95,-9.88 18.8,-4.72 40.03,-7.09 57.36,-11.81 -4.79,-9.08 -13.02,-4.94 -23.23,-3.01 -10,1.89 -19.26,3.71 -29.21,6.12 -13.48,3.27 -47.89,10.33 -56.87,18.58zm536.35 80.88c-16.05,4.7 -4.64,-6.87 -16.59,-4.99 -0.13,5.84 0.88,0.44 4.23,8.3l-15.23 -3.56c3.88,6.85 5.94,4.46 13.86,12.69 6.21,6.45 5.52,2.6 11.76,7.02 5.5,3.9 14.2,13.63 15.7,19.63 1.7,6.78 -1.28,2.45 3.65,9.4l8.5 -11.6c-5.5,-17.53 -16.08,-10.92 -20.31,-28.82 5.53,2.41 2.71,2.1 8.05,0.36l-21.49 -20.77c1.53,6.8 3.71,5.2 7.87,12.35zm-396.5 848.06c40.8,-0.91 78.04,2.24 118.79,-8.1l2.18 -8.13c-22.73,2.72 -43.07,6.59 -65.58,7.5 -18.03,0.73 -46.94,-1.82 -61.94,-0.01l6.55 8.74zm-70.93 -1200.5l59.55 -5.92c9.16,-0.86 7.12,-4.07 18.32,-6.88 6.84,6.95 11.64,11.43 15.85,-0.79 6.01,8.19 0.4,6.39 26.13,6.54 0.68,-4.61 1.6,-6.59 2.18,-10.49 -22.7,-1.13 -110.37,1.02 -126.08,8.53l4.06 9zm161.31 1047.35c-3.74,11.76 -11.63,18.17 -14.12,26.77 6.41,3.42 3.69,0.64 6.17,0.94 8.27,1 -3.43,1.07 7.77,3.16 9.79,-7.98 -3.94,0.89 8.13,-11.75 10.38,-10.87 9.56,-12.92 14.13,-19.06l8.62 1.69c1.18,-2.83 2.3,-6.12 3.08,-7.68 3.51,-7.04 2.08,0.84 3.44,-6.84 -5.38,-4.45 -4.7,-5.7 -11.14,-3.19 -1.75,5.26 -0.67,4.24 1.09,10.45 -4.25,-2.65 -1.12,-0.03 -3.94,-3.53 -0.79,-0.98 -1.17,-2.48 -2.88,-4.76l-7.69 4.01c-6.24,-10.17 -14.72,-12.83 -31.82,-15.27 4.1,8.38 11.07,23.23 19.16,25.06zm-315.86 348.81c0.32,0.49 0.23,4.94 0.23,4.96 -5.74,-4.26 -9.19,-1.19 -12.17,3.89 5.87,4.07 14.64,7.69 21.67,6.75 2.41,-3.13 2.36,-4.87 3.12,-8.16 36.16,17.07 -24.2,6.05 47.91,26.39 5.81,1.64 11.8,3.05 17.41,4.66 10.95,3.14 7.41,2.96 14.08,-2.16 0.21,6.35 -2.08,1.41 2.26,6.69l15.4 -2.64c-0.3,-5.93 -4.3,-9.96 -10.8,-10.99 -9.8,-1.54 -8.7,2.77 -14.51,5.21 -11.93,-5.59 -1.29,-8.62 -19.36,-13.47l-65.22 -21.14zm697.5 -502.85c12.42,-5.55 15.32,-23.24 20.64,-41.72 4.54,-15.78 7.93,-32.02 10.94,-48.01 4.68,-24.86 6.63,-50.81 7.18,-76.16 0.24,-11.08 1.98,-19.88 -5.94,-26.63 7.55,-7.08 5.44,-5.15 4.06,-21.63 -0.73,-8.7 -0.34,-19.33 -8.08,-23.37 -1.66,6.4 2.96,52.33 2.82,64.95 -0.24,20.86 -1.24,40.08 -4.02,60.61 -1.22,9.01 -13.97,77.71 -17.64,84.01 -4.52,7.79 -9.46,18.59 -9.96,27.94zm-595.53 -822.13l1.87 9.57 22.09 -3.61c7.95,17.17 9.2,56.83 16.05,76.88l11.57 -1.52c2.86,-17.94 -15.12,-61.33 -11.89,-78.04l21.75 -4.85 -1.97 -10.74c-5.69,-0.54 -54.17,7.33 -59.47,12.31zm707.22 296.63l10.71 21.2 -68.05 38.89 5.69 11.08c15.22,-3.96 51.67,-30.38 69.56,-38.24l11.15 19.64 10.5 -5.03c-3.08,-7.95 -26.09,-48.5 -30.45,-52.3l-9.12 4.76zm168.76 244.5c-3.78,4.27 -5.48,4.83 -0.36,10.37 1.81,1.95 6.98,6.91 8.9,7.83 2.02,-13.96 -10.51,-58.43 -13.06,-77.3 -8.45,-2.69 -5.48,3.14 -8.2,-4.28 3.19,-3.04 -0.47,-1.77 6.38,0.33 -2.04,-23.18 -18.71,-69.3 -27.37,-92.32l-9.98 2.24c1.64,5.58 4.58,11.02 7.07,15.75l26.37 101.38c2.9,14.98 3.82,32.78 10.25,36zm-169.57 268.61c7.14,3.83 66.42,20.26 75.3,21.36l-5.16 23.12 10.17 3.58c4.18,-6.5 14.61,-47.7 16.96,-57.6 -4.29,-2.81 -5.34,-3.26 -11.13,-2.83l-6.62 20.86c-20.25,-3.02 -60.77,-19.74 -76.69,-19.57l-2.85 11.08zm-607.16 -635.02c7.06,6.38 26.11,1.46 36.1,1.07 72.91,-2.82 129.62,8.19 197.39,34.57 3.44,1.34 26.19,14.03 28.74,10.1 1.14,-5.22 -2.66,-6.27 -9.25,-9.23 -4.73,-2.12 -10.43,-4.19 -15.01,-6.22 -9.75,-4.31 -20.3,-8.39 -30.47,-11.65 -21.95,-7.05 -42.41,-12.59 -64.66,-16.9 -11.57,-2.24 -22.52,-3.76 -34.07,-5.06 -26.28,-2.97 -10.56,-1.8 -25.36,-0.33 -5.03,0.5 0.06,-0.67 -7.61,-2.26 -6.78,-1.41 -29.02,-0.6 -36.96,-0.29l-28.47 1.75c-0.36,0.04 -4.9,0.64 -4.91,0.64 -6.04,2.07 3.7,-2.53 -3,1.47l-2.49 2.35zm-402.58 347.98c5.17,-5.06 6.84,-18.21 9.56,-26.01 3.2,-9.19 6.55,-18.19 10.19,-27.01 36.34,-87.93 85.03,-132.07 90.35,-143.64l-6.05 -3.22c-41.12,38.58 -83.95,115.79 -102.33,170.81 -4.13,12.38 -8.94,18.24 -1.71,29.06zm442.41 -453.5l-0.41 -10.31c-19.53,4.37 -37.7,11.88 -42.29,-12.31 -13.47,-71.04 19.12,-48.7 37.62,-52.81l-0.81 -9.68c-11.26,-4.43 -33.93,-3.83 -43.75,3.97 -15.28,12.15 -9.03,73.81 4.29,83.54 10.28,7.51 34.08,2.05 45.35,-2.41zm146.08 1040.95c5.44,-0.13 11.66,-1.74 17.06,-3.81 8.37,-3.2 5.38,-3.81 11.91,-9.75l2.29 4.57c37.06,-11.26 80.08,-36.34 111.6,-57.36 24.1,-16.08 66.54,-51.72 83.64,-74.6l-6.29 -3.58c-29.6,30.54 -59.79,59.01 -96.8,81.65 -36.91,22.58 -70.25,40.14 -111.95,52.2 -10.29,2.98 -12.67,0.55 -11.46,10.68zm262.49 -793.13c5.29,4.9 5.56,1.68 5.42,9.84l-7.25 -2.6 -5.73 7.7c6.9,9.11 15.38,26.46 28.1,22.97 -0.42,-3.27 -0.99,-3.97 -1.13,-4.89 -0.58,-3.87 -0.91,-2.85 -0.27,-6.04 4.52,1.32 7.01,1.67 10.32,10.72 -5.96,2.18 -8.15,2.45 -12.59,6.96 0.89,3.22 27.41,47.92 30.75,52.79l8.92 -0.8c-4.73,-7.44 -0.04,-1.69 -7.06,-5.59 5.91,-7.08 6.34,-4.44 11.27,-9.43 -3.99,-5.64 1.2,-0.24 -7.46,-2.84l7.7 -7.51 -14.55 -23.65c-7.35,-1 6.16,0.01 -2.76,0.34 -3.77,0.14 -0.81,1.03 -4.21,-0.31 2.81,-10.98 2.02,-9.19 -15.05,-31.05 -5.68,-7.27 -16.01,-21.59 -22.47,-27.32l-1.95 10.7zm-136.65 601.5c-13.54,2.03 -9.17,-3.37 -12.98,-9.48 -11.24,1.76 -7.74,6.63 -13.62,0.04 3.37,-4.39 4.35,-5.12 9.86,-6.91 5.81,3.84 14.28,9.97 16.74,16.35zm-8.72 -25.47c-3.65,-2.16 -3.53,-2.82 -7.74,-2.81l-6.79 7.44 -28.18 -7.91c3.17,7.89 12.37,23.91 16.44,29.99l-9.71 6.83c2.94,6.68 3.52,1.16 7.02,7.38 -8.88,0.74 -11.04,-4.43 -13.14,6.11l27.13 -5.27 17.42 22.42c5.71,-7.54 1.37,-19.62 5.57,-29.2 7.55,-3.07 17.21,-4.42 22.95,-9.82 -3.16,-7.12 -14.05,-7.93 -22.2,-12.44 -2.98,-9.83 -1.35,-20.33 -2.36,-30.61 -6.11,5.06 -3.06,1.36 -5,11.78l-1 4.47c-0.1,0.42 -0.25,1.09 -0.39,1.63zm-896.77 -83.41l9.88 -2.09c-2.96,-13.2 -7.85,-18.64 -7.45,-33.2 25.23,-15.76 26.38,3.83 31.76,20.85l8.76 -1.05c1.6,-8.66 -3.97,-19.33 -0.74,-26.92 3.43,-8.06 16.24,-9.95 23.24,-6.45 9.12,8.72 6.95,24.64 8.48,36.38l10.77 -2.69c0.93,-12.67 -1.67,-39.19 -13.39,-46.36 -12.46,-7.62 -34.42,-1.76 -39.09,14.89 -5.98,-1.97 -7.89,-6.91 -16.93,-6.9 -35.19,0.03 -27.49,34.19 -15.31,53.55zm932.23 -749.98c10.21,6.48 22.25,5.54 29.54,16.01 0.31,7.18 -4.87,17.61 -12.39,18.95 -9.47,1.69 -14.33,-7.61 -24.14,-7.32l-4.12 6.13c5.49,8.32 35.51,14.16 17.49,34.5 -13.16,14.86 -28.61,-9.37 -40.57,-11.63l-3.65 10.02c18.93,15.11 44.93,32.41 58.78,4.24 5.9,-11.99 5.2,-14.59 -1.33,-25.73 11.2,-2.57 13.26,-3.12 19.24,-12.61 18.38,-29.16 -22.51,-40.3 -34.05,-41.3l-4.8 8.73zm-479.23 45.15l51.41 -15.37 -2.76 -11.55 -39.38 11.79 -8.63 -28.17 29.06 -8.7 -2.68 -11.33 -29.59 9.03 -7.56 -24.84 37.1 -11.64 -2.77 -10.63 -50.25 14.25 26.05 87.15zm110.97 878.33l-29.18 -7.61 14.85 25.95 -16.74 25.3 29.47 -6.22 18.7 23.21 3.72 -29.54c12.53,-5.36 12.38,-6.95 20.08,-8.3 4.33,-0.75 2.85,-0.03 7.39,-1.98 -3.25,-4.27 -20.49,-10.59 -26.44,-11.56l-1.54 -30.95 -20.31 21.7zm495.99 -799.58c2.85,-6.91 16.5,-20.22 22.42,-24.97 7.51,3.5 15.43,11.22 18.2,19.48 -2.39,10.99 -10.9,18.93 -22.67,21.01l-17.95 -15.52zm-41.33 23.29l8.41 9.39 24 -24.36c16.1,9.86 28.76,37.39 57.77,2.58 9.76,-11.72 7.49,-20.12 -2.85,-31.03 -6.18,-6.52 -18.74,-17.51 -26.29,-21.65l-61.04 65.07zm-663.25 -158.57l35.57 82.69 49.39 -21.04 -3.6 -10.34c-12.72,1.48 -26.21,10.69 -38.63,14.77l-11.23 -26.45 28.11 -12.32 -4.87 -10.62 -26.83 11.52c-0.5,-0.64 -1.18,-1.69 -1.21,-1.41 -0.03,0.28 -0.81,-0.84 -1.03,-1.14l-4.1 -7.97c-1.8,-4.24 -3.58,-8.14 -5,-12.54l35.05 -15.59 -3.55 -10.45c-7.3,0.87 -42.36,16.37 -48.08,20.9zm-240.91 195.34c4.32,5.95 61.44,52.68 69.77,57.8l34.17 -40.21 -8.55 -8.34 -26.74 31.83 -21.46 -18.83c4.59,-9.18 15.55,-15.71 17.77,-25.31l-5.87 -5.48c-8.73,3.2 -13.98,15.47 -21.25,21.93 -6.72,-2.45 -16.29,-10.08 -19.12,-16.44l23.37 -29.24 -8.96 -7.51 -33.15 39.8zm1104.11 483.27l40.56 6.94c-7.01,10.42 -32.94,16.26 -44.54,23.26l-3.31 15.01 51.27 -23.4c5.88,5.87 33.84,33.03 38.91,35.1l2.7 -14.48c-9.26,-8.32 -31.58,-23.75 -35.41,-33.69l39.02 5.52 2.72 -12.6 -89.18 -14.43 -2.74 12.76zm-829.51 -352.31l-27.83 8.75c3.58,4.73 19.35,10.39 26.01,14.68l-0.1 29.66 21.26 -20.7 28.53 8.8 -13.49 -27.52c4.76,-5.45 17.33,-18.45 16.64,-24.1l-28.92 5.22c-3.81,-6.54 -10.7,-18.6 -16.76,-22.15 -3.62,8.26 -2.49,18.42 -5.35,27.35zm895.74 121.01c8.47,16.09 9.35,28.6 -10.41,32.54 -19.37,3.87 -19.69,-10.03 -22.61,-25.97l33.02 -6.56zm-77.77 15.98l32.81 -6.81c10.56,23.12 4.58,45.96 43.3,35.59 31.8,-8.52 16.14,-36.39 9.48,-60.94 -11.9,1.92 -81.29,16.49 -88.18,20.31l2.59 11.85zm-498.67 -223.18l-28.55 9.32 26.09 13.65 0.44 29.86c8.71,-5.06 14.03,-15.04 22.38,-19.98l27.62 9.07 -13.4 -26.84c3.83,-6.69 17.06,-19.41 16.73,-25.19l-28.4 5.09 -17.16 -23.38c-4.54,7.2 -3.19,19.22 -5.74,28.42zm-777.74 487.72c-7.79,10.12 -8.99,0.1 -4.59,19.32 2.09,9.14 4.01,18.28 6.28,27.4 3.79,15.23 12.82,39.63 14.76,52.57 9.05,1.67 11.74,0.77 14.63,8.62 -4.22,-0.41 -5.97,-1.1 -10.46,0.93l5.91 20.14 12.15 2.11 6.22 11.84c-9.9,-2.45 -0.44,1.15 -7.02,-5.17 -3.96,-3.8 -0.95,-3.4 -7.28,-1.56 0.69,7.28 11.62,31.23 14.98,38.43 7.85,2.67 0.74,-2.12 5.66,0.32 4.82,2.39 -3.75,2.16 6.49,4.36 3.55,-7.47 -0.46,-14.21 -5.26,-22.09 -10.39,-17.03 -35.06,-102.89 -40.44,-126l-11.26 -53.13c-3.99,-2.18 -2.82,-0.43 -6.22,-3.16 -4.94,-3.95 1.05,-2.15 -6.07,-5 -4.2,18.2 8.35,26.17 11.52,30.05zm70.06 -297.23l85.46 25.53c5.27,-7.7 15.68,-43.76 15.79,-52.85l-10.01 -1.83 -12.18 37.72 -26.99 -7.3c-1.05,-9.59 6.78,-20.05 6.49,-31.44l-9.82 -1.71 -8.87 27.72c-7.54,0.37 -18.02,-3.08 -24.53,-6.58 1.92,-12.33 9.34,-24.77 9.62,-37.07l-10.24 -3.25c-4.37,10.97 -14.57,40.92 -14.72,51.06zm121.17 512.43c8.35,6.93 10.56,9.45 16.18,19.37 -5.99,7.25 -19.33,15.59 -28.61,19.58 -2.92,-5.32 -30.51,-32.4 12.43,-38.95zm-12.83 55.82c8.88,-3.05 64.38,-41.68 74.75,-49.71 -1.65,-5.08 -3.68,-8.37 -7.74,-10.85l-27.93 18.28c-14.5,-26.1 -29.05,-37.14 -55.63,-15.63 -12.37,10.01 -12.09,17.35 -3.5,31.51 4.45,7.34 14.07,20.6 20.05,26.41zm1113.32 -346.4l11.34 0.96 2.24 -40.37 28.09 0.68 -0.38 31.15 11.44 0.4c2.68,-9.45 -1.21,-22.76 3.08,-30.6l23.15 0.59c2.67,11.41 -4.55,31.53 2.06,39.68l9.15 0.03c2.48,-8.6 3.76,-43.66 2.04,-52.76l-89.8 -3.79c-2.33,7.34 -3.65,45.76 -2.41,54.04zm-1245.44 -54.79c24.48,-0.71 72.44,6.36 92.2,2.65l1.68 -53.25 -12.53 -0.89 -1.8 40.49 -28.39 -0.94c-0.78,-10.21 2.13,-21.43 -0.3,-31.23l-10.51 -0.29 -1.97 30.59 -24.56 -0.73 0.74 -38.89 -12.3 -1.15 -2.26 53.62zm150.07 425.08l38.43 44.55 68.25 -59.51 -8.48 -10.39 -58.84 51.68 -21.2 -23.01 57.98 -52.77 -7.31 -9.98 -68.83 59.43zm1052.89 -645.31l3.75 12.44 74.58 -26.08 10.73 29.9 -73.48 26.82 3.43 12.36 85.2 -30.02c-0.58,-9.39 -14.62,-44.6 -18.83,-55.5l-85.38 30.08zm-936.99 742.28c1.09,-7.12 12.49,-33.89 16.92,-39.43 5.66,3.24 13.17,8.47 16.98,13.58 -5.12,6.54 -25.95,22.19 -33.91,25.85zm-15.2 1.89l15.68 13.66c8.84,-4.52 72.01,-50.95 75.66,-56.39l-9.24 -8c-7.86,4.19 -14.42,12.21 -23.07,14.95l-22.25 -17.24 9.44 -24.65 -9.42 -8.67c-5.19,4.87 -33.12,74.94 -36.8,86.35zm-133.67 -36.87l8.15 -10.57c-13.38,-16.89 -26.66,-32.07 -39.26,-49.27 -2.93,-4 -6.39,-9.71 -9.45,-13.23 -3.12,-3.59 -3.67,-3.08 -4.94,-5.17 -2.68,-4.43 -9.73,-24.72 -22.85,-30.24 4.87,-5.67 -6.54,-19.07 -14.45,-33.45 -6.44,-11.71 -11.79,-24.08 -18.19,-35.68l-2.73 6.96c-4.68,-4.35 -5.82,-5.36 -11.72,-7.31 11.04,29.56 35.97,71.08 53.39,97.33 11.59,17.47 47.49,69.7 62.05,80.64zm1258.32 -302.43l8.82 1.46c5.16,-12.19 9.34,-38.33 11.87,-51.99l6.26 -39.5c1.12,-10.76 -1.12,-7.38 -3.77,-14.9l6.46 -4.61 2.96 -78.69c0.08,-13.73 -0.39,-27.41 -1.52,-41.1 -2.13,-25.81 1.07,-37.6 -12.49,-37.51 -0.72,3.72 5.93,94.44 1.34,139.93 -2.25,22.25 -4.15,41.99 -7.94,64.11 -1.95,11.39 -13.12,55.91 -11.97,62.78zm-1308.09 -469.91l32.44 14.44c-0.25,5.19 -9.07,23.9 -11.69,29.24 -10.65,1.37 -24.61,-11.06 -36.57,-12.42l-3.63 10.35c3.81,3.93 75.44,36.5 82.32,37.49l5.71 -10.57 -36.62 -17.28c-0.1,-6.45 8.57,-23.82 11.88,-29.97 7.82,-0.04 28.9,12.21 38.09,15.22 2.96,-4.49 4.85,-6.62 4.43,-12.7 -8.92,-4.8 -76.51,-35.07 -82.3,-35.11 -0.66,1.53 -1.82,3.82 -2.39,5.18 -2.22,5.35 -1.3,1.28 -1.65,6.12zm239.21 850.32c3.76,4.47 5.58,5.56 11.23,6.51l18.67 -30.81 28.2 15.9c-1.56,8.47 -12.33,23.53 -17.07,31.92l10.6 7.18c5.42,-6.33 44.12,-72.87 45.29,-78.42l-10.78 -6.48 -19.83 34.73c-8.54,-1.57 -20.91,-11.37 -29.49,-15.7l20.12 -35.51c-4.58,-4.67 -6.25,-6.16 -12.19,-6.4l-44.77 77.1zm1015.52 -604.01c-11.57,6.28 -36.21,8.26 -49.64,7.79 -25.65,-0.91 -17.8,-29.48 -13.79,-32.59 1.51,-1.17 83.97,-26.91 63.43,24.8zm-71.49 -35.57c-13.3,9.56 -10.95,48.87 9.34,55.1 13.56,4.16 58.27,0.26 69.39,-7.99 12.08,-8.96 10.24,-48.35 -8.94,-54.76 -13.55,-4.52 -58.52,-0.45 -69.79,7.66zm-1101.96 357c-4.76,10.36 -19.82,15.69 -30.23,20.86 -13.98,6.94 -25.51,15.36 -34.83,-1.03 -9.79,-17.22 -3.37,-21.19 11.77,-29.38 12.23,-6.61 26.15,-14.31 40.08,-15.39 7.9,6.69 12.67,14.01 13.21,24.94zm-39.38 -30.89c-18.6,9 -50.03,18.02 -41.6,43.88 9.72,29.85 22.23,36.38 51.17,22.59 18.7,-8.91 48.48,-18.87 40.94,-43.7 -9.19,-30.27 -22.81,-36.18 -50.51,-22.78zm911.73 -722.27c-50.83,-10.12 9.75,-66.67 15.79,-67.29 5.67,-0.59 16.25,6.56 19.42,10.98 9.94,13.84 -24.24,53.23 -35.21,56.31zm2.85 -76.31c-11.17,7.74 -33.73,39.82 -37.21,51.88 -5.87,20.31 29.41,46.44 48.01,33.35 10.54,-7.41 33.8,-40.33 36.97,-51.61 3.96,-14.09 -4.75,-21.87 -15.34,-29 -10.82,-7.29 -19.63,-13.48 -32.42,-4.61zm-186.32 -74.37c-0.09,9.66 -6.64,35.35 -10.32,44.46 -7.05,17.42 -35.13,10.81 -35.25,-5.89 -0.06,-8.55 7.06,-35.57 10.42,-44.15 6.9,-17.65 35.29,-9.95 35.16,5.58zm-37.14 -24.41c-13.81,10.23 -19.72,42.82 -21.32,59.77 -3.35,35.45 42.61,33.66 51.04,28.08 11.21,-7.42 19.5,-46.29 20.56,-59.84 1.2,-15.43 -2.47,-22.36 -17.05,-27.22 -10.43,-3.48 -24.35,-7.37 -33.23,-0.79zm417.87 865.77c8.83,-7.56 59.13,10.69 60.91,25.16 0.68,5.49 -4.35,17.85 -8.77,20.97 -9.01,6.35 -58.85,-11.95 -60.86,-25.13 -1.11,-7.27 4.01,-16.97 8.71,-21zm-7.21 -11.22c-11.17,11.5 -26.66,41.21 3.91,56.04 36.01,17.47 66.15,32.97 76.77,-16.43 3.22,-14.98 -6.4,-20.97 -17.31,-27.2 -13.51,-7.73 -50.47,-25.69 -63.37,-12.41zm-11.69 -581.45c-3.61,6.03 -28.76,24 -35.73,28.11 -21.6,12.76 -32.52,-13.75 -28,-21.81 4.1,-7.3 27.42,-23.65 35.14,-28.43 22.32,-13.82 33.21,14.4 28.58,22.14zm-27.94 -37.99c-12.26,5.78 -46.23,29.13 -50.31,41.61 -3.83,11.69 5.63,23.93 12.73,32.23 10.06,11.76 16.91,13.85 32.08,6.89 11.89,-5.45 45.46,-30.1 48.56,-42.53 2.45,-9.83 -15.26,-51.32 -43.07,-38.2zm-303.94 -138.56c0.55,-7.11 7.8,-22.4 10.36,-29.77 8.84,1.69 21.1,5.56 27.06,12.1 1.54,9.87 -2.47,17.81 -8.3,25.26 -10.14,2.34 -20.3,-3.74 -29.13,-7.6zm-15.92 3.96c5.67,4.12 23.4,11.62 30.95,14.11 14.42,4.75 24.03,3.77 30.83,-10.43 20.83,-43.57 -9.96,-35.08 -30.74,-48.33l8.63 -23.48 38.12 13.88c3.52,-6.96 3.43,-4.28 3.62,-12.28l-48.99 -18.03c-3.64,4.63 -31.98,78.32 -32.41,84.56zm-162.11 -79.92c-8.99,-23.49 7.9,-34.8 28.78,-25.71l-1.28 29.2c-8.24,1.62 -20.64,0.92 -27.5,-3.5zm-3.39 14.44l-19.66 35.48 14.59 1.83 17.38 -36.49 16.91 -0.26 -0.88 38.14 12.65 1.01c2.52,-7.07 5.95,-81 5.12,-91.37 -28.26,-0.52 -60.8,-14.38 -59.32,27.88 0.6,17.25 6.35,13.99 13.22,23.79zm-126.76 274.12l-33.41 10.04c3.69,4.71 23.78,13.35 30.71,16.01 2.91,9.93 0.12,5.81 7.33,11.96 2.97,2.53 5.73,5.33 9.93,7.04l8.34 -8.02 33.72 11.68c-4.18,-11.55 -13.77,-21.63 -15.68,-33.46 4.35,-5.5 19.31,-22.01 19.09,-27.75l-34.22 6.34 -19.74 -28.85 -6.06 35.02zm-447.71 -27.64l41.06 63.8c-10.42,-1.67 -45.59,-29.1 -58.9,-34.88l-7.42 9.97 76.03 48.58 9.09 -12.62 -41.63 -64.61 59.47 35.32 7.06 -9.89c-7.49,-8.07 -28.19,-18.37 -38.14,-25.22 -12.33,-8.49 -25.31,-14.95 -37.45,-23.91 -4,3.31 -7.09,8.55 -9.17,13.45zm137.6 -152.38l19.31 72.98c-13.09,-5.97 -31.48,-39.11 -45.2,-49.93l-9.9 6.94 57.96 69.92 12.34 -9.46 -20.11 -74.73c12.5,7.43 33.36,42.31 46.26,51.81l9.77 -6.76c-10.1,-18.39 -42.97,-51.12 -57.89,-70.5l-12.55 9.73zm-221.8 707.58c5.54,29.23 36.23,11.97 80.81,23.74l-64.57 22.99 3.2 11.75c8.97,-0.38 73.43,-23.34 85.77,-28.09l-3.71 -14.85c-15.15,-4.1 -68.25,-4.83 -76.51,-9.48l64.62 -22.93 -3.66 -12.44 -85.94 29.31zm1201.95 152.92c-6.55,-0.98 -17.9,-6.96 -18.22,-14.29 -0.21,-4.91 7.39,-16.81 9.9,-21.45 8.48,1.04 15.85,7.83 23.64,11.59 -1.18,7.71 -7.81,20.56 -15.32,24.15zm-17.16 -42.42c-1.11,5.57 -6.86,15.14 -10.5,19.58 -6.37,7.77 -12.34,5.8 -19.9,1.5 -22.45,-12.76 2.63,-34.5 4.97,-35.97l25.43 14.88zm-11.5 33.99c3.34,15.11 25.06,30.03 37.93,18.25 5.96,-5.46 20.38,-31.81 21.91,-39.02l-76.25 -45.19c-7,5.18 -24.15,34.19 -24.78,43.13 -0.79,11.13 7.18,17.33 15.36,21.9 10.42,5.82 14.79,6.14 25.83,0.93zm-1146.98 -266.64c-1.8,-5.89 -4.63,-23.51 -0.51,-28.68 5.42,-6.8 20.37,-6.51 27.17,-2.81 4.99,7.51 4.13,19.01 4.1,28.07 -6.3,2.76 -23.73,4.16 -30.76,3.43zm-37.71 2.89c-3.41,-9.7 -3.3,-17.22 -2.08,-26.97 23.5,-9.07 29.71,-0.06 27.51,25.71l-25.42 1.26zm-9.57 14.66l89.52 -7.03c0.06,-13.28 0.57,-43.14 -7.97,-52.9 -5.72,-6.54 -15.14,-5.85 -22.85,-5.06 -13.41,1.37 -13.92,3.08 -20.98,12.45 -9.02,-4.9 -7.36,-6.23 -19.94,-5.83 -7.94,0.25 -16.85,1.69 -20.49,9.3 -4.32,9.05 -0.21,39.13 2.71,49.07zm958.23 -495.31l12.39 -5.7c1.32,8.68 3.05,12.38 -5.24,16.25 -4.79,-3.67 -5.69,-4.72 -7.15,-10.55zm-4.21 -16.62l-9.82 4.72c-0.64,-6.77 -1.48,-6.8 2.38,-12.25 4.82,2.08 4.72,2.07 7.44,7.53zm-58.73 -29.72l-2.15 -6.56c7.12,-1.86 11.92,2.26 13.73,9.01 -6.43,-2.54 -4.12,-3.09 -11.58,-2.45zm0 0l1.23 6.81 -7.59 4.74c10.42,6.86 37.78,19.72 55.13,32.91l39.02 29.06c2.81,1.4 12.67,-0.37 16.73,-2.22 1.04,-4.91 -0.15,-2 0.29,-6.37 0.56,-5.6 1.28,-2.03 1.21,-8.11l-38.74 -29.48c-5.22,3.29 -6.23,3.04 -8.54,2.37l3.82 -3.65c-3.29,-5.26 -17.78,-13.85 -23.58,-16.69 -4.54,-2.23 -10,-3.16 -13.48,-6.07 -5.53,-4.63 -5.51,-5.14 -12.39,-8.6 -10.48,-5.27 -45.38,-21.97 -55.69,-24.4l2.44 5.42 -12.03 5.05c-1.73,6.02 0.31,3.7 -2.88,10.75 14.06,2.92 33.55,15.97 43.78,17.17 -5.34,-10.18 -12.74,-7.24 -15.16,-19.69l5.32 -5.84c6.46,2.99 12.88,14.71 21.11,16.83zm-876.02 332.69l65.31 11.06 -5.45 31.47 -48.89 -12.93c-2.95,-0.89 -5.76,-1.45 -8.66,-2.3l-7.25 -3.23 4.94 -24.08zm-18.51 33.33c5.95,3.9 63.8,19.79 74.56,22.32l0.88 7.75c7.63,1.61 21.05,5.18 27.51,3.22l0.77 -8.36 -13.59 -5.36c-0.94,-8.58 4.62,-40.05 7.96,-47.5l15.84 -1.41 1.07 -8.28 -26.7 -5.53 -2.97 7.39 -76.24 -12.98c-4.39,8.94 -8.3,37.91 -9.09,48.73zm1116.89 -487.9c0.3,15.35 8.52,18.51 19.99,26.58 11.39,8.01 60.36,58.74 70.13,69.46 21.46,23.53 45.16,54.84 63,81.81 5.94,8.98 11.28,23.46 21.42,27 -0.62,3.59 -4.38,0.21 3.63,13.79l24.3 46.67 7.73 1.57 -4.36 5.98 15.16 34.27c12.19,-1.17 9.57,-4.7 1.82,-21.9l-24.04 -49.93c-2.91,-5.28 -6.26,-13.5 -10.28,-17.49l-14.61 -26.1c-28.37,-46.74 -69.31,-98.2 -107.9,-135.73 -11.86,-11.53 -59.77,-56.81 -72.06,-61.04l6.08 5.08zm-378.32 -150.63c0.61,11.04 24.42,11.55 31.45,7.23 7.4,6.62 23.64,9.84 33.5,8.31 -6.41,-3.79 -2.58,0.52 -5.2,-5.9 8.39,0.4 12.61,-0.16 19.82,5.91 10.44,8.78 6.65,5.5 19.45,8.29 12.01,2.62 28.05,7.88 40.45,11.68 26.43,8.11 52.7,17.86 77.71,28.93 30.72,13.59 80.7,39.06 107.9,58.45 7.5,5.35 26.91,21.07 34.75,22.45 -10.45,-23.23 -32.08,-33.55 -56.94,-48.44 -54.04,-32.37 -147.34,-74.32 -207.8,-83.94 -1.7,5.75 0.25,2.06 -1.16,7.52 -4.71,-5.95 -1.12,-2.63 -3.32,-9.14 -17.2,-2.08 -79.76,-19.29 -90.6,-11.35zm-412.53 153.58l11.61 50.02c-5.09,-0.04 -33.98,-25.95 -40.46,-31.11 -7.01,1.63 -12.37,5.91 -17.88,10.24l47.29 77.18 11.45 -5.88c-7.23,-19.39 -27.96,-41.99 -36.74,-61.31l40.43 30.72 9.8 -6.36 -9.88 -49.7 37.71 60.52 12.03 -6.8 -47.64 -77.88 -17.73 10.37zm93.89 1043.75c5.41,7.98 61.04,28.7 74.38,33.43 26.77,9.49 55.79,16.17 83.13,21.05 3.95,-15.17 -4.99,-0.28 10.45,-15.85l4.19 -5.35 -35.39 -7.6 -6.61 6.88c-1.21,-8.58 2.03,-4.43 -2.9,-9.04 -7.22,-0.68 -1.66,-0.03 -7.73,3.26 -12.14,-8.16 13.01,-0.02 -29.14,-13.67 -16.67,-5.4 -45.43,-15.9 -60.49,-24.06 -5.65,-3.06 -25.71,-13.59 -30.49,-14.5 4.1,13.38 4.6,7.97 8.89,15.06 4.15,6.86 -3.89,5.22 -8.31,10.4zm406.45 238.9c-42.94,5.84 -56.54,12.42 -113.87,16.28 -39.53,2.67 -65.55,1.86 -103.74,-0.67 -19.36,-1.29 -12.8,-2.74 -29.62,6.51l-2.16 -7.73 -37.61 -7.7 -15.07 9.22c5.51,4.66 23,5.55 30.9,6.93l2.14 -5.12c1.13,-1.57 -0.01,-0.83 2.89,-1.8 3.92,4.07 0.62,0.09 2.47,8.34l11.22 -2.54c8.51,7.29 33.29,7.3 45.35,7.77 12.57,0.5 38.65,5.17 47.71,-2.7l2.77 2.36c8.02,4.78 61.08,-2.12 70.87,-3.42 21.85,-2.89 90.94,-8.51 105.73,-20.2 5.47,-4.32 15.99,-9.79 18.32,-14.05 -4.13,-0.95 -0.22,-0.99 -5.87,-0.1l-32.44 8.64zm-383.61 -1162.96c1.84,-2.45 -3.73,-2.52 5.99,-3.21l0.98 5.21c-4.92,0.74 -3.57,1.19 -6.98,-2zm-61.04 15.91c4.76,6.77 1.38,-0.23 5.62,4.5l-5.8 6.8 -7.03 -6.15 -13.75 8.82c6.35,0.91 1.88,-0.38 8.04,1.64 1.14,4.65 8.67,19.31 -0.68,15.48 -4.19,-1.71 -10.24,-10.76 -12.34,-12.94 -12.79,8.1 -52.23,37.83 -57.45,49.69 14.92,17.81 1.82,10.12 14.13,17.9l45.17 -42.38 -3.71 -10.76c5.36,-0.34 13.56,1.39 17.62,3.75 5.26,-5.47 14.54,-10.18 21.44,-14.6l1.37 -13.82c-0.57,-4.47 -1.73,2.48 -0.66,-4.02 7.37,0.5 8.19,3.92 13.66,8.14 13.57,-8.44 55.33,-28.01 68.1,-32.86 -4.6,-7.12 -3.02,2.65 -8.61,-6.14 -2.76,-4.34 -1.6,-6.49 -5.44,-12.28 -17.35,-0.51 -46.51,22.34 -60.64,28.33 -6.13,2.6 -13.05,7.51 -19.04,10.91zm-265.2 933.82c4.53,3.53 18.74,20.26 24.12,25.84 7.75,8.02 17.33,17.03 25.83,24.69l40.33 34.29c12.84,10.21 8.68,5.16 12.85,5.08 2.57,3.67 -0.81,4.32 5.96,9.35 24.93,18.53 78.72,52.97 104.5,64.51 20.69,9.26 28.87,18.52 42.52,14.62 2.93,10.17 4.91,6.88 14.09,11.3 3.78,-11.29 -3.07,-3.11 7.07,-11.78 -20.31,-7.72 -38.03,-16.95 -58.07,-26.39 -5.47,-2.57 -8.71,-4.7 -14.13,-7.75 -10.35,-5.81 -6.04,2.34 -14.69,-6.62 -7.6,-7.87 -17.64,-13.69 -28.19,-13.28 -4.63,-10.03 -3.03,-5.31 -5.82,-7.31 -8.59,-6.12 -5.16,-3.27 -10.86,-3.73 -3.86,-7.2 -6.81,-13.39 -14.46,-9.46 -3.52,-11.47 -18.45,-18.13 -28.01,-25.78l-78.23 -70.58c-6.22,-3.13 -1.66,0.3 -9.19,-0.86 -2.48,-9.92 1.95,-1.92 -0.4,-9.52 -8.88,0.35 -5.83,3.71 -15.19,3.37zm154.95 -1116.4c3.48,6.88 1.35,-1 5.38,7.44 -9.78,1.78 -3.57,0.51 -11.82,-3.69 -16.82,9.17 -29.34,20.46 -42.65,29.51 -10.65,7.24 -6.88,4.3 -9.57,12.79 -10.85,-2.78 -8.01,2.54 -20.5,11.28 -12.64,8.85 -16.44,11.33 -15.6,18.25 -6.35,-1.76 -6.42,-0.61 -10.7,5.36l8.58 6.02c8.14,-4.02 22.4,-18.58 30.27,-25.09 5.01,-4.14 10.5,-8.83 15.49,-12.57 15.47,-11.6 9.98,-6.98 10.13,-14.28 6.6,4.27 15.04,-2.49 20.53,-8 3.35,-3.36 0.96,-0.65 2.27,-3.09 0.17,-0.32 0.35,-0.89 0.48,-1.19l0.75 -2.5c7.12,1.38 10.86,-2.9 17.06,-7.12l35.86 -22.41c16.58,-10.23 86.02,-42.96 102.8,-47.08l0.11 -6.02c9.58,5.57 21.22,-1.92 31.25,-5.17l77.66 -20.49c11.47,-2.38 25.17,-3.97 36.01,-7.03l-5.84 -9.81c-52.75,8.86 -104.27,23.76 -153.97,41.79 -24.73,8.97 -107.06,47.24 -123.97,63.1zm-0.26 277c5.26,9.23 7.79,8.23 11.21,21.1 -4.93,-1.3 -8.48,-6.02 -11.94,-10.23 -2.83,-3.44 -0.42,-1.9 -3.52,-5.79 -31.34,31.01 -92.09,132.03 -98.45,170.33 10.17,7.5 9.82,9.03 16.42,19.41 8.5,-7.96 15.25,-40.87 21.23,-51.68 32.25,-58.33 29,-59.79 72.94,-115.23 6.1,-7.7 13.53,-14.39 18.81,-21.97 -2.01,-8.82 -7.69,-13.77 -16.61,-15.8l-10.08 9.87zm-81.68 318.89l-6.31 4.1c-2.37,134.9 40.01,265.41 137.47,361.22 21.55,21.18 40.54,36.56 64.22,54.93 6.89,5.34 27.37,18.8 34.69,21.75 11.2,4.52 22.97,13.98 37.15,19.95 43.72,18.39 72.01,31.26 120.2,39.42 14.86,2.52 32.78,9.16 45.87,0.24 -5.74,-6.15 -36.18,-6.9 -46.44,-9.03 -48.45,-10.07 -86.32,-22.61 -131.11,-45.5 -120.77,-61.74 -208.03,-178.18 -240.2,-308.5 -13.76,-55.73 -16.17,-107.33 -10.56,-162.08 0.98,-9.58 8.47,-42.39 5.99,-48.51 -10.3,-0.31 -9.38,9.55 -12.76,32.98 -1.72,11.96 -7.15,29.67 1.79,39.04zm700.48 718.46c-0.84,17.19 32.52,-0.77 41.54,-4.33 14.03,-5.53 61.68,-25.13 73.42,-33.87 8.83,-6.58 11.16,-5.07 19.53,-9.75 14.34,-8.02 28.45,-16.85 42.26,-25.8 13.77,-8.93 26.12,-18.1 39.38,-27.55 7.87,-5.61 8.57,-13.62 11.33,-14.01 12.97,-1.82 5.23,1.43 17.02,-8.31 23.56,-19.44 44.86,-40.03 65.95,-62.1 10.11,-10.58 20.86,-22.82 30.19,-34.1 6.35,-7.67 7.94,-9.78 12.98,-18.3 3.14,-5.3 9.4,-10.02 13.92,-16.26 33.32,-46.01 64.29,-98.21 85.68,-150.89 5.57,-13.72 10.94,-26.95 15.84,-40.94 3.37,-9.63 14.81,-34.07 8.88,-41.9 -10.43,-1.47 -9.21,8.29 -11.26,16.34 -7.83,30.82 -44.79,109.13 -59.85,135.61 -14.22,25.02 -28.83,47.6 -45.46,71.07 -15.95,22.52 -4.63,8.14 -9.77,18.44 -1.99,3.99 -4.74,3 -8.24,5.48l-34.58 40.2c-7.64,8.34 -42.26,39.62 -44.4,47.8 -1.01,3.83 -9.25,3.86 -15.93,10.49 -35.17,34.9 -113.35,82.53 -158.31,103.71l-72.99 30.61c-4.09,2.35 -4.57,4.75 -8.88,6.07 -3.78,1.16 -3.9,-0.25 -8.23,2.28zm-908.21 -957.5c-8.7,3.03 -5.92,2.69 -12.72,21.22 -3.03,8.25 -5.76,16.76 -8.42,25.19 -12.75,40.33 -31.86,122.35 -30.87,160.69 6.19,2.84 8.07,3.87 9.27,11.3l-10.53 2.14c-1.87,23.68 -1.81,55.67 -0.81,80.33 0.32,7.94 -1.15,8.06 4.7,12.23 -5.72,7.49 -2.64,22.91 -0.56,32.72 11,4.27 6.1,5.21 13.3,9.07 1.47,-6.76 -1.08,-8.24 -1.43,-15.08 -1.55,-30.21 -4.4,-56.22 -3.2,-87.54 0.36,-9.54 2.29,-9.51 -5.25,-12.64 6.36,-5.91 -0.29,0.45 5.57,-3.04 2.41,-55.41 10.49,-104.23 24.05,-157.74 9.02,-35.59 22.75,-73.03 37.77,-106.94 5.48,-12.36 -0.01,-5.47 7.29,-17.15 3.4,-5.44 6.36,-11.65 8.46,-17.51l1.21 -2.68c17.8,-32.27 35.24,-61.79 56.63,-91.9 10.12,-14.25 21.47,-28.99 33,-42.49 6.16,-7.2 33.75,-36.65 35.89,-41.86 -2.31,-5.31 -1.79,-3.67 -7.09,-6.73 -16.65,8.72 -82.6,96.26 -94.26,116.72 -26.73,46.91 -39.9,65.11 -60.34,115.42 -3.46,8.51 -7.31,10.7 -1.66,16.26zm784.85 -232.85c8.11,0.89 5.01,0.75 11.61,-1.94l4.61 5.69 -11.07 3.24 -5.15 -6.99zm-303.03 18.13c2.34,3.34 2.63,3.11 5.15,5.74 10.01,10.43 -1.65,5.21 16.02,7.55 6.53,0.86 5.09,0.62 12.52,-1.98 26.6,-9.31 52.09,-15.5 79.73,-20.77 54.76,-10.44 126.14,-10.44 180.26,0.85 13.25,2.76 26.87,6.03 40.23,9.61 9.58,2.57 31.5,11.56 39.43,11.3 -3.97,-6.03 -12.81,-7.72 -17.79,-11.79l6.13 -9.96c7.3,2.79 17.73,16.22 22.67,4.03 -16.12,-4.62 -3.46,1.98 -18.69,-8.58 -3.69,-2.56 -16.35,-5.67 -21.26,-7.41 -9.42,3.4 0.28,-0.01 -5.43,3.43 -9.56,-9.28 -12.02,-8.85 -33.87,-12.87 -12.9,-2.38 -26.12,-5.05 -39.18,-6.48 -60.24,-6.62 -112.45,-5.26 -172.59,6.89 -16.65,3.37 -85.56,21.13 -93.32,30.46zm647.35 257.76c4.83,9.7 1.23,7.39 8.73,9.86 -2.4,6.44 0.68,12.23 5.24,16.23 2.61,-1.23 9.34,-5.53 13.14,-7.72 -0.27,1.27 -10.18,13.5 -9.42,20.46 4.3,10.89 13.86,19.83 24.93,21 -3.82,7.95 0.77,11.36 5.96,20.18 -10.66,-0.58 -8.24,-5 -17.07,-2.5 5.75,24.52 4.61,18.58 12.2,25.35l-4.74 3.9c3.95,13.84 6.2,26.67 8.73,40.15 4.85,25.88 -0.68,20.96 8.83,33.95l-4.27 -0.97 1.36 28.93c0.22,51.83 -0.5,81.41 -13.22,134.16 -3.93,16.29 -10.89,34.94 -13.97,49.4 5.86,3.73 3.94,-0.1 8.44,4.73 -10.02,1.35 -13.98,0.09 -13.29,10.84 6.85,1.36 11.64,0.88 17.53,-2.83l-2.53 7.21c-2.97,7.65 -2.46,8.2 -12.06,6.94 -5.4,8.38 0.84,6.49 -11.85,7.61l-9.36 19.24 4.12 4.48 -9.27 4.61c4.61,7.35 3.46,1.19 8.57,11.15l5.72 7.55c6.55,7.36 -2.25,-1.64 2.33,2.82l22.69 -46.77c5.91,-14.34 13.87,-34.43 17.83,-49.72l-4.76 -4.99c10.74,-8.2 10.62,-13.96 13.55,-27.2 3.88,-17.52 12.62,-62.08 12.49,-78.81 -0.1,-12.66 -2.02,-6.06 -4.97,-14.43 5.21,-4.11 0.14,2.63 6.25,-3.47 0.28,-8.52 1.58,-26.36 -1.26,-33.28 -3.7,-9.01 -4.18,-7.92 -8.95,-13.88 -3.41,-4.27 0.07,-1.78 -4.99,-6.24 -6.8,-5.99 -7.71,-0.84 -5.03,-12.69 12.17,1.87 7.71,13.81 18.94,15.25 2.4,-7.55 -0.93,-27.41 -2.16,-36.72l-4.37 -30.33c-2.06,-7.49 -0.04,-5.41 -6.33,-7.22 2.62,-6.4 6.34,-2.61 -0.84,-25.28l-5.06 -15.98 -10.83 4.81c-0.08,-1 0.1,-2 0.33,-1.74 0.24,0.26 0.49,-0.88 0.68,-1.08 4.29,-4.47 4.99,-3.12 9.13,-6.2 -4.56,-20.59 -15.2,-48.37 -24.26,-67.69 -18.61,-0.37 -10.35,-13.26 -18.69,-23.87 -5.76,1.29 -2.59,0.29 -13.12,9.7 -0.28,0.25 -0.73,0.71 -1.07,1.1zm-58.07 553.3c0.76,-11.86 2.63,-2.21 10.28,-11.55l5.06 10.91c-7.36,-0.9 -12.92,1.93 -13.83,0.88 -0.41,-0.47 -1,-0.14 -1.5,-0.24zm53.99 -44c4.05,-5.53 1.94,-4.45 3.47,-8.09 1.64,-3.91 5.85,-6.18 12.92,-20.12 -8.94,-9.8 -4.7,-12.7 -19.83,-13.04 -3.47,4.79 -4.97,9.47 -8.16,14.21 -3.02,4.47 -6.01,8.89 -8.88,13.53 -52.82,85.29 -135.76,154.96 -228.3,193.08 -38.13,15.71 -77.98,28.69 -118.24,33.39 -27.49,3.21 -46.13,5.77 -74.46,5.78 -2.94,0 -17.31,-0.55 -18.86,-0.27 -10.83,1.98 -3.82,7.58 -1.21,10.58 -10.32,2.71 -1.82,-8.68 -21.76,-5.34 6.62,-4.48 2.82,0.63 3.37,-6.2l-18.7 -1.16c-7.09,10.15 -5.95,9.31 -18.01,13.68 -4.04,13.42 -2.34,2.75 -6.58,7.08l27.06 3.12c-1.25,-3.53 -3.2,-5.64 -2.11,-9.32 10.18,4.93 12.91,9.08 24.53,4.42l5.47 5.21 6.23 -4.18c9.16,9.77 1.99,6.8 15.82,4.83 5.64,-0.8 10.54,7.13 17.4,-2.22 5.28,5.37 3.89,3.84 12.34,3.45l40.95 -4.21c-2.03,-12.54 -4.98,-4.83 -2.18,-15.68 4.01,-0.34 2.42,0.94 6.32,0.23 7.83,-1.43 7.5,-8.71 17.15,6.26l8.82 -1.2c1.24,5.79 0.93,0.46 -0.56,5.85 59.4,-5.48 160.46,-52.26 207.54,-87.79 41.72,-31.48 70.63,-57.57 103.73,-97.53 15.28,-18.46 24.62,-27.02 20.9,-40.01 6.86,3.89 5.01,5.01 9.13,-1.99 -8.4,-2.1 -4.46,3.05 -7.24,-0.44 -0.4,-0.5 -1.03,0.04 -1.54,-0.01 2.44,-6.81 2.7,-3.7 7.86,-9.74l5.64 3.85zm-960.94 -255.07l-6.9 7.27 10.48 79.21c4.11,0.06 3.31,-1.3 4.43,-1.53l4.35 4.83c-8.19,-0.28 -5.04,1.51 -6.31,2.7 29.85,120.49 100.06,233.28 202.46,305.09 5.68,3.98 4.18,0.94 10.33,6.51 3.64,3.29 50.81,36.98 55.44,29.04 1.94,-3.33 -0.86,-14.99 -11.12,-9.05 1.15,-5.17 4.35,-3.18 -6.21,-20.91 -2.51,-4.2 -13.27,-12.35 -18.36,-13.42 -16.42,-3.45 -7.07,0.02 -17.11,-12.43 -2.84,-3.51 -13.02,-10.46 -17.51,-14.12 -24.29,-19.78 -44.46,-39.11 -64.58,-61.74 -43.86,-49.34 -78.95,-112.66 -99.6,-177.81l-6.87 -1.47c0.53,-7.21 -1.36,-1.7 4.27,-7 -1.62,-6.32 -5.67,-25.01 -8.35,-29.33 -2.12,-3.42 -0.5,0.8 -3.32,-4.11l-9.2 -20.72c9.31,6.95 5.4,8.44 10.47,13.45l-7.37 -43.8 -9.62 2.82c-4.54,-5.46 -8.75,-11.26 -10.36,-17.57l10.1 -3.69c0.49,9.11 -4.31,7.27 1.85,14.84l6.13 -1.24c2.96,-6.83 0.28,-19.21 -0.77,-26.97 -10.63,-6.46 -4.47,2.22 -7.45,-10.5 -6.66,1.17 -9.29,1.22 -14.86,-1.72 3.98,-2.83 9.03,-16.08 17.96,-3.23 3.64,5.24 -1.35,2.18 3.13,7.99 1.22,-2.51 2.46,-61.79 3.82,-73.02 3.05,-25.2 7.49,-46.05 12.4,-70.47 -8.26,-6.38 -10.34,-13.04 -17.17,-20.07 -15.94,10.79 -26.36,151.33 -21.97,162.9 0.81,2.12 5.91,8.03 7.38,9.25zm472.85 -807.73c-5.06,4.52 -2.39,4.11 -7.38,0.04 2.91,-2.91 -1.38,-1.86 3.74,-2.47 6.28,-0.75 1.36,0.07 3.64,2.44zm-91.11 15.31l-1.28 -11.65c5.44,2.46 6.97,5.49 11.14,10.44 -6.09,2.99 -2.9,1.58 -9.85,1.21zm-402.39 177.46c7.48,12.11 2.9,10.15 1.57,12.57l-6.63 -6.51c-5.61,3.06 -10.51,7.19 -12.89,12.57 2.45,2.3 -1.86,-1.66 2.5,1.21 8.71,5.74 -4.31,2.16 14.45,16.44l7.43 7.65 11.76 -10.73c-4.88,-8.19 -8.35,-5.48 -9.25,-16.6 4.75,3.18 10.47,10.11 13.53,12.73 8.19,-9.34 22.07,-17.77 29.54,-26.73 9.1,-10.93 2.01,-0.84 15.72,-12.44 5.14,-4.35 11.95,-8.1 16.36,-13.12l-1.57 -6.15c-7.68,-2.39 -11.01,3.41 -14.06,-9.47l6.48 -6.15c8.29,3.69 18.68,9.54 28.19,9.03 -4.4,-11.48 -3.05,-8.46 -1.26,-11.87l6.74 7.76c30.61,-20.13 60.07,-38.3 93.09,-54.45 22.8,-11.15 56.93,-26.13 81.32,-34.34 3.61,-1.22 11.09,-3.38 13.96,-5.28 4.96,-3.28 0.06,-2.28 4.9,-2.9 1.7,-0.22 -1.67,1.54 4.83,-0.69 -4.22,-4.97 -2.13,-0.8 -1.8,-4.18 8.64,5.77 53.37,-9.11 66.4,-13.5l79.04 -13.2c15.04,-4.05 19.13,3.75 32.06,-6.7 17.94,5.75 7.41,3.37 35.9,2.45 9.08,-0.3 31.1,0.55 37.89,-1.2 -4.79,-4.94 -5.11,-1.33 -3.4,-6.91 6.45,3.14 5.07,2.22 9.5,8.31l18.78 0.1c3.79,-11.67 0.05,-7.94 0.88,-13.1 8.04,-0.38 7.4,4 14.2,-4.28 -4.81,-9.99 -5.4,-2.34 -10.85,-9.99 -1.74,-2.44 1.97,0.3 -3.03,-5.36 -4.39,2.75 -10.07,10.77 -12.47,16.1l-6.37 -4.21 15.62 -13c-9.59,-7.15 -15.15,1.32 -26.22,5.53 0.57,-7.8 1.8,1.84 2.44,-6.55 -4.74,-3.67 -13.04,-2.92 -19.37,-2.02 2.6,13.91 -0.52,12.24 11.31,16.13 -5.97,8.54 -14.13,9.63 -23.57,4.73 -0.17,-5.62 7.19,-14.47 9.64,-20.63 -10.49,-2.08 -15.37,1.01 -22.05,1.01 -25,0.02 -55.34,-0.69 -79.25,6.16 0.71,4.85 2.13,7.51 2.83,11.74 1.24,7.58 0.56,5.65 -2.67,8.27 -6.13,-9.06 -3.39,-7.94 -14.45,-9.77l-7.76 -0.97c-0.41,-0.1 -0.88,-0.28 -1.29,-0.41 -23.85,-7.28 -58.02,2.96 -63.87,11.17 -12.88,-6.66 -90.81,24.56 -103.55,29.74 -85.93,34.99 -174.58,87.74 -241.23,151.99zm-34.24 33.1l2.62 7.19 -6.54 -3.46c-17.65,20.4 -34.47,38.61 -50.65,59.13l-32.94 45.4c-6.19,9.89 -7.97,6.85 -4.9,17.11 -6.08,-3.41 -4.53,-2.48 -8.52,3.68l-19.4 31.8 5.03 9.29 -9.7 -1.19c-39.52,72.76 -66.02,146.75 -83.47,227.25 -0.62,2.87 -1.91,8.94 -1.95,11.68 -0.17,10.5 2.2,1.47 -1.55,10.46 -4.63,11.1 -13.24,103.76 -11.83,119.23 0.93,10.17 1.53,4.34 0.03,14.1 6.95,1.42 -0.13,-1.69 6.95,-0.28 -0.24,6.69 -2.91,6.18 -7.35,9.24 -0.08,4.66 -0.18,14.57 0.45,18.79l1.52 17.64c-0.54,11.6 -0.08,28.55 3.5,39.42 11.8,-0.66 5.93,-8.71 18.44,-4.07 -4.19,4.83 -27.19,10.1 -13.44,33.04 5.97,-3.85 5.59,-6.62 3.49,-14.02 6.71,3.6 5.33,4.37 12.35,-1.16 0.86,7.37 0.83,1.75 -5.66,8.12 3.19,5.9 7.2,12.07 13.64,12.82 1.96,-5.84 0.75,-4.11 -3.26,-8.98 10.6,0.16 0.97,10.1 14.06,7.99l-6.35 -62.03c-0.91,-12.4 -0.72,-52.36 -3.4,-60.4 -7.18,-3.88 -8.44,-5.01 -15.68,-0.29 -0.19,-0.55 -0.75,-2.48 -0.96,-2.82l-5.17 -6.36c-7.24,-10.7 -8.76,-10.29 -10.02,-14.61 21.25,0.38 20.35,7.39 32,18.88 2.54,-6.29 1.13,-2.95 0.71,-9.67 -0.51,-8.24 0.87,-4.02 1.36,-11.22 0.96,-14.26 -18.12,-11.96 0.69,-23.75 11.79,-68.91 6.56,-82.2 30.41,-161.36 15.84,-52.56 28.67,-80.91 51.35,-127.75 3.72,-7.68 8.53,-11.12 3.48,-18.12 7.79,1.38 6.34,-0.08 16.96,-18.75 22.96,-40.35 50.4,-78.42 80.63,-113.7 36.83,-42.98 46.21,-39.68 26.3,-55.2 -5.55,-4.32 -7.86,-9.57 -11.97,-13.76l-11.27 10.7zm-190.12 681.65l10.45 13.05c-7.12,-0.04 -1.73,0.36 -6.86,-2.11 -9.5,-4.56 -9.82,-1.57 -10.01,-9.68l6.43 -1.27zm1163.33 -786.56l-9.41 -6.14c6.73,-6.52 14.18,-2.83 20.42,1.51l-11.01 4.63zm-198.33 -85.3c-7.02,5.36 -5.71,1.66 -11.24,-2.05 -5.21,-3.5 -5.27,0.6 -8.52,-5.24 10.79,-4.45 7.01,-4.07 16.01,-2.57 0.19,0.31 3.19,4.51 3.26,4.66 2.08,4.55 1.15,1.32 0.48,5.19zm-41.14 1525.98l88.73 -23.88 30.15 -11.63 1.9 -6.36 5.89 4.08c29.1,-14.41 57.83,-25.19 86.98,-40.42 73.28,-38.27 146.5,-94.56 203.08,-154.63 69.56,-73.85 120.27,-154.5 159.69,-247.04 4.1,-9.62 5.22,-9.16 2.91,-18.46 7.01,-4.62 16.2,-21.44 11.74,-29.87 -4.16,-7.86 -11.75,-7.64 -21.95,-34.52l8.48 7.9c9.79,-2.95 4.29,-8.67 12.79,-5.21 -4.35,4.05 -2.69,0.32 -8.2,5.55 6.32,8.18 3.49,-0.43 6.48,9.64 1.38,4.64 3.05,5.91 6.92,8.9 6.29,-7.29 21.43,-74.6 24.25,-87.52 6.53,-29.87 11.35,-64.55 13.28,-95.41 3.27,-52.21 3.84,-104.59 -3.19,-156.69 -1.36,-10.05 -8.57,-49.7 -8.16,-55.37l-32.04 -119.05c-2.9,-3.72 -47.41,-123.43 -97.53,-185.87 -3.22,-4.01 -5.67,-10.36 -9.61,-15.36 -14.04,-17.86 -27.02,-36.22 -42.33,-53.09 -69.2,-76.27 -115.46,-110.12 -199.71,-165.61 -3.49,4.46 -2.31,5.82 -7.86,7.24 -4.94,1.26 -8.06,2.03 -10.49,-3.27 8.33,1.16 8.31,-0.69 15.37,-4.25 -11.92,-14.06 -149.46,-74.15 -173.1,-74.13 -2.44,6.54 -0.45,3.13 -1.15,9.29 -9.65,3 -11.84,4.24 -14.53,-7.19l13.22 -3.07c-6.01,-5.57 -59.86,-17.69 -69.94,-17.45l-4.67 6.22 -0.94 -7.98 -51.19 -8.38c-6.07,-0.42 -11.67,6.47 -11.77,6.37 -0.33,-0.32 -0.77,0.68 -1.1,1.06 6.48,5.93 2.75,-1.05 6.81,4.83 -5.5,5.81 -10.75,2.78 -15.96,9.04l8.17 3.3c-0.49,0.31 -2.9,1.12 -3.26,1.45 -3.18,2.9 -1.42,-2.29 -2.36,3.43 -1.21,7.4 1.85,5.2 3.38,5.95l66.06 10.12c21.28,4.43 16.29,-4.72 23.7,-1.85 7.72,6.03 0.59,6.44 10.47,9.43l39.63 10.57c16.78,5.88 33.5,10.87 50.15,17.27 25.36,9.75 48.67,21.39 72.75,32.54 12.16,5.63 19.25,-5.39 25.88,5.11 -7.78,-0.22 -4.15,-3.57 -13.92,-1.37 6.72,9.06 41.62,25.27 53.84,33.52 17.88,12.05 34.86,23.63 51.97,36.42 89.36,66.76 166.22,157.63 215.88,257.87 8.68,17.52 22.46,55.96 34.75,67.83l-2.26 6.53c10,22.45 18.39,51.37 24.78,75.26 6.47,24.19 10,53.43 16.78,76.36l6.63 -0.98c-9.27,6.38 -5.82,10.51 -4.24,20.53 3.74,23.69 5.22,47.89 6.18,71.83 1.22,30.69 0.58,59.96 -1.95,90.51 -0.8,9.7 1.5,8.32 -1.39,18.91 -1.62,5.95 -1.94,14.83 -2.88,21.41 -5.77,40.54 -13.39,81.77 -26.38,120.65 -35.9,107.39 -79.33,190.07 -153.47,276.33 -32.76,38.11 -54.72,54.87 -88.12,86.53 -6.5,6.16 -4.42,10.55 -12.03,12.14 -7.26,1.52 -11.36,6.38 -17.5,10.97 -146.15,109.28 -339.71,167.96 -522.7,148.64 -5.87,-0.62 -11.46,-2.54 -16.86,-0.33 -3.5,1.43 -1.53,0.69 -3.43,2.71 5.12,4.39 1.23,0.31 8.37,3.59 -2.01,4.79 -6.58,9.62 -10.82,11.34l-4.3 -2.51c-0.05,-7.96 2.3,-0.77 2.23,-9.3 -6.14,-4.07 -5.29,-1.33 -10.33,-6.59 -4.99,-5.21 -3.75,-4.34 -12.35,-4.04 -4.26,6.52 -0.78,6.35 -9.55,6.99 0.9,-6.77 3.92,2.43 2.36,-8.4 -14.26,-4.19 -31.6,-6.25 -46.26,-9.57 -8.72,-1.97 -6.74,-2.83 -11.06,2.02 -7.2,-4.77 0.2,-4.26 -11.51,-7.36 -12.51,-3.32 -26.22,-10.63 -38.07,-6.16 -5.94,-4.58 -0.19,-3.93 -8.37,-7.61l-28.82 -9.44c-15.83,-3.87 -33.08,-15.41 -48.53,-20.08l-26.57 -13.47c-53.37,-28.78 -106.66,-60.02 -152.19,-100.86 -7.98,-7.15 -7.13,-4.35 -16.02,-13.58l-4.06 4.02 -2.48 -10.62c-10.55,-4.47 -5.28,-2.74 -13.14,-9.67 -8.09,-7.14 -5.87,-8.39 -11.26,-13.27 -3.64,2.38 -1.7,-2.65 -3.22,5.94l-3.46 -3.38c0.81,-7.81 2.08,3.86 2.37,-7.42 -41.19,-37.76 -81.76,-95.09 -110.13,-143.78 -5.56,-9.55 -10.92,-19.1 -16.13,-28.92l-15.4 -29.21c-3.49,8.21 1.25,3.47 -3.48,9.03l-4.36 -8.21 6.07 -4.87c-4.2,-11.11 -9.68,-22.4 -14.27,-33.53 -5.49,-13.31 -5.23,-22.86 -17.28,-27.06 1.4,-9.57 -2.8,-12.71 -6.35,-20.58 5.9,-7.79 2.9,-11.37 -2.31,-24.32 -7.57,-18.81 -17.34,-69.43 -20.39,-87.54l-28.49 -18.62c-2.73,0.01 -3.79,3.64 -10.92,4.17 1.58,12.71 1.85,13.72 13.65,13.52l-3.59 5.3 6.65 9.86c-9.74,0.72 -4.45,-3.05 -12.53,-0.21l13.71 57.52c4.88,-0.13 -5.03,2.41 2.05,-1.19 2.1,-1.07 0.94,-0.84 3.84,-1.65 6.63,5.59 13.2,12.45 21.15,4.64 -4.66,-4.82 -2.41,-0.58 -9.7,-2.92 -8.45,-2.71 -5.36,-5.73 -5.35,-5.97 5.43,-1.95 8.77,3.47 11.02,-3.1 14.39,10.3 1.15,3.84 10.24,15.29 -8.05,7.55 -2.36,2.89 -12.11,6.27 -2.33,7.86 1.75,2.79 -3.74,7.88 -4.86,-3.53 -9.32,-7.68 -15.07,-9.61 15.52,56.2 36.27,108.31 62.95,159.61 10.31,19.82 52.64,89.96 71.54,111.4 4.49,5.09 5.81,8.72 10.67,13.76 7.28,0.59 2.39,-2.19 9.65,0.92 -0.07,3.87 -0.87,3.51 -3.93,6.5 75.91,89.55 169.15,166.6 276.17,216 34.72,16.03 26.31,16.04 48.09,1.27 2,11.14 -0.05,2.17 -1.78,11.98 10.58,12.55 16.65,11.63 30.34,17.48 15.61,6.67 39.45,15.65 55.61,17.51 11.6,1.34 2.31,-1.3 12.51,3.41 3.29,1.52 7.61,2.24 11.1,3 23,5.01 46,10.87 69.69,13.09l-0.31 -3.84 8.21 -0.48 -1.85 5.79 59.95 5.74c21.55,1.4 43.22,1.59 64.79,1.29 22.93,-0.33 45.4,-2.04 68.38,-4.33 17.71,-1.77 36.23,-3.59 53.64,-7.58 13.36,-3.06 3.49,-1.94 12.95,-8.14l0.76 5.22 9.6 -0.31z"/>
  <path fill="black" d="M1167.16 597.13c-5.59,-7.82 -14.93,-7.74 -21.61,-9.36 -14.58,-6.07 -92.39,17.77 -107.12,26.75l40.08 149.41c2.46,6.62 1.74,1.24 3.13,9.29l9.49 36.95 38.1 -15.73 -15.86 -61.07c14.22,-6.02 60.95,-15.23 65.35,-31.18l3.18 -5.12c23.24,-11.2 1.65,-82.86 -14.76,-99.93zm-534.96 338.16l22.66 -4.9 -7.77 -7.88c-6.56,4.51 -5.44,8.19 -12.68,6.46 2.69,-2.22 6.44,-2.62 8.37,-5.83 3.86,-6.43 -0.72,-4.69 1.23,-10.12 5.15,6.25 3.3,5.18 11.6,7.79 11.86,3.72 14.04,11.97 51.64,-6.54 24.46,-12.04 31.75,-26.86 27.01,-54.23 -13.8,-79.62 -39.41,-72.57 -103.55,-53.43l-12.87 3.83 -12.02 -44.44c14.24,-4.1 28.35,-7.76 42.47,-11.49l30.6 -8.09c9.3,-2.64 7.15,-0.64 8.91,-6.07l-6.98 -26.72 -2.49 -4.68 -19.23 5.29 -1.87 5.04c-5.52,-0.87 0.09,1.42 -6.3,-2.49l-1.14 2.82c-6.34,3.68 -13.53,7.87 -21.21,8.87l5.62 -7.27 -38.37 9.01c-0.09,2.2 -1.4,1.64 0.32,5.46 3.02,6.69 9.93,4.42 14.75,2.2 -5.55,5.3 -1.76,2.35 -1.6,5.12 6.18,2.18 12.46,3.17 17.13,7.33l-6.94 -1.33c-0.19,4.81 -0.76,-0.6 0.37,2.53 2.29,6.38 0.12,-4.33 0.57,1.08 -8.06,-1.3 -4.17,-1.71 -9.76,-4.48 -3.07,-1.52 -10.09,-3.68 -13.13,-4.22 -11.64,-9.96 -25.52,-7.43 -41.13,-2.26l52.91 197.39 22.91 -3.75zm373.75 -168.62c-2.07,6.15 1.07,8.82 -0.17,17.9 -0.76,5.58 -3.07,9.11 -5.18,13.56 -13.39,4.04 -31.44,16.62 -46.1,8.41 -15.44,-8.65 -30.1,-74.53 -33.13,-92.15 -3.04,-17.7 -5.31,-24.64 7.99,-36.82 11.56,-4.11 18.53,-7.38 31.27,-7.71 13.1,-0.34 12.7,5.98 20.73,11.82 0.4,3.8 11.69,39.87 13.61,44.91 6.84,17.93 2.09,-3.07 4.61,16.89 0.94,7.46 2.84,17.1 6.37,23.19zm-127.92 -70.27c-2.76,21.1 19.79,98.54 30.17,118.65 22.16,42.93 55.35,34.73 96.12,21.12 46.08,-15.38 48.6,-40.24 39.56,-85.11 -4.88,-24.24 -24.01,-99.66 -44.44,-110.4 -19.26,-18.27 -57.28,-5.7 -80.07,1.54 -6.83,4.3 -1.77,2.82 -7.26,4.61 -3.55,1.16 -4.09,0.04 -9.23,2.75 -5.88,3.11 -8.17,7.09 -13.25,11.07 -7.61,5.97 -11.49,19.35 -12.65,29.56l1.06 6.21zm-235.91 202.87c-3.57,-8.83 -15.13,-49.98 -15.11,-58.12 44.02,-15.14 54.34,-18.75 63.12,14.69 10.19,38.77 -15.13,36.42 -48.01,43.43zm491.8 -198.19l-29.81 -0.86 -17.08 -66.32c9.45,-4.3 23.71,-8.69 34.08,-9.48 11.9,-0.9 15.51,4.06 20.66,13.73l7.62 28.79c-0.1,3.31 -0.08,7.76 -0.99,10.94 -1.27,4.46 -1.5,2.89 -2.82,5.62 -1.61,3.32 -1.32,1.34 -1.36,5.14l6.18 -0.31 -0.6 14.29c-9.77,-3.7 -0.61,-5.18 -15.88,-1.53zm-413.11 0.81l8.85 34.07c31.73,-11.92 65.81,-34.44 75.69,-8.71 16.3,42.45 -22.6,36.75 -48.34,48.45l7.7 30.15c28.31,-0.12 66.55,-32.76 71.62,21.24 2.74,29.18 -57.61,29.71 -78.67,33.31l7.84 28.28c13.81,-0.63 9.75,0.83 19.11,2.38 6.24,-4.57 17.86,-6.83 21.86,-9.73 5.66,-4.1 8.04,-11.85 15.67,-16.64 -0.09,11.74 -5.53,12.84 -5.82,21.99 14.48,-3.35 23.12,-5.56 36.7,-11.7l-2.01 -5.4c22.65,7.59 31.03,-33.92 26.2,-51.39 -9.28,-33.57 -16.27,-49.58 -45.55,-47.23 8.94,-15.57 19.23,-17.12 17.05,-42.06 -1.36,-15.56 -8.97,-38.05 -22.55,-47.19 -27.21,-18.31 -78.1,10.03 -105.34,20.17zm-283.03 70.35l0.85 10.9c-7.65,-5.52 -3.09,-2.93 -7.97,-8.59 -15.81,7.52 -20.16,7.83 -24.96,19.01 -5.12,11.91 -9.01,4.38 -9.56,30.25 -0.58,27.2 9.28,55.19 16.18,81.43 18.63,70.89 40.15,82.51 109.19,60.95 -7.02,-5.95 -10.69,-22.6 -13.9,-32.71 -12.12,2.81 -29.48,10.11 -39.15,-0.66 -8.61,-9.58 -46.6,-110.52 -20.99,-125.06 10.11,-5.74 31.75,-12.46 42.26,-6.23 14.02,8.32 28.73,70.22 31.44,86.87 2.3,14.15 7.43,28.64 -3.6,39.71 6.73,33.76 6.36,8.06 11.06,34.68 6.13,-4.09 36.89,-6.12 37.63,-48.06 0.52,-29.46 -20.93,-125.28 -52.24,-147.92 -16.76,-12.12 -58.44,-2.25 -76.24,5.42z"/>
 </g>
</svg>
