<?xml version="1.0" encoding="UTF-8"?>
<!DOCTYPE svg PUBLIC "-//W3C//DTD SVG 1.1//EN" "http://www.w3.org/Graphics/SVG/1.1/DTD/svg11.dtd">
<!-- Creator: CorelDRAW 2017 -->
<svg xmlns="http://www.w3.org/2000/svg" xml:space="preserve" width="180.336mm" height="164.122mm" version="1.1" shape-rendering="geometricPrecision" text-rendering="geometricPrecision" image-rendering="optimizeQuality" fill-rule="evenodd" clip-rule="evenodd"
viewBox="0 0 1524.45 1387.38"
 xmlns:xlink="http://www.w3.org/1999/xlink">
 <g id="Слой_x0020_1">
  <metadata id="CorelCorpID_0Corel-Layer"/>
  <path fill="black" d="M1056.92 369.18c0.24,0.06 0.51,0.11 0.71,0.15l353.41 61.8c51.11,8.94 91.57,44.47 107.04,93.99 15.46,49.49 2.4,101.79 -34.52,138.2l-241.11 237.84c-0.15,0.15 -0.36,0.36 -0.53,0.57 0.01,0.27 0.05,0.56 0.08,0.77l45.68 329c6.9,49.67 -13.1,97.85 -53.12,128.05 -40.16,30.3 -91.7,36.25 -137.72,15.92l-333.96 -147.6c-0.18,-0.08 -0.41,-0.18 -0.64,-0.26 -0.23,0.08 -0.46,0.18 -0.64,0.26l-333.96 147.6c-46.01,20.34 -97.56,14.38 -137.72,-15.92 -40.03,-30.2 -60.02,-78.38 -53.13,-128.05l45.68 -329c0.03,-0.21 0.07,-0.5 0.08,-0.77 -0.17,-0.21 -0.38,-0.42 -0.53,-0.57l-241.11 -237.84c-36.91,-36.41 -49.98,-88.71 -34.52,-138.2 15.47,-49.52 55.93,-85.05 107.04,-93.99l353.41 -61.8c0.2,-0.03 0.46,-0.08 0.71,-0.15 0.14,-0.21 0.28,-0.44 0.38,-0.61l176.24 -300.89c24.9,-42.51 68.8,-67.67 118.07,-67.67 49.27,0 93.17,25.16 118.07,67.67l176.24 300.89c0.1,0.17 0.24,0.4 0.38,0.61z"/>
 </g>
</svg>
