<?xml version="1.0" encoding="UTF-8"?>
<!DOCTYPE svg PUBLIC "-//W3C//DTD SVG 1.1//EN" "http://www.w3.org/Graphics/SVG/1.1/DTD/svg11.dtd">
<!-- Creator: CorelDRAW X6 -->
<svg xmlns="http://www.w3.org/2000/svg" xml:space="preserve" width="97.5329mm" height="99.0009mm" version="1.1" shape-rendering="geometricPrecision" text-rendering="geometricPrecision" image-rendering="optimizeQuality" fill-rule="evenodd" clip-rule="evenodd"
viewBox="0 0 617 627"
 xmlns:xlink="http://www.w3.org/1999/xlink">
 <g id="Слой_x0020_1">
  <metadata id="CorelCorpID_0Corel-Layer"/>
  <path fill="#B3B3B3" d="M437 156l117 25c13,3 26,9 36,18 10,9 18,21 22,34 4,13 5,27 3,40 -3,14 -9,26 -18,36l-84 97 15 133c2,14 0,28 -6,41 -6,13 -15,24 -27,32 -12,8 -25,13 -39,14 -14,1 -28,-2 -41,-8l-107 -53 -107 53c-13,6 -27,9 -41,8 -14,-1 -28,-6 -39,-14 -12,-8 -21,-19 -27,-32 -6,-13 -8,-27 -6,-41l15 -133 -84 -97c-9,-10 -15,-23 -18,-36 -3,-13 -2,-27 3,-40 4,-13 12,-25 22,-34 10,-9 23,-15 36,-18l117 -25 59 -114c7,-13 16,-24 29,-31 12,-8 26,-11 41,-11 15,0 29,4 41,11 12,8 22,18 29,31l59 114zm102 97l-138 -29 -14 -3 -7 -13 -68 -132c0,-1 -1,-1 -2,-2 0,0 -1,0 -2,0 -1,0 -2,0 -2,0 -1,0 -1,1 -2,2l-68 132 -7 13 -14 3 -138 29c-1,0 -2,1 -2,1 -1,0 -1,1 -1,2 0,1 0,2 0,2 0,1 0,1 1,2l97 111 9 10 -2 13 -17 152c0,1 0,2 0,2 0,1 1,1 2,2 1,1 1,1 2,1 1,0 2,0 2,-1l126 -63 14 -7 14 7 126 63c1,0 2,1 2,1 1,0 1,0 2,-1 1,-1 1,-1 2,-2 0,-1 0,-1 0,-2l-17 -152 -2 -13 9 -10 97 -111c1,-1 1,-1 1,-2 0,-1 0,-2 0,-2 0,-1 -1,-1 -1,-2 0,0 -1,-1 -2,-1z"/>
 </g>
</svg>
