<?xml version="1.0" encoding="UTF-8"?>
<!DOCTYPE svg PUBLIC "-//W3C//DTD SVG 1.1//EN" "http://www.w3.org/Graphics/SVG/1.1/DTD/svg11.dtd">
<!-- Creator: CorelDRAW X6 -->
<svg xmlns="http://www.w3.org/2000/svg" xml:space="preserve" width="164.338mm" height="148.122mm" version="1.1" shape-rendering="geometricPrecision" text-rendering="geometricPrecision" image-rendering="optimizeQuality" fill-rule="evenodd" clip-rule="evenodd"
viewBox="0 0 859 774"
 xmlns:xlink="http://www.w3.org/1999/xlink">
 <g id="Слой_x0020_1">
  <metadata id="CorelCorpID_0Corel-Layer"/>
  <path fill="#B3B3B3" d="M466 21l109 186c7,11 17,18 30,21l218 38c16,3 29,14 33,29 5,16 1,32 -11,43l-149 147c-10,10 -14,23 -12,36l28 203c2,16 -4,30 -17,40 -13,10 -28,11 -43,5l-206 -91c-11,-5 -23,-5 -35,0l-206 91c-15,6 -30,5 -43,-5 -13,-10 -19,-24 -17,-40l28 -203c2,-14 -2,-27 -12,-36l-149 -147c-12,-12 -16,-28 -11,-43 5,-16 17,-27 33,-29l218 -38c13,-2 23,-9 30,-21l109 -186c8,-13 21,-21 37,-21 16,0 29,8 37,21z"/>
 </g>
</svg>
