<?xml version="1.0" encoding="UTF-8"?>
<!DOCTYPE svg PUBLIC "-//W3C//DTD SVG 1.1//EN" "http://www.w3.org/Graphics/SVG/1.1/DTD/svg11.dtd">
<!-- Creator: CorelDRAW 2017 -->
<svg xmlns="http://www.w3.org/2000/svg" xml:space="preserve" width="180.336mm" height="164.122mm" version="1.1" shape-rendering="geometricPrecision" text-rendering="geometricPrecision" image-rendering="optimizeQuality" fill-rule="evenodd" clip-rule="evenodd"
viewBox="0 0 1829.39 1664.9"
 xmlns:xlink="http://www.w3.org/1999/xlink">
 <style type="text/css">
    <![CDATA[
    .psvg-bg { fill: yellow; }
    .psvg-front { fill: red; }
    ]]>
  </style>
 <g id="Слой_x0020_1">
  <metadata id="CorelCorpID_0Corel-Layer"/>
  <path fill="white" d="M1268.33 443.03c0.29,0.08 0.61,0.13 0.85,0.17l424.1 74.16c61.33,10.73 109.89,53.36 128.45,112.79 18.55,59.39 2.88,122.15 -41.42,165.85l-289.34 285.41c-0.18,0.18 -0.43,0.43 -0.64,0.68 0.01,0.32 0.06,0.68 0.09,0.93l54.81 394.81c8.27,59.6 -15.71,117.42 -63.75,153.66 -48.19,36.36 -110.05,43.51 -165.26,19.1l-400.77 -177.12c-0.22,-0.09 -0.49,-0.22 -0.76,-0.31 -0.27,0.1 -0.55,0.22 -0.76,0.31l-400.77 177.12c-55.22,24.4 -117.07,17.25 -165.26,-19.1 -48.04,-36.24 -72.03,-94.06 -63.75,-153.66l54.81 -394.81c0.03,-0.25 0.08,-0.6 0.09,-0.93 -0.21,-0.25 -0.46,-0.5 -0.64,-0.68l-289.34 -285.41c-44.3,-43.7 -59.97,-106.45 -41.42,-165.85 18.56,-59.43 67.12,-102.07 128.45,-112.79l424.1 -74.16c0.24,-0.04 0.55,-0.1 0.85,-0.17 0.17,-0.25 0.34,-0.52 0.46,-0.73l211.5 -361.08c29.88,-51.01 82.56,-81.21 141.68,-81.21 59.12,0 111.8,30.2 141.68,81.21l211.5 361.08c0.12,0.21 0.29,0.48 0.46,0.73z"/>
  <path fill="#66C52D" d="M986.35 122.23l211.5 361.08c12.77,21.8 32.46,35.48 57.35,39.83l424.1 74.16c31.41,5.49 55.46,26.61 64.96,57.05 9.51,30.43 1.75,61.49 -20.95,83.88l-289.34 285.41c-19.28,19.02 -27.66,43.71 -23.94,70.54l54.81 394.81c4.25,30.64 -7.55,59.08 -32.24,77.72 -24.7,18.63 -55.29,22.17 -83.58,9.66l-400.77 -177.12c-22.17,-9.8 -44.97,-9.8 -67.14,0l-400.77 177.12c-28.3,12.51 -58.89,8.97 -83.58,-9.66 -24.7,-18.63 -36.5,-47.07 -32.24,-77.72l54.81 -394.81c3.72,-26.83 -4.65,-51.52 -23.94,-70.54l-289.34 -285.41c-22.7,-22.39 -30.45,-53.45 -20.95,-83.88 9.51,-30.43 33.56,-51.55 64.96,-57.05l424.1 -74.16c24.89,-4.35 44.58,-18.03 57.35,-39.83l211.5 -361.08c15.32,-26.16 41.35,-41.07 71.66,-41.07 30.31,0 56.34,14.92 71.66,41.07z"/>
 </g>
</svg>
