<?xml version="1.0" encoding="UTF-8"?>
<!DOCTYPE svg PUBLIC "-//W3C//DTD SVG 1.1//EN" "http://www.w3.org/Graphics/SVG/1.1/DTD/svg11.dtd">
<!-- Creator: CorelDRAW X6 -->
<svg xmlns="http://www.w3.org/2000/svg" xml:space="preserve" width="541.283mm" height="43.9178mm" version="1.1" shape-rendering="geometricPrecision" text-rendering="geometricPrecision" image-rendering="optimizeQuality" fill-rule="evenodd" clip-rule="evenodd"
viewBox="0 0 15042 1220"
 xmlns:xlink="http://www.w3.org/1999/xlink">
 <g id="Слой_x0020_1">
  <metadata id="CorelCorpID_0Corel-Layer"/>
  <path fill="#B3B3B3" d="M1935 1l1223 -1 -290 1220 -1223 1 290 -1220zm12551 -1l-863 0 -290 1220 1710 0 -202 -948c-43,-145 -139,-273 -354,-271zm-2312 1l1223 -1 -290 1220 -1223 1 290 -1220zm-1463 0l1223 -1 -290 1220 -1223 1 290 -1220zm-1463 0l1223 -1 -290 1220 -1223 1 290 -1220zm-1463 0l1223 -1 -290 1220 -1223 1 290 -1220zm-1463 0l1223 -1 -290 1220 -1223 1 290 -1220zm-1463 0l1223 -1 -290 1220 -1223 1 290 -1220zm-1463 0l1223 -1 -290 1220 -1223 1 290 -1220zm-2841 1220l863 0 290 -1220 -1710 0 202 948c43,145 139,273 354,271z"/>
 </g>
</svg>
