<?xml version="1.0" encoding="UTF-8"?>
<!DOCTYPE svg PUBLIC "-//W3C//DTD SVG 1.1//EN" "http://www.w3.org/Graphics/SVG/1.1/DTD/svg11.dtd">
<!-- Creator: CorelDRAW X6 -->
<svg xmlns="http://www.w3.org/2000/svg" xml:space="preserve" width="245.24mm" height="245.24mm" version="1.1" shape-rendering="geometricPrecision" text-rendering="geometricPrecision" image-rendering="optimizeQuality" fill-rule="evenodd" clip-rule="evenodd"
viewBox="0 0 4636 4636"
 xmlns:xlink="http://www.w3.org/1999/xlink">
 <g id="Слой_x0020_1">
  <metadata id="CorelCorpID_0Corel-Layer"/>
  <path fill="black" d="M240 0l4156 0c132,0 240,108 240,240l0 4156c0,132 -108,240 -240,240l-4156 0c-132,0 -240,-108 -240,-240l0 -4156c0,-132 108,-240 240,-240zm0 204l4156 0c20,0 36,16 36,36l0 4156c0,20 -16,36 -36,36l-4156 0c-20,0 -36,-16 -36,-36l0 -4156c0,-20 16,-36 36,-36z"/>
  <path fill="#010100" d="M3912 2427l2 20c-1,15 -9,30 -29,43 -29,19 -89,5 -129,-2 -61,-10 -116,-36 -170,-70 6,27 11,54 15,81 4,25 6,50 7,75 5,178 -35,331 -152,470 -173,205 -523,350 -779,410 -248,59 -501,100 -756,95 -61,-1 -123,1 -184,-7 -25,-3 -48,-4 -73,-5 -39,-1 -75,-8 -113,-16 -13,-3 -27,-3 -40,-5 -17,-3 -32,-7 -49,-11 -91,-20 -228,-61 -287,-137 -61,-77 -79,-190 -82,-286 -4,-120 12,-245 34,-363 19,-103 44,-205 73,-306 23,-78 48,-157 76,-233 15,-41 32,-82 47,-123 92,-247 295,-588 503,-752 117,-93 250,-130 397,-139 58,-4 130,3 188,13 7,1 15,3 22,4 -26,-47 -48,-97 -58,-151 -7,-37 0,-55 21,-70 44,-31 101,5 139,19 81,32 151,38 271,98 99,50 139,88 210,174 30,36 69,77 96,128l220 -451c13,-28 31,-72 57,-95 38,-33 73,-42 122,-43 81,-1 139,87 174,154 17,32 20,100 15,130 -30,158 -211,390 -315,524 -11,14 -29,30 -37,44 2,2 9,2 11,4 108,31 203,85 277,174 217,263 153,376 238,545 1,1 29,28 37,58zm-1447 563c0,-85 115,-200 200,-200 24,0 47,6 62,26 12,17 13,37 13,56 0,50 -38,98 -74,130 -24,22 -54,41 -85,53 -28,10 -62,16 -88,-3 -21,-15 -28,-38 -28,-63zm6 -462c0,-33 14,-69 29,-98 22,-40 71,-104 124,-93 16,4 29,14 38,27 37,54 -11,160 -51,203 -25,27 -64,53 -102,37 -30,-13 -39,-46 -39,-76zm-927 98c0,-67 65,-192 142,-192 11,0 21,3 30,8 32,19 35,62 29,95 -7,43 -29,86 -55,121 -14,19 -44,42 -67,48 -18,4 -37,2 -51,-10 -21,-16 -27,-45 -27,-70zm356 512c0,-55 66,-102 113,-118 15,-5 30,-9 46,-11 34,-5 79,-3 102,26 9,11 13,25 13,40 0,57 -56,96 -104,115 -45,17 -124,32 -158,-14 -8,-11 -12,-25 -12,-38zm-428 -34c0,-66 49,-171 125,-171 10,0 21,2 30,7 52,27 51,109 37,157 -6,20 -15,40 -27,57 -24,34 -63,65 -107,50 -41,-14 -57,-60 -57,-100zm214 -897c0,-81 119,-200 200,-200 41,0 74,22 74,66 0,50 -31,98 -65,132 -25,25 -56,49 -89,63 -29,12 -66,20 -94,1 -20,-14 -28,-38 -28,-62zm285 503c0,-51 32,-98 67,-133 26,-25 59,-48 92,-61 29,-11 67,-18 94,4 15,13 22,32 22,51 0,50 -29,97 -62,132 -26,26 -58,50 -92,64 -29,12 -68,20 -95,-1 -18,-14 -24,-35 -24,-56zm143 -499c0,-51 32,-99 68,-133 26,-25 58,-47 91,-61 29,-12 66,-19 93,2 16,13 23,33 23,53 0,50 -28,96 -62,131 -26,27 -59,51 -94,64 -30,12 -69,19 -96,-2 -17,-13 -23,-34 -23,-55zm1237 168c-13,146 -71,280 -164,377 -33,34 -90,85 -154,92 -105,11 -79,-113 -93,-177 -12,-54 -118,-174 -161,-233 -104,-144 -164,-275 -99,-456 -151,16 -251,-22 -374,-91 -51,-28 -105,-57 -174,-65 -62,-7 -171,31 -179,-52 -5,-49 57,-80 112,-126 43,-36 85,-69 133,-103 121,-85 180,-104 287,-117 -69,-21 -151,-38 -189,-42 -97,-11 -244,26 -320,87 -80,64 -149,132 -210,215 -54,74 -99,155 -143,235 -22,40 -42,79 -60,121 -13,31 -26,62 -40,92 -18,40 -35,80 -49,121 -12,33 -23,66 -35,99 -39,106 -66,216 -91,327 -11,49 -21,99 -28,149 -8,60 -13,120 -15,180 -3,70 0,161 49,217 49,57 143,75 213,85l0 0 24 4 1 0c2,0 3,1 5,1l14 3c14,3 27,5 42,7l258 12c29,0 58,-1 88,-3 28,-1 56,-1 84,-3 119,-10 235,-22 352,-47 74,-16 149,-31 222,-52 76,-22 151,-50 225,-78 168,-62 393,-191 471,-359 59,-128 45,-285 2,-420zm-132 -262l-10 -12 7 -7c-10,-62 -28,-67 -27,-96 1,-44 52,-84 105,-43 31,25 31,33 49,73 25,55 149,166 208,213l143 90c17,7 23,9 38,17l-41 -159c-13,-56 -26,-99 -51,-147 -87,-164 -189,-253 -363,-290 -47,-10 -92,-20 -147,-51 19,-28 52,-70 76,-99 99,-119 255,-320 320,-450 38,-77 70,-138 -2,-214 -38,-40 -49,2 -72,48l-243 483c-20,41 -58,109 -104,155 -53,-80 -67,-102 -97,-176 -15,-40 -107,-141 -138,-179 -78,-91 -230,-123 -327,-162 5,26 126,232 147,258 32,38 65,56 99,94 48,55 35,103 -15,118 -50,15 -142,-76 -329,-25 -50,14 -103,37 -140,62l-114 82c11,12 28,13 47,19 36,10 97,41 127,59 52,30 111,63 177,73 160,23 301,-53 316,47 5,34 -23,57 -40,79 -29,39 -50,143 -33,203 20,70 54,127 89,176 83,115 179,191 195,338 83,-69 142,-184 157,-310 9,-72 0,-155 -3,-224 -1,-17 -2,-32 -4,-45z"/>
 </g>
</svg>
