<?xml version="1.0" encoding="UTF-8"?>
<!DOCTYPE svg PUBLIC "-//W3C//DTD SVG 1.1//EN" "http://www.w3.org/Graphics/SVG/1.1/DTD/svg11.dtd">
<!-- Creator: CorelDRAW X6 -->
<svg xmlns="http://www.w3.org/2000/svg" xml:space="preserve" width="245.24mm" height="245.24mm" version="1.1" shape-rendering="geometricPrecision" text-rendering="geometricPrecision" image-rendering="optimizeQuality" fill-rule="evenodd" clip-rule="evenodd"
viewBox="0 0 3334 3334"
 xmlns:xlink="http://www.w3.org/1999/xlink">
 <g id="Слой_x0020_1">
  <metadata id="CorelCorpID_0Corel-Layer"/>
  <path fill="black" d="M173 0l2989 0c95,0 173,78 173,173l0 2989c0,95 -78,173 -173,173l-2989 0c-95,0 -173,-78 -173,-173l0 -2989c0,-95 78,-173 173,-173zm0 147l2989 0c14,0 26,12 26,26l0 2989c0,14 -12,26 -26,26l-2989 0c-14,0 -26,-12 -26,-26l0 -2989c0,-14 12,-26 26,-26z"/>
  <path fill="black" d="M2207 2383c-128,145 -446,189 -624,198 -128,6 -263,3 -389,-18 -143,-23 -369,-70 -457,-194 -45,-63 -50,-106 -50,-183l0 -1013c0,-105 9,-187 97,-256 69,-54 137,-82 221,-105 242,-66 503,-78 752,-42 47,7 93,16 139,27 64,15 134,36 193,66 46,23 95,56 127,98 20,14 101,39 125,46 113,33 219,51 337,59 62,4 139,-6 194,29 32,21 50,52 59,89 16,70 -22,148 -58,206 -22,36 -46,69 -71,103 -9,12 -18,24 -27,36 1,2 3,3 4,5 12,14 24,28 36,42 19,22 38,44 57,66 27,31 55,66 62,109 7,42 -8,80 -31,115 -20,30 -41,60 -61,90 -12,19 -25,37 -37,56 -3,5 -6,9 -10,15l48 85c21,36 40,73 59,110 28,53 44,102 19,162 -25,60 -88,83 -149,82 -159,-2 -302,-17 -456,-54 -22,-5 -45,-12 -67,-18 -13,-3 -26,-7 -39,-10 -1,0 -2,0 -3,-1zm-734 -1364c123,0 222,34 222,77 0,42 -99,77 -222,77 -123,0 -222,-34 -222,-77 0,-42 99,-77 222,-77zm0 -132c334,0 605,94 605,209 0,115 -271,209 -605,209 -334,0 -605,-94 -605,-209 0,-115 271,-209 605,-209zm1271 888c-1,-1 -2,-2 -2,-3 -10,-12 -19,-23 -29,-35 -16,-19 -33,-39 -50,-58 -17,-19 -34,-39 -50,-59 -13,-15 -49,-55 -56,-73l-6 -17 8 -16c4,-9 11,-18 17,-26 9,-12 18,-24 27,-36 25,-32 49,-64 72,-97 20,-28 40,-58 57,-89 2,-3 5,-9 8,-16 -37,-1 -73,-2 -109,-6 -49,-5 -98,-11 -146,-19 -48,-8 -95,-19 -142,-31 -25,-7 -50,-15 -74,-23l0 1039c10,3 20,6 29,9 25,7 50,13 76,18 40,9 81,16 122,22 48,7 98,11 146,15 29,2 58,4 86,5 -10,-19 -20,-37 -31,-56 -20,-36 -41,-72 -61,-109l-48 -84 0 -11c0,-20 22,-48 33,-64 19,-28 38,-56 57,-84 17,-25 35,-51 52,-77 4,-7 10,-15 15,-22zm-1872 -430c0,280 0,559 0,839 0,15 -2,40 1,55 2,7 5,13 9,18 52,69 211,103 291,117 99,17 207,26 308,26 101,0 207,-9 306,-27 80,-14 241,-49 290,-120 3,-5 5,-10 7,-15 4,-17 1,-42 1,-60l0 -678c0,-52 2,-104 1,-155 -2,1 -3,2 -5,3 -163,79 -422,108 -603,108 -182,0 -439,-29 -603,-108 -1,-1 -3,-1 -4,-2z"/>
 </g>
</svg>
