<?xml version="1.0" encoding="UTF-8"?>
<!DOCTYPE svg PUBLIC "-//W3C//DTD SVG 1.1//EN" "http://www.w3.org/Graphics/SVG/1.1/DTD/svg11.dtd">
<!-- Creator: CorelDRAW X6 -->
<svg xmlns="http://www.w3.org/2000/svg" xml:space="preserve" width="142.819mm" height="115.876mm" version="1.1" shape-rendering="geometricPrecision" text-rendering="geometricPrecision" image-rendering="optimizeQuality" fill-rule="evenodd" clip-rule="evenodd"
viewBox="0 0 907 736"
 xmlns:xlink="http://www.w3.org/1999/xlink">
 <g id="Слой_x0020_1">
  <metadata id="CorelCorpID_0Corel-Layer"/>
  <path fill="#B3B3B3" d="M0 651c66,5 217,-12 267,-76 -68,0 -163,-63 -168,-129 27,5 49,5 68,0 -54,-33 -119,-47 -136,-189 21,10 52,21 81,24 -64,-55 -116,-153 -50,-245 79,102 251,190 383,190 -19,-83 23,-167 97,-204 38,-19 79,-27 121,-20 64,12 103,55 105,55 18,5 101,-38 116,-39 -1,38 -41,71 -68,94 28,0 65,-17 91,-23 -2,26 -68,84 -87,94 0,184 -87,378 -250,474 -160,95 -417,115 -570,-7z"/>
 </g>
</svg>
