<?xml version="1.0" encoding="UTF-8"?>
<!DOCTYPE svg PUBLIC "-//W3C//DTD SVG 1.1//EN" "http://www.w3.org/Graphics/SVG/1.1/DTD/svg11.dtd">
<!-- Creator: CorelDRAW X6 -->
<svg xmlns="http://www.w3.org/2000/svg" xml:space="preserve" width="154.966mm" height="89.1323mm" version="1.1" shape-rendering="geometricPrecision" text-rendering="geometricPrecision" image-rendering="optimizeQuality" fill-rule="evenodd" clip-rule="evenodd"
viewBox="0 0 1561 898"
 xmlns:xlink="http://www.w3.org/1999/xlink">
 <g id="Слой_x0020_1">
  <metadata id="CorelCorpID_0Corel-Layer"/>
  <path fill="#B3B3B3" d="M512 63c41,28 104,25 104,189 0,440 -228,-30 -281,-158 -12,-30 -29,-49 -73,-49l-220 0c-98,0 0,146 33,211 83,165 149,275 263,420 42,54 104,112 164,147 60,35 102,52 184,66 37,6 192,21 217,-15 21,-30 1,-100 30,-153 70,-127 189,171 317,171l262 0c32,0 46,-12 49,-31l0 -16c-12,-94 -158,-212 -224,-274 -42,-39 -49,-72 28,-168 36,-45 299,-359 147,-359 -407,0 -266,-44 -407,209 -31,56 -96,172 -161,187 -55,-47 -30,-140 -30,-195 0,-75 24,-175 -20,-212 -58,-49 -330,-49 -383,29z"/>
 </g>
</svg>
