<?xml version="1.0" encoding="UTF-8"?>
<!DOCTYPE svg PUBLIC "-//W3C//DTD SVG 1.1//EN" "http://www.w3.org/Graphics/SVG/1.1/DTD/svg11.dtd">
<!-- Creator: CorelDRAW X6 -->
<svg xmlns="http://www.w3.org/2000/svg" xml:space="preserve" width="161.105mm" height="113.193mm" version="1.1" shape-rendering="geometricPrecision" text-rendering="geometricPrecision" image-rendering="optimizeQuality" fill-rule="evenodd" clip-rule="evenodd"
viewBox="0 0 845 593"
 xmlns:xlink="http://www.w3.org/1999/xlink">
 <g id="Слой_x0020_1">
  <metadata id="CorelCorpID_0Corel-Layer"/>
  <path fill="#B3B3B3" d="M422 0c-111,0 -192,4 -252,7 -132,5 -152,31 -165,181 -3,31 -4,67 -4,109l0 0 0 0c0,42 1,78 4,109 13,150 34,176 165,181 60,2 142,7 252,7l0 0 0 0c111,0 192,-4 252,-7 132,-5 152,-31 165,-181 3,-31 4,-67 4,-109l0 0 0 0c0,-42 -1,-78 -4,-109 -13,-150 -34,-176 -165,-181 -60,-2 -142,-7 -252,-7l0 0 0 0zm-86 405l-1 -237 227 118 -227 119z"/>
 </g>
</svg>
